<svg id="favicon" data-name="favicon" xmlns="http://www.w3.org/2000/svg" viewBox="0 0 800 800">
    <defs>
        <style>
            .cls-1 { fill: #0072b0; }
            .cls-2 { fill: #fff; }
        </style>
    </defs>
    <title>logo_full_light</title>

    <rect class="cls-1" width="800" height="800" rx="74.83"/>
    <g>
        <path class="cls-2" d="M170.82,591.68v-384h89.42V519.27H451.69v72.41Z"/>
        <path class="cls-2" d="M326.55,591.68v-384H492.77q51.56,0,88.87,16.73t57.6,48q20.29,31.27,20.3,74.06,0,43.33-20.3,74.33T581.64,468q-37.3,16.18-88.87,16.18H375.37l40.6-38.4V591.68Zm78.62-136-40.6-42.24H477q40.59,0,61.44-17.55t20.85-49.37q0-31.82-20.85-49.1T477,280.09H364.57l40.6-42.24Zm155.25,136L463.87,452.34h95.45l96.55,139.34Z"/>
        <rect class="cls-1" x="324.66" y="484.16" width="128.43" height="35.16"/>
    </g>
</svg>
