<svg id="Слой_1" data-name="Слой 1" xmlns="http://www.w3.org/2000/svg" viewBox="0 0 800 800"><defs><style>.cls-1{fill:#13263c;}.cls-2{fill:#fff;}</style></defs><title>square</title><rect class="cls-1" width="800" height="800" rx="74.83"/><path class="cls-2" d="M171.23,592V208h89.41V519.59H452.08V592Z"/><path class="cls-2" d="M327,592V208H493.17q51.55,0,88.87,16.73t57.6,48q20.29,31.27,20.3,74.06,0,43.35-20.3,74.33T582.08,468.3q-37.33,16.21-88.91,16.21H375.77l40.6-38.4V592Zm78.62-136L365,413.72H477.44q40.59,0,61.44-17.56t20.84-49.37q0-31.8-20.84-49.1t-61.44-17.27H365l40.59-42.25ZM560.82,592,464.27,452.67h95.45L656.27,592Z"/><rect class="cls-1" x="325.06" y="484.48" width="128.43" height="35.16"/></svg>