<svg width="36" height="36" viewBox="0 0 36 36" fill="none" xmlns="http://www.w3.org/2000/svg">
<path d="M33 18C33 26.2813 26.2813 33 18 33C9.71867 33 3 26.2813 3 18C3 9.71867 9.71867 3 18 3C26.2813 3 33 9.71867 33 18Z" fill="white"/>
<path d="M12.6845 14.4628C13.7518 14.4628 14.6171 13.5975 14.6171 12.5302C14.6171 11.4629 13.7518 10.5977 12.6845 10.5977C11.6172 10.5977 10.752 11.4629 10.752 12.5302C10.752 13.5975 11.6172 14.4628 12.6845 14.4628Z" fill="#593EDC"/>
<path d="M14.1496 15.7471H11.2206C11.1414 15.7471 11.0771 15.8113 11.0771 15.8905V25.2589C11.0771 25.3381 11.1414 25.4023 11.2206 25.4023H14.1496C14.2288 25.4023 14.2931 25.3381 14.2931 25.2589V15.8905C14.2931 15.8113 14.2288 15.7471 14.1496 15.7471Z" fill="#593EDC"/>
<path d="M25.2395 19.287V24.7601C25.2395 25.1149 24.9526 25.4017 24.5978 25.4017H22.6653C22.3105 25.4017 22.0236 25.1149 22.0236 24.7601V20.2533C22.0236 19.3625 21.2989 18.6453 20.4157 18.6453C19.5324 18.6453 18.8077 19.37 18.8077 20.2533V24.7601C18.8077 25.1149 18.5208 25.4017 18.166 25.4017H16.2335C15.8787 25.4017 15.5918 25.1149 15.5918 24.7601V16.3882C15.5918 16.0333 15.8787 15.7465 16.2335 15.7465H18.166C18.5208 15.7465 18.8077 16.0333 18.8077 16.3882V16.8034C19.4494 15.973 20.5138 15.4219 21.7065 15.4219C23.4806 15.4219 25.2471 16.7128 25.2471 19.287H25.2395Z" fill="#593EDC"/>
</svg>
