<svg width="36" height="36" viewBox="0 0 36 36" fill="none" xmlns="http://www.w3.org/2000/svg">
<path d="M33 18C33 26.2813 26.2813 33 18 33C9.71867 33 3 26.2813 3 18C3 9.71867 9.71867 3 18 3C26.2813 3 33 9.71867 33 18Z" fill="white"/>
<path d="M26.8602 12.5918C26.5115 12.2271 26.0199 12 25.4751 12H10.9166C10.3718 12 9.88062 12.2271 9.53158 12.5918C9.20204 12.936 9 13.4028 9 13.9166V23.083C9 23.5969 9.20204 24.0633 9.53193 24.4078C9.88062 24.7729 10.3718 25 10.9166 25H25.4751C26.0199 25 26.5111 24.7729 26.8602 24.4082C27.1897 24.064 27.3917 23.5972 27.3917 23.0834V13.917C27.3917 13.4031 27.19 12.9364 26.8602 12.5918Z" fill="#CDC5F5"/>
<path d="M26.8595 12.5918L20.1134 18.4998L18.9771 19.4951C18.5294 19.8869 17.8609 19.8869 17.4137 19.4951L16.2774 18.4998L9.53125 12.5918C9.88029 12.2271 10.3715 12 10.9163 12H25.4748C26.0196 12 26.5111 12.2271 26.8598 12.5918H26.8595Z" fill="#EBF0FF"/>
<path d="M26.8595 24.4074C26.5104 24.7721 26.0193 24.9992 25.4744 24.9992H10.9159C10.3711 24.9992 9.87995 24.7721 9.53125 24.407L16.277 18.499L17.4133 19.4943C17.8609 19.8861 18.5294 19.8861 18.9767 19.4943L20.113 18.499L26.8591 24.4074H26.8595Z" fill="#9B8BEA"/>
</svg>
