<svg width="72" height="72" viewBox="0 0 72 72" fill="none" xmlns="http://www.w3.org/2000/svg">
<path d="M36.1469 48.8734C49.0676 48.8734 59.5418 38.3991 59.5418 25.4784C59.5418 12.5578 49.0676 2.0835 36.1469 2.0835C23.2262 2.0835 12.752 12.5578 12.752 25.4784C12.752 38.3991 23.2262 48.8734 36.1469 48.8734Z" fill="url(#paint0_linear_1699_20155)" stroke="white" stroke-miterlimit="10"/>
<path d="M7.92188 62.5342V69.7497" stroke="white" stroke-miterlimit="10" stroke-linecap="round" stroke-linejoin="round"/>
<path d="M7.92188 32.7734V59.3253" stroke="white" stroke-miterlimit="10" stroke-linecap="round" stroke-linejoin="round"/>
<path d="M10.9686 59.3672H4.91406V62.395H10.9686V59.3672Z" fill="white" stroke="white" stroke-miterlimit="10" stroke-linecap="round" stroke-linejoin="round"/>
<path d="M64.373 50.7261V69.7504" stroke="white" stroke-miterlimit="10" stroke-linecap="round" stroke-linejoin="round"/>
<path d="M64.373 32.7734V47.7295" stroke="white" stroke-miterlimit="10" stroke-linecap="round" stroke-linejoin="round"/>
<path d="M67.3592 47.7476H61.3047V50.7754H67.3592V47.7476Z" fill="white" stroke="white" stroke-miterlimit="10" stroke-linecap="round" stroke-linejoin="round"/>
<path d="M17.3379 56.5171V69.7505" stroke="white" stroke-miterlimit="10" stroke-linecap="round" stroke-linejoin="round"/>
<path d="M17.3379 42.7051V53.4218" stroke="white" stroke-miterlimit="10" stroke-linecap="round" stroke-linejoin="round"/>
<path d="M20.367 53.4531H14.3125V56.4809H20.367V53.4531Z" fill="white" stroke="white" stroke-miterlimit="10" stroke-linecap="round" stroke-linejoin="round"/>
<path d="M26.7988 60.0713V69.7508" stroke="white" stroke-miterlimit="10" stroke-linecap="round" stroke-linejoin="round"/>
<path d="M26.7988 50.0864V57.0329" stroke="white" stroke-miterlimit="10" stroke-linecap="round" stroke-linejoin="round"/>
<path d="M29.7635 57.064H23.709V60.0918H29.7635V57.064Z" fill="white" stroke="white" stroke-miterlimit="10" stroke-linecap="round" stroke-linejoin="round"/>
<path d="M45.4844 58.4751V69.7513" stroke="white" stroke-miterlimit="10" stroke-linecap="round" stroke-linejoin="round"/>
<path d="M45.4844 50.0864V55.4233" stroke="white" stroke-miterlimit="10" stroke-linecap="round" stroke-linejoin="round"/>
<path d="M48.5623 55.4448H42.5078V58.4726H48.5623V55.4448Z" fill="white" stroke="white" stroke-miterlimit="10" stroke-linecap="round" stroke-linejoin="round"/>
<path d="M54.9258 66.4316V69.751" stroke="white" stroke-miterlimit="10" stroke-linecap="round" stroke-linejoin="round"/>
<path d="M54.9258 42.7051V63.3681" stroke="white" stroke-miterlimit="10" stroke-linecap="round" stroke-linejoin="round"/>
<path d="M57.9608 63.3696H51.9062V66.3974H57.9608V63.3696Z" fill="white" stroke="white" stroke-miterlimit="10" stroke-linecap="round" stroke-linejoin="round"/>
<path d="M36.0957 66.415V69.7506" stroke="white" stroke-miterlimit="10" stroke-linecap="round" stroke-linejoin="round"/>
<path d="M36.0957 53.2764V63.3841" stroke="white" stroke-miterlimit="10" stroke-linecap="round" stroke-linejoin="round"/>
<path d="M39.1639 63.3691H33.1094V66.3969H39.1639V63.3691Z" fill="white" stroke="white" stroke-miterlimit="10" stroke-linecap="round" stroke-linejoin="round"/>
<mask id="path-23-outside-1_1699_20155" maskUnits="userSpaceOnUse" x="28.5527" y="13.5405" width="15" height="24" fill="black">
<rect fill="white" x="28.5527" y="13.5405" width="15" height="24"/>
<path d="M35.4325 17.3163V14.0001H37.0659V17.3163H35.4325ZM37.0659 34.0456V37.238H35.4325V34.0456H37.0659ZM36.7194 34.7633C34.6406 34.7633 32.9825 34.2518 31.7452 33.2289C30.5243 32.206 29.8066 30.7459 29.5921 28.8486H31.5719C31.7534 30.218 32.2731 31.2491 33.131 31.942C33.9889 32.635 35.1768 32.9814 36.6946 32.9814C37.9815 32.9814 38.9467 32.7422 39.5901 32.2638C40.25 31.7688 40.58 31.0511 40.58 30.1107C40.58 29.3023 40.3573 28.6589 39.9118 28.1804C39.4664 27.702 38.7734 27.306 37.833 26.9926L34.8386 25.9532C33.3207 25.4252 32.1989 24.79 31.4729 24.0476C30.747 23.2887 30.384 22.3318 30.384 21.1769C30.384 20.22 30.6233 19.3951 31.1017 18.7022C31.5802 17.9927 32.2566 17.44 33.131 17.0441C34.0054 16.6481 35.0201 16.4501 36.1749 16.4501C37.9568 16.4501 39.3839 16.9203 40.4563 17.8607C41.5286 18.7847 42.1473 20.1045 42.3123 21.8203H40.3325C40.118 20.583 39.6726 19.6756 38.9962 19.0981C38.3362 18.5207 37.3793 18.232 36.1255 18.232C34.9376 18.232 34.0137 18.4712 33.3537 18.9496C32.6938 19.4281 32.3638 20.1045 32.3638 20.9789C32.3638 21.7213 32.5948 22.3153 33.0568 22.7607C33.5187 23.2062 34.2364 23.5939 35.2098 23.9239L38.4022 25.0375C39.7881 25.516 40.8275 26.1676 41.5204 26.9926C42.2133 27.801 42.5598 28.8321 42.5598 30.086C42.5598 31.5708 42.0483 32.7257 41.0254 33.5506C40.0191 34.359 38.5837 34.7633 36.7194 34.7633Z"/>
</mask>
<path d="M35.4325 17.3163V14.0001H37.0659V17.3163H35.4325ZM37.0659 34.0456V37.238H35.4325V34.0456H37.0659ZM36.7194 34.7633C34.6406 34.7633 32.9825 34.2518 31.7452 33.2289C30.5243 32.206 29.8066 30.7459 29.5921 28.8486H31.5719C31.7534 30.218 32.2731 31.2491 33.131 31.942C33.9889 32.635 35.1768 32.9814 36.6946 32.9814C37.9815 32.9814 38.9467 32.7422 39.5901 32.2638C40.25 31.7688 40.58 31.0511 40.58 30.1107C40.58 29.3023 40.3573 28.6589 39.9118 28.1804C39.4664 27.702 38.7734 27.306 37.833 26.9926L34.8386 25.9532C33.3207 25.4252 32.1989 24.79 31.4729 24.0476C30.747 23.2887 30.384 22.3318 30.384 21.1769C30.384 20.22 30.6233 19.3951 31.1017 18.7022C31.5802 17.9927 32.2566 17.44 33.131 17.0441C34.0054 16.6481 35.0201 16.4501 36.1749 16.4501C37.9568 16.4501 39.3839 16.9203 40.4563 17.8607C41.5286 18.7847 42.1473 20.1045 42.3123 21.8203H40.3325C40.118 20.583 39.6726 19.6756 38.9962 19.0981C38.3362 18.5207 37.3793 18.232 36.1255 18.232C34.9376 18.232 34.0137 18.4712 33.3537 18.9496C32.6938 19.4281 32.3638 20.1045 32.3638 20.9789C32.3638 21.7213 32.5948 22.3153 33.0568 22.7607C33.5187 23.2062 34.2364 23.5939 35.2098 23.9239L38.4022 25.0375C39.7881 25.516 40.8275 26.1676 41.5204 26.9926C42.2133 27.801 42.5598 28.8321 42.5598 30.086C42.5598 31.5708 42.0483 32.7257 41.0254 33.5506C40.0191 34.359 38.5837 34.7633 36.7194 34.7633Z" fill="white"/>
<path d="M35.4325 17.3163H35.3249V17.4239H35.4325V17.3163ZM35.4325 14.0001V13.8925H35.3249V14.0001H35.4325ZM37.0659 14.0001H37.1735V13.8925H37.0659V14.0001ZM37.0659 17.3163V17.4239H37.1735V17.3163H37.0659ZM37.0659 34.0456H37.1735V33.938H37.0659V34.0456ZM37.0659 37.238V37.3456H37.1735V37.238H37.0659ZM35.4325 37.238H35.3249V37.3456H35.4325V37.238ZM35.4325 34.0456V33.938H35.3249V34.0456H35.4325ZM31.7452 33.2289L31.6761 33.3114L31.6766 33.3118L31.7452 33.2289ZM29.5921 28.8486V28.741H29.4717L29.4852 28.8607L29.5921 28.8486ZM31.5719 28.8486L31.6786 28.8345L31.6662 28.741H31.5719V28.8486ZM33.131 31.942L33.0634 32.0258L33.0634 32.0258L33.131 31.942ZM39.5901 32.2638L39.6543 32.3501L39.6547 32.3498L39.5901 32.2638ZM39.9118 28.1804L39.8331 28.2538L39.8331 28.2538L39.9118 28.1804ZM37.833 26.9926L37.7977 27.0942L37.799 27.0946L37.833 26.9926ZM34.8386 25.9532L34.8032 26.0548L34.8033 26.0548L34.8386 25.9532ZM31.4729 24.0476L31.3952 24.122L31.396 24.1228L31.4729 24.0476ZM31.1017 18.7022L31.1903 18.7633L31.1909 18.7623L31.1017 18.7022ZM40.4563 17.8607L40.3853 17.9416L40.386 17.9423L40.4563 17.8607ZM42.3123 21.8203V21.9279H42.4308L42.4194 21.81L42.3123 21.8203ZM40.3325 21.8203L40.2265 21.8387L40.242 21.9279H40.3325V21.8203ZM38.9962 19.0981L38.9253 19.1791L38.9263 19.18L38.9962 19.0981ZM33.3537 18.9496L33.2906 18.8625L33.2906 18.8625L33.3537 18.9496ZM33.0568 22.7607L32.9821 22.8382L32.9821 22.8382L33.0568 22.7607ZM35.2098 23.9239L35.2452 23.8223L35.2443 23.822L35.2098 23.9239ZM38.4022 25.0375L38.3668 25.1391L38.3671 25.1392L38.4022 25.0375ZM41.5204 26.9926L41.438 27.0618L41.4387 27.0626L41.5204 26.9926ZM41.0254 33.5506L41.0928 33.6345L41.093 33.6344L41.0254 33.5506ZM35.4325 17.3163H35.5401V14.0001H35.4325H35.3249V17.3163H35.4325ZM35.4325 14.0001V14.1077H37.0659V14.0001V13.8925H35.4325V14.0001ZM37.0659 14.0001H36.9583V17.3163H37.0659H37.1735V14.0001H37.0659ZM37.0659 17.3163V17.2087H35.4325V17.3163V17.4239H37.0659V17.3163ZM37.0659 34.0456H36.9583V37.238H37.0659H37.1735V34.0456H37.0659ZM37.0659 37.238V37.1304H35.4325V37.238V37.3456H37.0659V37.238ZM35.4325 37.238H35.5401V34.0456H35.4325H35.3249V37.238H35.4325ZM35.4325 34.0456V34.1532H37.0659V34.0456V33.938H35.4325V34.0456ZM36.7194 34.7633V34.6557C34.6581 34.6557 33.0267 34.1487 31.8137 33.146L31.7452 33.2289L31.6766 33.3118C32.9383 34.3549 34.6231 34.8709 36.7194 34.8709V34.7633ZM31.7452 33.2289L31.8143 33.1464C30.6186 32.1447 29.9111 30.7122 29.699 28.8365L29.5921 28.8486L29.4852 28.8607C29.7021 30.7797 30.4299 32.2673 31.6761 33.3114L31.7452 33.2289ZM29.5921 28.8486V28.9562H31.5719V28.8486V28.741H29.5921V28.8486ZM31.5719 28.8486L31.4653 28.8628C31.6494 30.2522 32.179 31.3114 33.0634 32.0258L33.131 31.942L33.1986 31.8583C32.3672 31.1868 31.8574 30.1837 31.6786 28.8345L31.5719 28.8486ZM33.131 31.942L33.0634 32.0258C33.9465 32.7391 35.1614 33.089 36.6946 33.089V32.9814V32.8738C35.1922 32.8738 34.0313 32.5309 33.1986 31.8583L33.131 31.942ZM36.6946 32.9814V33.089C37.9917 33.089 38.9841 32.8485 39.6543 32.3501L39.5901 32.2638L39.5259 32.1774C38.9092 32.636 37.9713 32.8738 36.6946 32.8738V32.9814ZM39.5901 32.2638L39.6547 32.3498C40.3457 31.8315 40.6876 31.0796 40.6876 30.1107H40.58H40.4724C40.4724 31.0227 40.1543 31.7061 39.5255 32.1777L39.5901 32.2638ZM40.58 30.1107H40.6876C40.6876 29.2819 40.4587 28.6099 39.9906 28.1071L39.9118 28.1804L39.8331 28.2538C40.2558 28.7078 40.4724 29.3228 40.4724 30.1107H40.58ZM39.9118 28.1804L39.9906 28.1071C39.5281 27.6104 38.8164 27.2069 37.8671 26.8905L37.833 26.9926L37.799 27.0946C38.7304 27.4051 39.4046 27.7936 39.8331 28.2538L39.9118 28.1804ZM37.833 26.9926L37.8683 26.8909L34.8739 25.8515L34.8386 25.9532L34.8033 26.0548L37.7977 27.0942L37.833 26.9926ZM34.8386 25.9532L34.8739 25.8515C33.364 25.3264 32.2595 24.6982 31.5499 23.9724L31.4729 24.0476L31.396 24.1228C32.1382 24.8819 33.2775 25.5241 34.8032 26.0548L34.8386 25.9532ZM31.4729 24.0476L31.5507 23.9732C30.8459 23.2364 30.4916 22.3071 30.4916 21.1769H30.384H30.2764C30.2764 22.3565 30.6481 23.341 31.3952 24.122L31.4729 24.0476ZM30.384 21.1769H30.4916C30.4916 20.2388 30.7259 19.4359 31.1903 18.7633L31.1017 18.7022L31.0132 18.641C30.5207 19.3543 30.2764 20.2012 30.2764 21.1769H30.384ZM31.1017 18.7022L31.1909 18.7623C31.6569 18.0714 32.3169 17.5309 33.1754 17.1421L33.131 17.0441L33.0866 16.9461C32.1963 17.3492 31.5034 17.9141 31.0125 18.642L31.1017 18.7022ZM33.131 17.0441L33.1754 17.1421C34.0333 16.7536 35.0323 16.5577 36.1749 16.5577V16.4501V16.3425C35.0078 16.3425 33.9775 16.5426 33.0866 16.9461L33.131 17.0441ZM36.1749 16.4501V16.5577C37.9374 16.5577 39.3371 17.0224 40.3853 17.9416L40.4563 17.8607L40.5272 17.7798C39.4306 16.8183 37.9761 16.3425 36.1749 16.3425V16.4501ZM40.4563 17.8607L40.386 17.9423C41.433 18.8443 42.0423 20.1361 42.2052 21.8306L42.3123 21.8203L42.4194 21.81C42.2524 20.073 41.6243 18.725 40.5265 17.7792L40.4563 17.8607ZM42.3123 21.8203V21.7127H40.3325V21.8203V21.9279H42.3123V21.8203ZM40.3325 21.8203L40.4385 21.802C40.2215 20.5499 39.7681 19.6156 39.066 19.0163L38.9962 19.0981L38.9263 19.18C39.5771 19.7355 40.0146 20.616 40.2265 21.8387L40.3325 21.8203ZM38.9962 19.0981L39.067 19.0171C38.3805 18.4164 37.3943 18.1244 36.1255 18.1244V18.232V18.3396C37.3643 18.3396 38.292 18.6249 38.9253 19.1791L38.9962 19.0981ZM36.1255 18.232V18.1244C34.9248 18.1244 33.9756 18.3659 33.2906 18.8625L33.3537 18.9496L33.4169 19.0367C34.0518 18.5765 34.9503 18.3396 36.1255 18.3396V18.232ZM33.3537 18.9496L33.2906 18.8625C32.6004 19.3629 32.2562 20.073 32.2562 20.9789H32.3638H32.4714C32.4714 20.1361 32.7872 19.4933 33.4169 19.0367L33.3537 18.9496ZM32.3638 20.9789H32.2562C32.2562 21.7456 32.4958 22.3692 32.9821 22.8382L33.0568 22.7607L33.1315 22.6833C32.6939 22.2613 32.4714 21.6971 32.4714 20.9789H32.3638ZM33.0568 22.7607L32.9821 22.8382C33.4603 23.2993 34.1949 23.6934 35.1753 24.0258L35.2098 23.9239L35.2443 23.822C34.2779 23.4944 33.5772 23.1131 33.1315 22.6833L33.0568 22.7607ZM35.2098 23.9239L35.1744 24.0255L38.3668 25.1391L38.4022 25.0375L38.4377 24.9359L35.2452 23.8223L35.2098 23.9239ZM38.4022 25.0375L38.3671 25.1392C39.741 25.6135 40.7613 26.2562 41.438 27.0618L41.5204 26.9926L41.6028 26.9234C40.8936 26.0791 39.8352 25.4184 38.4373 24.9358L38.4022 25.0375ZM41.5204 26.9926L41.4387 27.0626C42.112 27.8481 42.4522 28.853 42.4522 30.086H42.5598H42.6674C42.6674 28.8112 42.3146 27.7538 41.6021 26.9225L41.5204 26.9926ZM42.5598 30.086H42.4522C42.4522 31.5431 41.952 32.6652 40.9579 33.4669L41.0254 33.5506L41.093 33.6344C42.1447 32.7862 42.6674 31.5986 42.6674 30.086H42.5598ZM41.0254 33.5506L40.9581 33.4667C39.9777 34.2543 38.5698 34.6557 36.7194 34.6557V34.7633V34.8709C38.5976 34.8709 40.0604 34.4638 41.0928 33.6345L41.0254 33.5506Z" fill="white" mask="url(#path-23-outside-1_1699_20155)"/>
<defs>
<linearGradient id="paint0_linear_1699_20155" x1="36.1469" y1="1.28036" x2="36.1469" y2="48.8734" gradientUnits="userSpaceOnUse">
<stop stop-color="white" stop-opacity="0.3"/>
<stop offset="1" stop-color="white" stop-opacity="0.6"/>
</linearGradient>
</defs>
</svg>
