<svg width="73" height="73" viewBox="0 0 73 73" fill="none" xmlns="http://www.w3.org/2000/svg">
<mask id="path-1-inside-1_1699_19998" fill="white">
<path d="M46.8955 2.44922C48.7783 2.44922 50.3046 3.97565 50.3047 5.8584V8.45508C62.172 11.4706 70.951 22.2248 70.9512 35.0303C70.9512 50.1737 58.6747 62.4502 43.5312 62.4502C28.3878 62.4502 16.1113 50.1737 16.1113 35.0303C16.1115 22.2254 24.8895 11.4712 36.7559 8.45508V5.8584C36.7559 3.97571 38.2824 2.44932 40.165 2.44922H46.8955Z"/>
</mask>
<path d="M46.8955 2.44922C48.7783 2.44922 50.3046 3.97565 50.3047 5.8584V8.45508C62.172 11.4706 70.951 22.2248 70.9512 35.0303C70.9512 50.1737 58.6747 62.4502 43.5312 62.4502C28.3878 62.4502 16.1113 50.1737 16.1113 35.0303C16.1115 22.2254 24.8895 11.4712 36.7559 8.45508V5.8584C36.7559 3.97571 38.2824 2.44932 40.165 2.44922H46.8955Z" fill="url(#paint0_linear_1699_19998)"/>
<path d="M46.8955 2.44922V1.44922V2.44922ZM50.3047 5.8584H51.3047V5.85836L50.3047 5.8584ZM50.3047 8.45508H49.3047V9.23276L50.0584 9.42428L50.3047 8.45508ZM70.9512 35.0303H71.9512V35.0303L70.9512 35.0303ZM43.5312 62.4502V63.4502V62.4502ZM16.1113 35.0303L15.1113 35.0303V35.0303H16.1113ZM36.7559 8.45508L37.0022 9.42426L37.7559 9.2327V8.45508H36.7559ZM36.7559 5.8584L35.7559 5.85836V5.8584H36.7559ZM40.165 2.44922V1.44922H40.165L40.165 2.44922ZM46.8955 2.44922V3.44922C48.2259 3.44922 49.3046 4.52791 49.3047 5.85844L50.3047 5.8584L51.3047 5.85836C51.3046 3.4234 49.3306 1.44922 46.8955 1.44922V2.44922ZM50.3047 5.8584H49.3047V8.45508H50.3047H51.3047V5.8584H50.3047ZM50.3047 8.45508L50.0584 9.42428C61.4932 12.3299 69.951 22.6932 69.9512 35.0303L70.9512 35.0303L71.9512 35.0303C71.951 21.7563 62.8509 10.6113 50.551 7.48588L50.3047 8.45508ZM70.9512 35.0303H69.9512C69.9512 49.6214 58.1224 61.4502 43.5312 61.4502V62.4502V63.4502C59.227 63.4502 71.9512 50.726 71.9512 35.0303H70.9512ZM43.5312 62.4502V61.4502C28.9401 61.4502 17.1113 49.6214 17.1113 35.0303H16.1113H15.1113C15.1113 50.726 27.8355 63.4502 43.5312 63.4502V62.4502ZM16.1113 35.0303L17.1113 35.0303C17.1115 22.6939 25.5683 12.3305 37.0022 9.42426L36.7559 8.45508L36.5095 7.4859C24.2106 10.612 15.1116 21.757 15.1113 35.0303L16.1113 35.0303ZM36.7559 8.45508H37.7559V5.8584H36.7559H35.7559V8.45508H36.7559ZM36.7559 5.8584L37.7559 5.85844C37.7559 4.52802 38.8346 3.44929 40.1651 3.44922L40.165 2.44922L40.165 1.44922C37.7301 1.44935 35.756 3.42341 35.7559 5.85836L36.7559 5.8584ZM40.165 2.44922V3.44922H46.8955V2.44922V1.44922H40.165V2.44922Z" fill="white" mask="url(#path-1-inside-1_1699_19998)"/>
<path d="M37.9348 34.809L64.1533 37.2601" stroke="white" stroke-linecap="round"/>
<circle cx="43.5321" cy="35.0302" r="4.83876" fill="#06DF72"/>
<path d="M27.7266 8.47021L33.3262 5.99912" stroke="white" stroke-width="1.70456" stroke-linecap="round"/>
<path d="M59.4551 8.47021L53.8555 5.99912" stroke="white" stroke-width="1.70456" stroke-linecap="round"/>
<g filter="url(#filter1_d_1699_19998)">
<path d="M36.0099 48.8101C30.567 48.8101 26.1523 50.7128 26.1523 53.0626V62.6295C26.1523 64.9765 30.5642 66.8821 36.0099 66.8821C41.4555 66.8821 45.8674 64.9793 45.8674 62.6295V53.0626C45.8674 50.7156 41.4555 48.8101 36.0099 48.8101Z" fill="#9BF2C7"/>
<path d="M36.0099 48.8101C30.567 48.8101 26.1523 50.7128 26.1523 53.0626V62.6295C26.1523 64.9765 30.5642 66.8821 36.0099 66.8821C41.4555 66.8821 45.8674 64.9793 45.8674 62.6295V53.0626C45.8674 50.7156 41.4555 48.8101 36.0099 48.8101Z" stroke="white" stroke-miterlimit="10"/>
</g>
<path d="M45.8674 53.4146C45.8674 55.7616 41.4555 57.6671 36.0099 57.6671C30.5642 57.6671 26.1523 55.7644 26.1523 53.4146" fill="#9BF2C7"/>
<path d="M45.8674 53.4146C45.8674 55.7616 41.4555 57.6671 36.0099 57.6671C30.5642 57.6671 26.1523 55.7644 26.1523 53.4146" stroke="white" stroke-miterlimit="10"/>
<path d="M45.8674 58.0225C45.8674 60.3695 41.4555 62.275 36.0099 62.275C30.5642 62.275 26.1523 60.3723 26.1523 58.0225" fill="#9BF2C7"/>
<path d="M45.8674 58.0225C45.8674 60.3695 41.4555 62.275 36.0099 62.275C30.5642 62.275 26.1523 60.3723 26.1523 58.0225" stroke="white" stroke-miterlimit="10"/>
<path d="M45.8674 62.6284C45.8674 64.9754 41.4555 66.881 36.0099 66.881C30.5642 66.881 26.1523 64.9782 26.1523 62.6284" fill="#9BF2C7"/>
<path d="M45.8674 62.6284C45.8674 64.9754 41.4555 66.881 36.0099 66.881C30.5642 66.881 26.1523 64.9782 26.1523 62.6284" stroke="white" stroke-miterlimit="10"/>
<g filter="url(#filter2_d_1699_19998)">
<path d="M13.9728 39.9497C8.52989 39.9497 4.11523 41.8525 4.11523 44.2023V62.6292C4.11523 64.9762 8.52709 66.8817 13.9728 66.8817C19.4184 66.8817 23.8303 64.979 23.8303 62.6292V44.2023C23.8303 41.8553 19.4184 39.9497 13.9728 39.9497Z" fill="#9BF2C7"/>
<path d="M13.9728 39.9497C8.52989 39.9497 4.11523 41.8525 4.11523 44.2023V62.6292C4.11523 64.9762 8.52709 66.8817 13.9728 66.8817C19.4184 66.8817 23.8303 64.979 23.8303 62.6292V44.2023C23.8303 41.8553 19.4184 39.9497 13.9728 39.9497Z" stroke="white" stroke-miterlimit="10"/>
</g>
<path d="M13.9728 48.4548C19.4169 48.4548 23.8303 46.5509 23.8303 44.2023C23.8303 41.8536 19.4169 39.9497 13.9728 39.9497C8.5286 39.9497 4.11523 41.8536 4.11523 44.2023C4.11523 46.5509 8.5286 48.4548 13.9728 48.4548Z" fill="#9BF2C7" stroke="white" stroke-miterlimit="10"/>
<path d="M23.8303 48.8101C23.8303 51.1571 19.4184 53.0626 13.9728 53.0626C8.52709 53.0626 4.11523 51.1599 4.11523 48.8101" fill="#9BF2C7"/>
<path d="M23.8303 48.8101C23.8303 51.1571 19.4184 53.0626 13.9728 53.0626C8.52709 53.0626 4.11523 51.1599 4.11523 48.8101" stroke="white" stroke-miterlimit="10"/>
<path d="M23.8303 53.4146C23.8303 55.7616 19.4184 57.6671 13.9728 57.6671C8.52709 57.6671 4.11523 55.7644 4.11523 53.4146" fill="#9BF2C7"/>
<path d="M23.8303 53.4146C23.8303 55.7616 19.4184 57.6671 13.9728 57.6671C8.52709 57.6671 4.11523 55.7644 4.11523 53.4146" stroke="white" stroke-miterlimit="10"/>
<path d="M23.8303 58.0225C23.8303 60.3695 19.4184 62.275 13.9728 62.275C8.52709 62.275 4.11523 60.3723 4.11523 58.0225" fill="#9BF2C7"/>
<path d="M23.8303 58.0225C23.8303 60.3695 19.4184 62.275 13.9728 62.275C8.52709 62.275 4.11523 60.3723 4.11523 58.0225" stroke="white" stroke-miterlimit="10"/>
<path d="M23.8303 62.6299C23.8303 64.9769 19.4184 66.8825 13.9728 66.8825C8.52709 66.8825 4.11523 64.9797 4.11523 62.6299" fill="#9BF2C7"/>
<path d="M23.8303 62.6299C23.8303 64.9769 19.4184 66.8825 13.9728 66.8825C8.52709 66.8825 4.11523 64.9797 4.11523 62.6299" stroke="white" stroke-miterlimit="10"/>
<g filter="url(#filter3_d_1699_19998)">
<path d="M42.3145 13.3589C49.8653 13.7333 63.2679 19.35 65.1556 36.2001" stroke="#06DF72" stroke-width="4.09096" stroke-linecap="round" stroke-linejoin="round"/>
</g>
<defs>
<filter id="filter1_d_1699_19998" x="23.6069" y="46.2646" width="27.5331" height="25.8905" filterUnits="userSpaceOnUse" color-interpolation-filters="sRGB">
<feFlood flood-opacity="0" result="BackgroundImageFix"/>
<feColorMatrix in="SourceAlpha" type="matrix" values="0 0 0 0 0 0 0 0 0 0 0 0 0 0 0 0 0 0 127 0" result="hardAlpha"/>
<feOffset dx="1.36365" dy="1.36365"/>
<feGaussianBlur stdDeviation="1.70456"/>
<feComposite in2="hardAlpha" operator="out"/>
<feColorMatrix type="matrix" values="0 0 0 0 1 0 0 0 0 1 0 0 0 0 1 0 0 0 1 0"/>
<feBlend mode="normal" in2="BackgroundImageFix" result="effect1_dropShadow_1699_19998"/>
<feBlend mode="normal" in="SourceGraphic" in2="effect1_dropShadow_1699_19998" result="shape"/>
</filter>
<filter id="filter2_d_1699_19998" x="0.887931" y="36.7224" width="28.8968" height="36.114" filterUnits="userSpaceOnUse" color-interpolation-filters="sRGB">
<feFlood flood-opacity="0" result="BackgroundImageFix"/>
<feColorMatrix in="SourceAlpha" type="matrix" values="0 0 0 0 0 0 0 0 0 0 0 0 0 0 0 0 0 0 127 0" result="hardAlpha"/>
<feOffset dx="1.36365" dy="1.36365"/>
<feGaussianBlur stdDeviation="2.04548"/>
<feComposite in2="hardAlpha" operator="out"/>
<feColorMatrix type="matrix" values="0 0 0 0 1 0 0 0 0 1 0 0 0 0 1 0 0 0 1 0"/>
<feBlend mode="normal" in2="BackgroundImageFix" result="effect1_dropShadow_1699_19998"/>
<feBlend mode="normal" in="SourceGraphic" in2="effect1_dropShadow_1699_19998" result="shape"/>
</filter>
<filter id="filter3_d_1699_19998" x="37.5422" y="8.58617" width="35.1136" height="35.114" filterUnits="userSpaceOnUse" color-interpolation-filters="sRGB">
<feFlood flood-opacity="0" result="BackgroundImageFix"/>
<feColorMatrix in="SourceAlpha" type="matrix" values="0 0 0 0 0 0 0 0 0 0 0 0 0 0 0 0 0 0 127 0" result="hardAlpha"/>
<feOffset dx="1.36365" dy="1.36365"/>
<feGaussianBlur stdDeviation="2.04548"/>
<feComposite in2="hardAlpha" operator="out"/>
<feColorMatrix type="matrix" values="0 0 0 0 1 0 0 0 0 1 0 0 0 0 1 0 0 0 1 0"/>
<feBlend mode="normal" in2="BackgroundImageFix" result="effect1_dropShadow_1699_19998"/>
<feBlend mode="normal" in="SourceGraphic" in2="effect1_dropShadow_1699_19998" result="shape"/>
</filter>
<linearGradient id="paint0_linear_1699_19998" x1="43.5312" y1="3.41698" x2="43.5313" y2="62.4502" gradientUnits="userSpaceOnUse">
<stop stop-color="white" stop-opacity="0.2"/>
<stop offset="1" stop-color="white" stop-opacity="0.5"/>
</linearGradient>
</defs>
</svg>
