<svg width="200" height="200" viewBox="0 0 200 200" fill="none" xmlns="http://www.w3.org/2000/svg">
<g clip-path="url(#clip0_1464_19347)">
<path d="M155.828 155.63C186.66 124.909 186.66 75.0993 155.828 44.3779C124.996 13.6565 75.0068 13.6565 44.1745 44.3779C13.3422 75.0993 13.3422 124.909 44.1745 155.63C75.0068 186.351 124.996 186.351 155.828 155.63Z" stroke="#06DF72" stroke-width="3" stroke-miterlimit="10" stroke-linecap="round"/>
<path d="M68.4821 47.6902C66.657 48.8993 64.6815 48.4296 63.3377 46.4312C61.994 44.4328 62.3249 42.4244 64.13 41.2254C65.3835 40.3961 66.6269 40.3261 67.6899 41.0955L67.008 42.1647C66.2659 41.5851 65.564 41.5551 64.7818 42.0747C63.6085 42.8541 63.4079 44.233 64.4107 45.7218C65.4035 47.2106 66.7072 47.6003 67.9005 46.8009C68.7028 46.2714 69.0237 45.482 68.7228 44.5228L69.9162 44.193C70.2972 45.6119 69.7156 46.8709 68.4821 47.6902Z" fill="#06DF72"/>
<path d="M78.8593 40.9356L79.3005 41.8949L74.7177 43.9632L74.1561 44.213L71.0273 37.3285L72.1505 36.8189L76.0314 35.0703L76.4726 36.0295L72.5917 37.7881L73.4943 39.7666L76.5328 38.3977L76.964 39.3369L73.9255 40.7058L74.8581 42.7542L78.8894 40.9356H78.8593Z" fill="#06DF72"/>
<path d="M84.7179 37.0518L83.1434 37.4715L83.9256 40.3891L82.7523 40.6989L80.7969 33.3947L81.9702 33.085L83.7852 32.6054C85.3597 32.1857 86.5731 32.7452 86.9341 34.1142C87.2148 35.1633 86.8338 36.0426 85.9313 36.5922L88.7391 39.1202L87.3753 39.4799L84.7279 37.0518H84.7179ZM82.8827 36.4823L84.5975 36.0226C85.5602 35.7628 85.9313 35.2532 85.7106 34.4439C85.49 33.6345 84.9184 33.3747 83.9557 33.6345L82.2409 34.0942L82.8827 36.4823Z" fill="#06DF72"/>
<path d="M97.1723 31.5257L94.585 31.7855L95.2369 38.2503L94.0134 38.3702L93.3616 31.9054L90.7744 32.1652L90.6641 31.1161L94.4647 30.7364L97.0519 30.4766L97.1623 31.5257H97.1723Z" fill="#06DF72"/>
<path d="M102.558 38.0488L101.324 38.0188L101.505 30.4648L102.738 30.4948L102.558 38.0488Z" fill="#06DF72"/>
<path d="M109.067 32.0628L108.746 34.231L112.045 34.7206L111.885 35.7698L108.585 35.2802L108.104 38.4976L106.891 38.3178L108.014 30.8438L109.227 31.0236L113.429 31.6531L113.268 32.6923L109.057 32.0628H109.067Z" fill="#06DF72"/>
<path d="M116.957 40.3461L115.773 40.0164L117.819 32.7422L119.002 33.0719L116.957 40.3461Z" fill="#06DF72"/>
<path d="M126.674 42.8944L126.263 43.8636L121.63 41.9052L121.059 41.6654L124.027 34.7109L125.16 35.1906L129.081 36.8492L128.67 37.8184L124.749 36.1598L123.897 38.1582L126.965 39.4571L126.564 40.4064L123.495 39.1074L122.613 41.1758L126.684 42.9044L126.674 42.8944Z" fill="#06DF72"/>
<path d="M136.934 45.8422C135.62 47.8905 133.715 48.2802 131.709 47.0012L130.065 45.9521L129.453 45.5624L133.545 39.1875L134.577 39.847L135.801 40.6263C137.807 41.9053 138.248 43.7938 136.934 45.8322V45.8422ZM135.851 45.1427C136.794 43.6739 136.583 42.355 135.239 41.5056L134.016 40.7263L131.058 45.3426L132.281 46.122C133.625 46.9813 134.908 46.6116 135.851 45.1527V45.1427Z" fill="#06DF72"/>
<path d="M65.3456 152.667L62.638 155.495L61.9761 154.875L62.6179 154.156C61.8357 154.345 61.0034 154.106 60.1911 153.336C58.6468 151.877 58.6568 149.859 60.3415 148.1C62.0062 146.362 64.072 146.262 65.6464 147.761C66.7896 148.84 67.1005 149.909 66.6793 151.208L65.4859 150.828C65.847 150.019 65.6163 149.21 64.9244 148.56C63.8915 147.581 62.5076 147.691 61.2641 149C60.0106 150.309 59.8903 151.618 61.0134 152.687C61.8457 153.476 62.8786 153.666 63.6909 152.827L63.8413 152.667L62.1566 151.068L62.8586 150.339L65.3255 152.687L65.3456 152.667Z" fill="#06DF72"/>
<path d="M73.5286 159.514C72.4556 161.212 70.9915 161.472 69.2867 160.403C67.582 159.334 67.2009 157.895 68.2839 156.206L70.791 152.27L71.8439 152.929L69.4171 156.746C68.645 157.955 68.7853 158.834 69.8684 159.514C70.9514 160.193 71.8038 159.943 72.5659 158.734L74.9927 154.917L76.0457 155.577L73.5387 159.514H73.5286Z" fill="#06DF72"/>
<path d="M81.5729 164.07L78.5945 162.921L77.2006 164.51L76.0273 164.05L81.4425 158.035L82.8164 158.565L82.7361 166.638L81.5227 166.169L81.5829 164.07H81.5729ZM81.5929 163.011L81.6631 160.433L81.7333 159.294H81.7032L81.0213 160.153L79.2965 162.112L81.603 163.001L81.5929 163.011Z" fill="#06DF72"/>
<path d="M90.5469 165.357L88.9424 165.067L88.3909 168.044L87.1875 167.825L88.5613 160.391L89.7647 160.61L91.6099 160.95C93.2144 161.24 94.0668 162.259 93.806 163.658C93.6055 164.727 92.8834 165.357 91.8405 165.467L93.2946 168.944L91.9007 168.684L90.5469 165.357ZM89.1229 164.058L90.8678 164.377C91.8506 164.557 92.4021 164.248 92.5525 163.428C92.7029 162.609 92.3018 162.119 91.3191 161.939L89.5742 161.62L89.1229 164.058Z" fill="#06DF72"/>
<path d="M102.33 167.276L99.1313 167.326L98.4393 169.315L97.1758 169.335L99.9134 161.731L101.388 161.711L104.366 169.225L103.072 169.245L102.33 167.276ZM101.949 166.287L101.037 163.869L100.676 162.79H100.645L100.345 163.859L99.4923 166.327L101.959 166.287H101.949Z" fill="#06DF72"/>
<path d="M115.056 167.556L113.622 167.846L109.811 163.739L108.818 162.51H108.808L109.109 163.759L110.072 168.546L108.969 168.765L107.484 161.351L108.908 161.072L112.709 165.168L113.722 166.407H113.732L113.431 165.158L112.468 160.372L113.581 160.152L115.066 167.566L115.056 167.556Z" fill="#06DF72"/>
<path d="M123.077 157.753L120.67 158.732L123.137 164.757L121.994 165.217L119.527 159.192L117.12 160.171L116.719 159.192L120.269 157.753L122.675 156.773L123.077 157.753Z" fill="#06DF72"/>
<path d="M133.898 157.675L134.47 158.564L130.218 161.252L129.696 161.582L125.625 155.207L126.668 154.548L130.268 152.27L130.84 153.159L127.24 155.437L128.413 157.276L131.221 155.497L131.772 156.366L128.954 158.145L130.168 160.043L133.898 157.675Z" fill="#06DF72"/>
<path d="M141.739 150.95L142.461 151.719L138.76 155.126L138.299 155.546L133.145 149.99L134.047 149.161L137.176 146.273L137.898 147.053L134.769 149.941L136.253 151.539L138.7 149.281L139.402 150.04L136.955 152.299L138.489 153.947L141.739 150.95Z" fill="#06DF72"/>
<path d="M147.053 119.633C139.542 138.857 120.779 152.487 98.8279 152.487C76.8764 152.487 58.2743 138.977 50.7031 119.883" stroke="#06DF72" stroke-miterlimit="10" stroke-linecap="round"/>
<path d="M49.1992 83.0998C55.4969 61.7169 75.3424 46.1094 98.8382 46.1094C122.334 46.1094 142.28 61.8068 148.527 83.2696" stroke="#06DF72" stroke-miterlimit="10" stroke-linecap="round"/>
<path d="M70.2773 83.2129C74.429 67.5354 84.9885 53.3468 97.8846 46.4023" stroke="#06DF72" stroke-miterlimit="10" stroke-linecap="round"/>
<path d="M95.5694 152.347C84.2176 145.412 75.453 133.761 71.3516 119.723" stroke="#06DF72" stroke-miterlimit="10" stroke-linecap="round"/>
<path d="M127.698 83.3206C123.547 67.6432 113.027 53.3546 100.121 46.4102" stroke="#06DF72" stroke-miterlimit="10" stroke-linecap="round"/>
<path d="M102.438 152.347C113.789 145.412 122.554 133.761 126.655 119.723" stroke="#06DF72" stroke-miterlimit="10" stroke-linecap="round"/>
<path d="M98.8359 83.112V46.1016" stroke="#06DF72" stroke-miterlimit="10" stroke-linecap="round"/>
<path d="M98.625 152.299L99.0362 119.805" stroke="#06DF72" stroke-miterlimit="10" stroke-linecap="round"/>
<path d="M23.6562 83.5117H176.635" stroke="#06DF72" stroke-width="3" stroke-miterlimit="10" stroke-linecap="round"/>
<path d="M175.391 119.234H24.3477" stroke="#06DF72" stroke-width="3" stroke-miterlimit="10" stroke-linecap="round"/>
<path d="M126.475 54.4336C118.582 59.7493 109.066 62.8469 98.8271 62.8469C88.5884 62.8469 79.0718 59.7493 71.1797 54.4336" stroke="#06DF72" stroke-miterlimit="10" stroke-linecap="round"/>
<path d="M71.1875 144.195C79.0796 138.879 88.5962 135.781 98.8349 135.781C109.074 135.781 118.59 138.879 126.482 144.195" stroke="#06DF72" stroke-miterlimit="10" stroke-linecap="round"/>
<path d="M35.1289 91.3164H44.7158V95.0334H42.289V108.333H44.7158V112.05H35.1289V108.333H37.5858V95.0334H35.1289V91.3164Z" fill="#06DF72"/>
<path d="M60.1301 97.1829C60.1301 96.4135 59.8292 95.814 59.2175 95.3843C58.6158 94.9547 57.7735 94.7348 56.7005 94.7348C55.6275 94.7348 54.7249 94.9147 54.1032 95.2644C53.4815 95.6141 53.1806 96.0837 53.1806 96.6733C53.1806 97.1729 53.3711 97.5925 53.7522 97.9323C54.1333 98.262 54.6247 98.5318 55.2263 98.7316C55.818 98.9315 56.6403 99.1513 57.6732 99.4011C59.1874 99.7608 60.4409 100.141 61.4237 100.52C62.4064 100.9 63.2388 101.499 63.9407 102.299C64.6427 103.108 64.9837 104.187 64.9837 105.536C64.9837 107.894 64.2215 109.623 62.6973 110.722C61.173 111.821 59.0671 112.371 56.3996 112.371C53.9728 112.371 51.9672 111.841 50.3828 110.782C48.7983 109.723 47.9961 108.114 47.9961 105.956L48.0262 105.286H52.4586L52.4285 105.766C52.4285 106.655 52.7594 107.355 53.4313 107.864C54.1032 108.374 55.0358 108.634 56.2492 108.634C57.6632 108.634 58.676 108.414 59.2977 107.964C59.9095 107.525 60.2203 106.955 60.2203 106.276C60.2203 105.756 60.0298 105.326 59.6588 104.987C59.2877 104.657 58.8064 104.397 58.2348 104.197C57.6531 104.007 56.8509 103.788 55.818 103.548C54.2837 103.168 53.0302 102.778 52.0575 102.399C51.0847 102.019 50.2424 101.399 49.5404 100.56C48.8284 99.7108 48.4774 98.5718 48.4774 97.1429C48.4774 95.814 48.8385 94.6849 49.5705 93.7556C50.3026 92.8264 51.2753 92.1369 52.4987 91.6873C53.7221 91.2376 55.096 91.0078 56.6102 91.0078C58.9367 91.0078 60.832 91.5174 62.3162 92.5366C63.7903 93.5558 64.5324 95.0746 64.5324 97.083V97.4427H60.1301V97.1729V97.1829Z" fill="#06DF72"/>
<path d="M84.9686 108.096C84.1363 109.485 83.0232 110.544 81.6192 111.273C80.2153 112.003 78.6509 112.362 76.9361 112.362C75.2213 112.362 73.6569 112.003 72.253 111.273C70.8491 110.544 69.7259 109.485 68.9036 108.096C68.0713 106.707 67.6602 105.068 67.6602 103.17V100.212C67.6602 98.3237 68.0713 96.675 68.9036 95.2861C69.736 93.8972 70.8491 92.8381 72.253 92.1087C73.6569 91.3792 75.2213 91.0195 76.9361 91.0195C78.6509 91.0195 80.2153 91.3792 81.6192 92.1087C83.0232 92.8381 84.1463 93.8972 84.9686 95.2861C85.801 96.675 86.2121 98.3237 86.2121 100.212V103.17C86.2121 105.068 85.801 106.707 84.9686 108.096ZM80.0849 95.9856C79.2727 95.1462 78.2197 94.7366 76.9261 94.7366C75.6325 94.7366 74.5795 95.1562 73.7673 95.9856C72.955 96.8249 72.5539 98.0039 72.5539 99.5327V103.819C72.5539 105.348 72.955 106.537 73.7673 107.366C74.5795 108.196 75.6325 108.615 76.9261 108.615C78.2197 108.615 79.2727 108.196 80.0849 107.366C80.8972 106.537 81.2983 105.348 81.2983 103.819V99.5327C81.2983 98.0039 80.8972 96.8149 80.0849 95.9856Z" fill="#06DF72"/>
<path d="M105.135 108.334C105.636 108.054 106.057 107.664 106.378 107.185C106.699 106.705 106.86 106.176 106.86 105.616V102.688C106.318 103.268 105.666 103.718 104.914 104.017C104.162 104.317 103.4 104.467 102.608 104.467C101.354 104.467 100.221 104.207 99.1982 103.698C98.1753 103.188 97.3631 102.449 96.7714 101.489C96.1797 100.53 95.8789 99.4211 95.8789 98.1521C95.8789 96.7232 96.2098 95.4642 96.8617 94.3851C97.5135 93.306 98.416 92.4766 99.5592 91.8871C100.702 91.3076 101.966 91.0078 103.37 91.0078H103.791C105.165 91.0078 106.428 91.3176 107.582 91.9271C108.735 92.5366 109.647 93.4059 110.309 94.525C110.981 95.6441 111.312 96.9031 111.312 98.322V105.097C111.312 106.445 110.981 107.674 110.309 108.784C109.637 109.893 108.745 110.762 107.612 111.401C106.479 112.041 105.235 112.351 103.881 112.351H103.46C102.126 112.351 100.913 112.081 99.8199 111.551C98.7269 111.022 97.8645 110.232 97.2427 109.193C96.621 108.154 96.3001 106.935 96.3001 105.526H100.482C100.482 106.435 100.773 107.195 101.344 107.824C101.926 108.444 102.668 108.764 103.57 108.764C104.092 108.764 104.613 108.624 105.115 108.344L105.135 108.334ZM101.214 100.48C101.826 101.06 102.618 101.36 103.56 101.36C104.503 101.36 105.245 101.06 105.897 100.47C106.549 99.8807 106.87 99.1313 106.87 98.252V97.6225C106.87 96.7132 106.559 95.9738 105.927 95.3843C105.295 94.7948 104.513 94.505 103.56 94.505C102.608 94.505 101.876 94.8048 101.244 95.3943C100.602 95.9838 100.291 96.7332 100.291 97.6125V98.242C100.291 99.1513 100.602 99.8907 101.214 100.48Z" fill="#06DF72"/>
<path d="M128.921 108.784C128.269 109.893 127.397 110.762 126.284 111.401C125.17 112.041 123.947 112.351 122.613 112.351H121.731C120.397 112.351 119.174 112.031 118.06 111.401C116.947 110.772 116.075 109.893 115.433 108.784C114.801 107.674 114.48 106.445 114.48 105.097V98.292C114.48 96.9431 114.801 95.714 115.433 94.6049C116.075 93.4958 116.947 92.6165 118.06 91.977C119.174 91.3375 120.397 91.0078 121.731 91.0078H122.613C123.947 91.0078 125.17 91.3276 126.284 91.977C127.397 92.6265 128.279 93.4958 128.921 94.6049C129.573 95.714 129.894 96.9431 129.894 98.292V105.097C129.894 106.445 129.573 107.674 128.921 108.784ZM124.478 95.4842C123.857 94.8647 123.095 94.545 122.192 94.545C121.29 94.545 120.517 94.8547 119.906 95.4842C119.284 96.1137 118.983 96.8731 118.983 97.7824V105.576C118.983 106.485 119.294 107.245 119.906 107.874C120.517 108.504 121.29 108.814 122.192 108.814C123.095 108.814 123.867 108.504 124.478 107.874C125.09 107.245 125.401 106.485 125.401 105.576V97.7824C125.401 96.8731 125.09 96.1137 124.478 95.4842Z" fill="#06DF72"/>
<path d="M147.483 108.784C146.832 109.893 145.959 110.762 144.846 111.401C143.733 112.041 142.509 112.351 141.176 112.351H140.293C138.96 112.351 137.736 112.031 136.623 111.401C135.51 110.772 134.637 109.893 133.996 108.784C133.364 107.674 133.043 106.445 133.043 105.097V98.292C133.043 96.9431 133.364 95.714 133.996 94.6049C134.637 93.4958 135.51 92.6165 136.623 91.977C137.736 91.3375 138.96 91.0078 140.293 91.0078H141.176C142.509 91.0078 143.733 91.3276 144.846 91.977C145.959 92.6265 146.842 93.4958 147.483 94.6049C148.135 95.714 148.456 96.9431 148.456 98.292V105.097C148.456 106.445 148.135 107.674 147.483 108.784ZM143.041 95.4842C142.419 94.8647 141.657 94.545 140.755 94.545C139.852 94.545 139.08 94.8547 138.468 95.4842C137.846 96.1137 137.546 96.8731 137.546 97.7824V105.576C137.546 106.485 137.856 107.245 138.468 107.874C139.08 108.504 139.852 108.814 140.755 108.814C141.657 108.814 142.429 108.504 143.041 107.874C143.653 107.245 143.964 106.485 143.964 105.576V97.7824C143.964 96.8731 143.653 96.1137 143.041 95.4842Z" fill="#06DF72"/>
<path d="M152.456 108.394H157.49V96.5137H152.426V93.8258C153.559 93.7459 154.843 93.4561 156.277 92.9665C157.711 92.4769 159.064 91.8774 160.338 91.168H161.942V108.394H166.886V112.051H152.446V108.394H152.456Z" fill="#06DF72"/>
<path d="M48.875 54.3047L50.0282 56.6328L52.6054 57.0025L50.7402 58.8111L51.1814 61.379L48.875 60.17L46.5685 61.379L47.0098 58.8111L45.1445 57.0025L47.7217 56.6328L48.875 54.3047Z" fill="#06DF72"/>
<path d="M150.402 54.3047L151.556 56.6328L154.133 57.0025L152.268 58.8111L152.709 61.379L150.402 60.17L148.096 61.379L148.537 58.8111L146.672 57.0025L149.249 56.6328L150.402 54.3047Z" fill="#06DF72"/>
<path d="M48.875 136.699L50.0282 139.027L52.6054 139.407L50.7402 141.216L51.1814 143.774L48.875 142.565L46.5685 143.774L47.0098 141.216L45.1445 139.407L47.7217 139.027L48.875 136.699Z" fill="#06DF72"/>
<path d="M150.402 136.699L151.556 139.027L154.133 139.407L152.268 141.216L152.709 143.774L150.402 142.565L148.096 143.774L148.537 141.216L146.672 139.407L149.249 139.027L150.402 136.699Z" fill="#06DF72"/>
</g>
<defs>
<clipPath id="clip0_1464_19347">
<rect width="200" height="200" fill="white"/>
</clipPath>
</defs>
</svg>
