<svg width="286" height="75" viewBox="0 0 286 75" fill="none" xmlns="http://www.w3.org/2000/svg">
<path d="M29.9922 74.8688C21.3255 74.8688 14.3922 72.8021 9.19219 68.6687C3.99219 64.5354 0.958854 58.6354 0.0921877 50.9687H10.3922C10.9922 55.9687 12.9922 59.7687 16.3922 62.3687C19.7922 64.9687 24.3922 66.2687 30.1922 66.2687C35.0589 66.2687 38.7255 65.3687 41.1922 63.5687C43.7255 61.7687 44.9922 59.2021 44.9922 55.8687C44.9922 52.8687 44.1589 50.5021 42.4922 48.7687C40.8255 46.9687 38.1922 45.5021 34.5922 44.3687L22.0922 40.3687C15.6922 38.3021 10.9922 35.7021 7.99219 32.5687C4.99219 29.4354 3.49219 25.4687 3.49219 20.6687C3.49219 16.6021 4.49219 13.1021 6.49219 10.1687C8.55886 7.23541 11.4255 4.96875 15.0922 3.36875C18.8255 1.70208 23.1589 0.868749 28.0922 0.868749C35.6922 0.868749 41.7589 2.80208 46.2922 6.66875C50.8922 10.4687 53.5255 15.7687 54.1922 22.5688H43.8922C43.0922 18.0354 41.3589 14.7354 38.6922 12.6687C36.0255 10.5354 32.3589 9.46875 27.6922 9.46875C23.2922 9.46875 19.8589 10.3354 17.3922 12.0687C14.9255 13.8021 13.6922 16.2354 13.6922 19.3687C13.6922 21.9021 14.4922 24.0354 16.0922 25.7687C17.7589 27.4354 20.4922 28.8687 24.2922 30.0687L37.3922 34.2687C43.4589 36.2021 47.9255 38.8354 50.7922 42.1687C53.7255 45.5021 55.1922 49.7021 55.1922 54.7687C55.1922 61.1687 52.9922 66.1354 48.5922 69.6687C44.1922 73.1354 37.9922 74.8688 29.9922 74.8688ZM98.2969 74.9688C93.1635 74.9688 88.4635 74.0688 84.1969 72.2687C79.9302 70.4021 76.2302 67.8021 73.0969 64.4687C69.9635 61.1354 67.4969 57.2021 65.6969 52.6687C63.9635 48.1354 63.0969 43.1354 63.0969 37.6687C63.0969 30.4687 64.5969 24.1021 67.5969 18.5687C70.5969 13.0354 74.7302 8.73541 79.9969 5.66875C85.3302 2.53541 91.3969 0.968748 98.1969 0.968748C105.13 0.968748 111.23 2.53541 116.497 5.66875C121.764 8.73541 125.897 13.0354 128.897 18.5687C131.964 24.1021 133.497 30.5021 133.497 37.7687C133.497 43.1687 132.597 48.1687 130.797 52.7687C129.064 57.3021 126.63 61.2354 123.497 64.5687C120.364 67.8354 116.63 70.4021 112.297 72.2687C108.03 74.0688 103.364 74.9688 98.2969 74.9688ZM98.1969 65.9687C102.997 65.9687 107.23 64.7687 110.897 62.3687C114.564 59.9021 117.43 56.5354 119.497 52.2687C121.63 48.0021 122.697 43.1021 122.697 37.5687C122.697 32.1021 121.664 27.3021 119.597 23.1687C117.53 18.9687 114.664 15.7354 110.997 13.4687C107.33 11.1354 103.064 9.96875 98.1969 9.96875C93.3302 9.96875 89.0635 11.1354 85.3969 13.4687C81.7969 15.7354 78.9635 18.9354 76.8969 23.0687C74.8969 27.2021 73.8969 32.0354 73.8969 37.5687C73.8969 43.1687 74.9302 48.1021 76.9969 52.3687C79.0635 56.6354 81.8969 59.9687 85.4969 62.3687C89.1635 64.7687 93.3969 65.9687 98.1969 65.9687ZM177.389 74.9688C172.389 74.9688 167.756 74.0688 163.489 72.2687C159.222 70.4021 155.522 67.8354 152.389 64.5687C149.322 61.2354 146.922 57.3021 145.189 52.7687C143.456 48.2354 142.589 43.2687 142.589 37.8687C142.589 32.4687 143.422 27.5354 145.089 23.0687C146.822 18.5354 149.222 14.6354 152.289 11.3687C155.422 8.03541 159.122 5.46875 163.389 3.66875C167.656 1.86875 172.289 0.968748 177.289 0.968748C182.889 0.968748 187.922 2.10208 192.389 4.36875C196.856 6.56875 200.489 9.70208 203.289 13.7687C206.156 17.8354 207.922 22.5687 208.589 27.9687H198.189C197.322 22.3021 195.022 17.9021 191.289 14.7687C187.622 11.5687 182.989 9.96875 177.389 9.96875C172.656 9.96875 168.456 11.1354 164.789 13.4687C161.189 15.7354 158.389 18.9687 156.389 23.1687C154.389 27.3021 153.389 32.2021 153.389 37.8687C153.389 43.4687 154.389 48.4021 156.389 52.6687C158.456 56.8687 161.289 60.1354 164.889 62.4687C168.489 64.8021 172.656 65.9687 177.389 65.9687C182.989 65.9687 187.656 64.4021 191.389 61.2687C195.189 58.0687 197.489 53.6354 198.289 47.9687H208.789C208.056 53.4354 206.256 58.2021 203.389 62.2687C200.522 66.2687 196.856 69.4021 192.389 71.6687C187.989 73.8687 182.989 74.9688 177.389 74.9688ZM235.93 73.9688V65.2687C242.93 59.5354 248.763 54.5354 253.43 50.2687C258.163 46.0021 261.93 42.2021 264.73 38.8687C267.53 35.5354 269.53 32.5021 270.73 29.7687C271.93 27.0354 272.53 24.3021 272.53 21.5687C272.53 17.8354 271.43 14.9354 269.23 12.8687C267.096 10.7354 264.13 9.66875 260.33 9.66875C256.396 9.66875 253.196 10.8354 250.73 13.1687C248.263 15.4354 246.73 18.6687 246.13 22.8687H235.33C235.996 16.2687 238.563 10.9687 243.03 6.96875C247.563 2.96875 253.53 0.968748 260.93 0.968748C267.996 0.968748 273.563 2.83541 277.63 6.56875C281.763 10.3021 283.83 15.4354 283.83 21.9687C283.83 25.3021 283.196 28.6354 281.93 31.9687C280.73 35.2354 278.73 38.6687 275.93 42.2687C273.13 45.8021 269.363 49.7354 264.63 54.0687C259.963 58.3354 254.163 63.2021 247.23 68.6687L244.73 65.2687H285.13V73.9688H235.93Z" fill="#06DF72"/>
</svg>
