<svg width="20" height="20" viewBox="0 0 20 20" fill="none" xmlns="http://www.w3.org/2000/svg">
<g clip-path="url(#clip0_1464_19191)">
<path d="M10.8327 18.3346H4.16602C2.49935 18.3346 1.66602 17.5013 1.66602 15.8346V9.16797C1.66602 7.5013 2.49935 6.66797 4.16602 6.66797H8.33268V15.8346C8.33268 17.5013 9.16602 18.3346 10.8327 18.3346Z" stroke="white" stroke-width="1.5" stroke-miterlimit="10" stroke-linecap="round" stroke-linejoin="round"/>
<path d="M8.42434 3.33203C8.35767 3.58203 8.33268 3.85703 8.33268 4.16536V6.66536H4.16602V4.9987C4.16602 4.08203 4.91602 3.33203 5.83268 3.33203H8.42434Z" stroke="white" stroke-width="1.5" stroke-miterlimit="10" stroke-linecap="round" stroke-linejoin="round"/>
<path d="M11.666 6.66797V10.8346" stroke="white" stroke-width="1.5" stroke-miterlimit="10" stroke-linecap="round" stroke-linejoin="round"/>
<path d="M15 6.66797V10.8346" stroke="white" stroke-width="1.5" stroke-miterlimit="10" stroke-linecap="round" stroke-linejoin="round"/>
<path d="M14.166 14.168H12.4993C12.041 14.168 11.666 14.543 11.666 15.0013V18.3346H14.9993V15.0013C14.9993 14.543 14.6243 14.168 14.166 14.168Z" stroke="white" stroke-width="1.5" stroke-miterlimit="10" stroke-linecap="round" stroke-linejoin="round"/>
<path d="M5 10.832V14.1654" stroke="white" stroke-width="1.5" stroke-miterlimit="10" stroke-linecap="round" stroke-linejoin="round"/>
<path d="M8.33398 15.8346V4.16797C8.33398 2.5013 9.16732 1.66797 10.834 1.66797H15.834C17.5007 1.66797 18.334 2.5013 18.334 4.16797V15.8346C18.334 17.5013 17.5007 18.3346 15.834 18.3346H10.834C9.16732 18.3346 8.33398 17.5013 8.33398 15.8346Z" stroke="white" stroke-width="1.5" stroke-miterlimit="10" stroke-linecap="round" stroke-linejoin="round"/>
</g>
<defs>
<clipPath id="clip0_1464_19191">
<rect width="20" height="20" fill="white"/>
</clipPath>
</defs>
</svg>
