<svg width="20" height="20" viewBox="0 0 20 20" fill="none" xmlns="http://www.w3.org/2000/svg">
<g clip-path="url(#clip0_1464_19169)">
<path d="M10.1098 10C10.0457 9.99084 9.96341 9.99084 9.89024 10C8.28049 9.94504 7 8.62595 7 7.00458C7 5.34657 8.33537 4 10 4C11.6555 4 13 5.34657 13 7.00458C12.9909 8.62595 11.7195 9.94504 10.1098 10Z" stroke="white" stroke-width="1.5" stroke-linecap="round" stroke-linejoin="round"/>
<path d="M16 17C15.911 16.0469 15.3769 15.1141 14.4243 14.384C12.003 12.5387 8.01484 12.5387 5.57567 14.384C4.62315 15.1141 4.08902 16.0469 4 17" stroke="white" stroke-width="1.5" stroke-linecap="round" stroke-linejoin="round"/>
<path d="M10 0.75C15.1086 0.75 19.25 4.89137 19.25 10C19.25 15.1086 15.1086 19.25 10 19.25C4.89137 19.25 0.75 15.1086 0.75 10C0.75 4.89137 4.89137 0.75 10 0.75Z" stroke="white" stroke-width="1.5" stroke-linecap="round" stroke-linejoin="round"/>
</g>
<defs>
<clipPath id="clip0_1464_19169">
<rect width="20" height="20" fill="white"/>
</clipPath>
</defs>
</svg>
