<svg width="257" height="254" viewBox="0 0 257 254" fill="none" xmlns="http://www.w3.org/2000/svg">
<mask id="path-1-inside-1_44027_13443" fill="white">
<path d="M164.671 5.29688C171.353 5.29688 176.771 10.714 176.771 17.3965V26.6094C218.893 37.312 250.051 75.486 250.051 120.938C250.051 174.686 206.479 218.258 152.73 218.258C98.9819 218.258 55.4102 174.686 55.4102 120.938C55.4102 75.4883 86.5652 37.3162 128.684 26.6113V17.3965C128.684 10.7142 134.101 5.29709 140.783 5.29688H164.671Z"/>
</mask>
<path d="M164.671 5.29688C171.353 5.29688 176.771 10.714 176.771 17.3965V26.6094C218.893 37.312 250.051 75.486 250.051 120.938C250.051 174.686 206.479 218.258 152.73 218.258C98.9819 218.258 55.4102 174.686 55.4102 120.938C55.4102 75.4883 86.5652 37.3162 128.684 26.6113V17.3965C128.684 10.7142 134.101 5.29709 140.783 5.29688H164.671Z" fill="url(#paint0_linear_44027_13443)"/>
<path d="M176.771 17.3965H177.981V17.3964L176.771 17.3965ZM176.771 26.6094H175.561V27.5504L176.474 27.7821L176.771 26.6094ZM250.051 120.938H251.261H250.051ZM152.73 218.258V219.468V218.258ZM55.4102 120.938H54.2002H55.4102ZM128.684 26.6113L128.982 27.784L129.894 27.5523V26.6113H128.684ZM128.684 17.3965L127.474 17.3964V17.3965H128.684ZM140.783 5.29688V4.08687H140.783L140.783 5.29688ZM164.671 5.29688V6.50688C170.685 6.50688 175.561 11.3824 175.561 17.3965L176.771 17.3965L177.981 17.3964C177.981 10.0457 172.022 4.08687 164.671 4.08687V5.29688ZM176.771 17.3965H175.561V26.6094H176.771H177.981V17.3965H176.771ZM176.771 26.6094L176.474 27.7821C218.072 38.3518 248.841 76.0528 248.841 120.938H250.051H251.261C251.261 74.9193 219.715 36.2723 177.069 25.4366L176.771 26.6094ZM250.051 120.938H248.841C248.841 174.018 205.811 217.048 152.73 217.048V218.258V219.468C207.147 219.468 251.261 175.354 251.261 120.938H250.051ZM152.73 218.258V217.048C99.6502 217.048 56.6202 174.018 56.6202 120.938H55.4102H54.2002C54.2002 175.354 98.3137 219.468 152.73 219.468V218.258ZM55.4102 120.938H56.6202C56.6202 76.055 87.3867 38.3559 128.982 27.784L128.684 26.6113L128.386 25.4386C85.7437 36.2765 54.2002 74.9216 54.2002 120.938H55.4102ZM128.684 26.6113H129.894V17.3965H128.684H127.474V26.6113H128.684ZM128.684 17.3965L129.894 17.3965C129.894 11.3824 134.769 6.50707 140.783 6.50688L140.783 5.29688L140.783 4.08687C133.433 4.08711 127.474 10.0459 127.474 17.3964L128.684 17.3965ZM140.783 5.29688V6.50688H164.671V5.29688V4.08687H140.783V5.29688Z" fill="#AC9FEE" mask="url(#path-1-inside-1_44027_13443)"/>
<path d="M132.869 120.151L225.926 128.85" stroke="#AC9FEE" stroke-width="1.21" stroke-linecap="round"/>
<circle cx="152.733" cy="120.936" r="17.1742" fill="white"/>
<path d="M96.6328 26.668L116.507 17.8973" stroke="white" stroke-width="6.05" stroke-linecap="round"/>
<path d="M209.246 26.668L189.371 17.8973" stroke="white" stroke-width="6.05" stroke-linecap="round"/>
<g filter="url(#filter1_d_44027_13443)">
<path d="M126.038 169.846C106.72 169.846 91.0508 176.599 91.0508 184.939V218.895C91.0508 227.225 106.71 233.989 126.038 233.989C145.366 233.989 161.025 227.235 161.025 218.895V184.939C161.025 176.609 145.366 169.846 126.038 169.846Z" fill="#E8EDFC"/>
<path d="M126.038 169.846C106.72 169.846 91.0508 176.599 91.0508 184.939V218.895C91.0508 227.225 106.71 233.989 126.038 233.989C145.366 233.989 161.025 227.235 161.025 218.895V184.939C161.025 176.609 145.366 169.846 126.038 169.846Z" stroke="#AC9FEE" stroke-width="1.21" stroke-miterlimit="10"/>
</g>
<path d="M161.025 186.189C161.025 194.52 145.366 201.283 126.038 201.283C106.71 201.283 91.0508 194.53 91.0508 186.189" fill="#E8EDFC"/>
<path d="M161.025 186.189C161.025 194.52 145.366 201.283 126.038 201.283C106.71 201.283 91.0508 194.53 91.0508 186.189" stroke="#AC9FEE" stroke-width="1.21" stroke-miterlimit="10"/>
<path d="M161.025 202.543C161.025 210.873 145.366 217.637 126.038 217.637C106.71 217.637 91.0508 210.883 91.0508 202.543" fill="#E8EDFC"/>
<path d="M161.025 202.543C161.025 210.873 145.366 217.637 126.038 217.637C106.71 217.637 91.0508 210.883 91.0508 202.543" stroke="#AC9FEE" stroke-width="1.21" stroke-miterlimit="10"/>
<path d="M161.025 218.893C161.025 227.223 145.366 233.986 126.038 233.986C106.71 233.986 91.0508 227.233 91.0508 218.893" fill="#E8EDFC"/>
<path d="M161.025 218.893C161.025 227.223 145.366 233.986 126.038 233.986C106.71 233.986 91.0508 227.233 91.0508 218.893" stroke="#AC9FEE" stroke-width="1.21" stroke-miterlimit="10"/>
<g filter="url(#filter2_d_44027_13443)">
<path d="M47.8193 138.398C28.5009 138.398 12.832 145.152 12.832 153.492V218.894C12.832 227.225 28.491 233.988 47.8193 233.988C67.1476 233.988 82.8066 227.235 82.8066 218.894V153.492C82.8066 145.162 67.1476 138.398 47.8193 138.398Z" fill="#E8EDFC"/>
<path d="M47.8193 138.398C28.5009 138.398 12.832 145.152 12.832 153.492V218.894C12.832 227.225 28.491 233.988 47.8193 233.988C67.1476 233.988 82.8066 227.235 82.8066 218.894V153.492C82.8066 145.162 67.1476 138.398 47.8193 138.398Z" stroke="#AC9FEE" stroke-width="1.21" stroke-miterlimit="10"/>
</g>
<path d="M47.8193 168.586C67.1422 168.586 82.8066 161.828 82.8066 153.492C82.8066 145.156 67.1422 138.398 47.8193 138.398C28.4964 138.398 12.832 145.156 12.832 153.492C12.832 161.828 28.4964 168.586 47.8193 168.586Z" fill="#E8EDFC" stroke="#AC9FEE" stroke-width="1.21" stroke-miterlimit="10"/>
<path d="M82.8066 169.846C82.8066 178.176 67.1476 184.939 47.8193 184.939C28.491 184.939 12.832 178.186 12.832 169.846" fill="#E8EDFC"/>
<path d="M82.8066 169.846C82.8066 178.176 67.1476 184.939 47.8193 184.939C28.491 184.939 12.832 178.186 12.832 169.846" stroke="#AC9FEE" stroke-width="1.21" stroke-miterlimit="10"/>
<path d="M82.8066 186.189C82.8066 194.52 67.1476 201.283 47.8193 201.283C28.491 201.283 12.832 194.53 12.832 186.189" fill="#E8EDFC"/>
<path d="M82.8066 186.189C82.8066 194.52 67.1476 201.283 47.8193 201.283C28.491 201.283 12.832 194.53 12.832 186.189" stroke="#AC9FEE" stroke-width="1.21" stroke-miterlimit="10"/>
<path d="M82.8066 202.543C82.8066 210.873 67.1476 217.637 47.8193 217.637C28.491 217.637 12.832 210.883 12.832 202.543" fill="#E8EDFC"/>
<path d="M82.8066 202.543C82.8066 210.873 67.1476 217.637 47.8193 217.637C28.491 217.637 12.832 210.883 12.832 202.543" stroke="#AC9FEE" stroke-width="1.21" stroke-miterlimit="10"/>
<path d="M82.8066 218.896C82.8066 227.227 67.1476 233.99 47.8193 233.99C28.491 233.99 12.832 227.237 12.832 218.896" fill="#E8EDFC"/>
<path d="M82.8066 218.896C82.8066 227.227 67.1476 233.99 47.8193 233.99C28.491 233.99 12.832 227.237 12.832 218.896" stroke="#AC9FEE" stroke-width="1.21" stroke-miterlimit="10"/>
<g filter="url(#filter3_d_44027_13443)">
<path d="M148.41 44.0195C175.21 45.3485 222.78 65.2838 229.48 125.09" stroke="#DDDEFD" stroke-width="14.52" stroke-linecap="round" stroke-linejoin="round"/>
</g>
<defs>
<filter id="filter1_d_44027_13443" x="83.1853" y="161.98" width="95.3836" height="89.5535" filterUnits="userSpaceOnUse" color-interpolation-filters="sRGB">
<feFlood flood-opacity="0" result="BackgroundImageFix"/>
<feColorMatrix in="SourceAlpha" type="matrix" values="0 0 0 0 0 0 0 0 0 0 0 0 0 0 0 0 0 0 127 0" result="hardAlpha"/>
<feOffset dx="4.84" dy="4.84"/>
<feGaussianBlur stdDeviation="6.05"/>
<feComposite in2="hardAlpha" operator="out"/>
<feColorMatrix type="matrix" values="0 0 0 0 1 0 0 0 0 1 0 0 0 0 1 0 0 0 1 0"/>
<feBlend mode="normal" in2="BackgroundImageFix" result="effect1_dropShadow_44027_13443"/>
<feBlend mode="normal" in="SourceGraphic" in2="effect1_dropShadow_44027_13443" result="shape"/>
</filter>
<filter id="filter2_d_44027_13443" x="2.54656" y="128.113" width="100.224" height="125.841" filterUnits="userSpaceOnUse" color-interpolation-filters="sRGB">
<feFlood flood-opacity="0" result="BackgroundImageFix"/>
<feColorMatrix in="SourceAlpha" type="matrix" values="0 0 0 0 0 0 0 0 0 0 0 0 0 0 0 0 0 0 127 0" result="hardAlpha"/>
<feOffset dx="4.84" dy="4.84"/>
<feGaussianBlur stdDeviation="7.26001"/>
<feComposite in2="hardAlpha" operator="out"/>
<feColorMatrix type="matrix" values="0 0 0 0 1 0 0 0 0 1 0 0 0 0 1 0 0 0 1 0"/>
<feBlend mode="normal" in2="BackgroundImageFix" result="effect1_dropShadow_44027_13443"/>
<feBlend mode="normal" in="SourceGraphic" in2="effect1_dropShadow_44027_13443" result="shape"/>
</filter>
<filter id="filter3_d_44027_13443" x="131.468" y="27.0798" width="124.634" height="124.63" filterUnits="userSpaceOnUse" color-interpolation-filters="sRGB">
<feFlood flood-opacity="0" result="BackgroundImageFix"/>
<feColorMatrix in="SourceAlpha" type="matrix" values="0 0 0 0 0 0 0 0 0 0 0 0 0 0 0 0 0 0 127 0" result="hardAlpha"/>
<feOffset dx="4.84" dy="4.84"/>
<feGaussianBlur stdDeviation="7.26001"/>
<feComposite in2="hardAlpha" operator="out"/>
<feColorMatrix type="matrix" values="0 0 0 0 1 0 0 0 0 1 0 0 0 0 1 0 0 0 1 0"/>
<feBlend mode="normal" in2="BackgroundImageFix" result="effect1_dropShadow_44027_13443"/>
<feBlend mode="normal" in="SourceGraphic" in2="effect1_dropShadow_44027_13443" result="shape"/>
</filter>
<linearGradient id="paint0_linear_44027_13443" x1="152.73" y1="8.73173" x2="152.73" y2="218.258" gradientUnits="userSpaceOnUse">
<stop stop-color="white" stop-opacity="0.2"/>
<stop offset="1" stop-color="white" stop-opacity="0.5"/>
</linearGradient>
</defs>
</svg>
