<svg width="152" height="151" viewBox="0 0 152 151" fill="none" xmlns="http://www.w3.org/2000/svg">
<line x1="80.5012" y1="108.296" x2="78.364" y2="77.0308" stroke="white"/>
<line x1="110.714" y1="100.672" x2="79.6217" y2="78.9808" stroke="white"/>
<path d="M114.219 72.247L79.9151 76.7645" stroke="white"/>
<path d="M106.811 46.2852L81.0415 74.7708" stroke="white"/>
<line x1="42.7467" y1="94.4857" x2="78.6352" y2="75.5074" stroke="white"/>
<line x1="44.4639" y1="45.6914" x2="79.1873" y2="74.513" stroke="white"/>
<path d="M77.0009 42.261L79.1589 74.9191" stroke="white"/>
<g filter="url(#filter0_f_44027_13250)">
<path d="M78.867 84.8376C83.7771 84.8376 87.7575 80.8572 87.7575 75.9471C87.7575 71.037 83.7771 67.0566 78.867 67.0566C73.957 67.0566 69.9766 71.037 69.9766 75.9471C69.9766 80.8572 73.957 84.8376 78.867 84.8376Z" fill="url(#paint0_linear_44027_13250)"/>
</g>
<circle cx="78.867" cy="75.9471" r="8.89048" fill="#06DF72"/>
<g filter="url(#filter1_f_44027_13250)">
<path d="M43.8231 51.5875C46.9506 51.5875 49.486 49.0522 49.486 45.9246C49.486 42.7971 46.9506 40.2617 43.8231 40.2617C40.6955 40.2617 38.1602 42.7971 38.1602 45.9246C38.1602 49.0522 40.6955 51.5875 43.8231 51.5875Z" fill="url(#paint1_linear_44027_13250)"/>
</g>
<circle cx="43.8231" cy="45.9246" r="5.66291" fill="white"/>
<g filter="url(#filter2_f_44027_13250)">
<path d="M76.6629 46.5875C79.7904 46.5875 82.3258 44.0522 82.3258 40.9246C82.3258 37.7971 79.7904 35.2617 76.6629 35.2617C73.5354 35.2617 71 37.7971 71 40.9246C71 44.0522 73.5354 46.5875 76.6629 46.5875Z" fill="url(#paint2_linear_44027_13250)"/>
</g>
<circle cx="76.6629" cy="40.9246" r="5.66291" fill="white"/>
<g filter="url(#filter3_f_44027_13250)">
<path d="M81.6629 115.588C84.7904 115.588 87.3258 113.052 87.3258 109.925C87.3258 106.797 84.7904 104.262 81.6629 104.262C78.5354 104.262 76 106.797 76 109.925C76 113.052 78.5354 115.588 81.6629 115.588Z" fill="url(#paint3_linear_44027_13250)"/>
</g>
<circle cx="81.6629" cy="109.925" r="5.66291" fill="white"/>
<g filter="url(#filter4_f_44027_13250)">
<path d="M105.499 51.5875C108.626 51.5875 111.162 49.0522 111.162 45.9246C111.162 42.7971 108.626 40.2617 105.499 40.2617C102.371 40.2617 99.8359 42.7971 99.8359 45.9246C99.8359 49.0522 102.371 51.5875 105.499 51.5875Z" fill="url(#paint4_linear_44027_13250)"/>
</g>
<circle cx="105.499" cy="45.9246" r="5.66291" fill="white"/>
<g filter="url(#filter5_f_44027_13250)">
<path d="M110.667 78.5875C113.794 78.5875 116.33 76.0522 116.33 72.9246C116.33 69.7971 113.794 67.2617 110.667 67.2617C107.539 67.2617 105.004 69.7971 105.004 72.9246C105.004 76.0522 107.539 78.5875 110.667 78.5875Z" fill="url(#paint5_linear_44027_13250)"/>
</g>
<circle cx="110.667" cy="72.9246" r="5.66291" fill="white"/>
<g filter="url(#filter6_f_44027_13250)">
<path d="M41.6629 97.0309C44.7904 97.0309 47.3258 94.4955 47.3258 91.368C47.3258 88.2404 44.7904 85.7051 41.6629 85.7051C38.5354 85.7051 36 88.2404 36 91.368C36 94.4955 38.5354 97.0309 41.6629 97.0309Z" fill="url(#paint6_linear_44027_13250)"/>
</g>
<circle cx="44.6629" cy="93.9246" r="5.66291" fill="white"/>
<g filter="url(#filter7_f_44027_13250)">
<path d="M109.663 105.588C112.79 105.588 115.326 103.052 115.326 99.9246C115.326 96.7971 112.79 94.2617 109.663 94.2617C106.535 94.2617 104 96.7971 104 99.9246C104 103.052 106.535 105.588 109.663 105.588Z" fill="url(#paint7_linear_44027_13250)"/>
</g>
<circle cx="109.663" cy="99.9246" r="5.66291" fill="white"/>
<defs>
<filter id="filter0_f_44027_13250" x="34.7856" y="31.8657" width="88.1631" height="88.1631" filterUnits="userSpaceOnUse" color-interpolation-filters="sRGB">
<feFlood flood-opacity="0" result="BackgroundImageFix"/>
<feBlend mode="normal" in="SourceGraphic" in2="BackgroundImageFix" result="shape"/>
<feGaussianBlur stdDeviation="17.5955" result="effect1_foregroundBlur_44027_13250"/>
</filter>
<filter id="filter1_f_44027_13250" x="2.96923" y="5.07079" width="81.7061" height="81.708" filterUnits="userSpaceOnUse" color-interpolation-filters="sRGB">
<feFlood flood-opacity="0" result="BackgroundImageFix"/>
<feBlend mode="normal" in="SourceGraphic" in2="BackgroundImageFix" result="shape"/>
<feGaussianBlur stdDeviation="17.5955" result="effect1_foregroundBlur_44027_13250"/>
</filter>
<filter id="filter2_f_44027_13250" x="35.8091" y="0.0707893" width="81.7061" height="81.708" filterUnits="userSpaceOnUse" color-interpolation-filters="sRGB">
<feFlood flood-opacity="0" result="BackgroundImageFix"/>
<feBlend mode="normal" in="SourceGraphic" in2="BackgroundImageFix" result="shape"/>
<feGaussianBlur stdDeviation="17.5955" result="effect1_foregroundBlur_44027_13250"/>
</filter>
<filter id="filter3_f_44027_13250" x="40.8091" y="69.0708" width="81.7061" height="81.708" filterUnits="userSpaceOnUse" color-interpolation-filters="sRGB">
<feFlood flood-opacity="0" result="BackgroundImageFix"/>
<feBlend mode="normal" in="SourceGraphic" in2="BackgroundImageFix" result="shape"/>
<feGaussianBlur stdDeviation="17.5955" result="effect1_foregroundBlur_44027_13250"/>
</filter>
<filter id="filter4_f_44027_13250" x="64.645" y="5.07079" width="81.7061" height="81.708" filterUnits="userSpaceOnUse" color-interpolation-filters="sRGB">
<feFlood flood-opacity="0" result="BackgroundImageFix"/>
<feBlend mode="normal" in="SourceGraphic" in2="BackgroundImageFix" result="shape"/>
<feGaussianBlur stdDeviation="17.5955" result="effect1_foregroundBlur_44027_13250"/>
</filter>
<filter id="filter5_f_44027_13250" x="69.813" y="32.0708" width="81.7061" height="81.708" filterUnits="userSpaceOnUse" color-interpolation-filters="sRGB">
<feFlood flood-opacity="0" result="BackgroundImageFix"/>
<feBlend mode="normal" in="SourceGraphic" in2="BackgroundImageFix" result="shape"/>
<feGaussianBlur stdDeviation="17.5955" result="effect1_foregroundBlur_44027_13250"/>
</filter>
<filter id="filter6_f_44027_13250" x="0.809071" y="50.5141" width="81.7061" height="81.708" filterUnits="userSpaceOnUse" color-interpolation-filters="sRGB">
<feFlood flood-opacity="0" result="BackgroundImageFix"/>
<feBlend mode="normal" in="SourceGraphic" in2="BackgroundImageFix" result="shape"/>
<feGaussianBlur stdDeviation="17.5955" result="effect1_foregroundBlur_44027_13250"/>
</filter>
<filter id="filter7_f_44027_13250" x="68.8091" y="59.0708" width="81.7061" height="81.708" filterUnits="userSpaceOnUse" color-interpolation-filters="sRGB">
<feFlood flood-opacity="0" result="BackgroundImageFix"/>
<feBlend mode="normal" in="SourceGraphic" in2="BackgroundImageFix" result="shape"/>
<feGaussianBlur stdDeviation="17.5955" result="effect1_foregroundBlur_44027_13250"/>
</filter>
<linearGradient id="paint0_linear_44027_13250" x1="70.6408" y1="77.6217" x2="112.761" y2="69.0564" gradientUnits="userSpaceOnUse">
<stop stop-color="#07D46E"/>
<stop offset="1" stop-color="#D6B9FA"/>
</linearGradient>
<linearGradient id="paint1_linear_44027_13250" x1="38.5833" y1="46.9913" x2="65.4125" y2="41.5355" gradientUnits="userSpaceOnUse">
<stop stop-color="#694AFF"/>
<stop offset="0.51" stop-color="#BBBCFA"/>
<stop offset="1" stop-color="#D6B9FA"/>
</linearGradient>
<linearGradient id="paint2_linear_44027_13250" x1="71.4231" y1="41.9913" x2="98.2523" y2="36.5355" gradientUnits="userSpaceOnUse">
<stop stop-color="#694AFF"/>
<stop offset="0.51" stop-color="#BBBCFA"/>
<stop offset="1" stop-color="#D6B9FA"/>
</linearGradient>
<linearGradient id="paint3_linear_44027_13250" x1="76.4231" y1="110.991" x2="103.252" y2="105.535" gradientUnits="userSpaceOnUse">
<stop stop-color="#694AFF"/>
<stop offset="0.51" stop-color="#BBBCFA"/>
<stop offset="1" stop-color="#D6B9FA"/>
</linearGradient>
<linearGradient id="paint4_linear_44027_13250" x1="100.259" y1="46.9913" x2="127.088" y2="41.5355" gradientUnits="userSpaceOnUse">
<stop stop-color="#694AFF"/>
<stop offset="0.51" stop-color="#BBBCFA"/>
<stop offset="1" stop-color="#D6B9FA"/>
</linearGradient>
<linearGradient id="paint5_linear_44027_13250" x1="105.427" y1="73.9913" x2="132.256" y2="68.5355" gradientUnits="userSpaceOnUse">
<stop stop-color="#694AFF"/>
<stop offset="0.51" stop-color="#BBBCFA"/>
<stop offset="1" stop-color="#D6B9FA"/>
</linearGradient>
<linearGradient id="paint6_linear_44027_13250" x1="36.4231" y1="92.4347" x2="63.2523" y2="86.9788" gradientUnits="userSpaceOnUse">
<stop stop-color="#694AFF"/>
<stop offset="0.51" stop-color="#BBBCFA"/>
<stop offset="1" stop-color="#D6B9FA"/>
</linearGradient>
<linearGradient id="paint7_linear_44027_13250" x1="104.423" y1="100.991" x2="131.252" y2="95.5355" gradientUnits="userSpaceOnUse">
<stop stop-color="#694AFF"/>
<stop offset="0.51" stop-color="#BBBCFA"/>
<stop offset="1" stop-color="#D6B9FA"/>
</linearGradient>
</defs>
</svg>
