<svg width="105" height="104" viewBox="0 0 105 104" fill="none" xmlns="http://www.w3.org/2000/svg">
<path d="M28.4805 39.2363C30.3199 39.4109 32.1104 39.7873 33.8213 40.3516L33.9883 44.6006L33.9961 44.7979L34.1777 44.876C34.9836 45.2226 35.7617 45.6188 36.5098 46.0596L36.6807 46.1602L36.8457 46.0488L40.3691 43.6592C41.8538 44.7187 43.2191 45.9379 44.4346 47.2959L42.4561 51.0596L42.3633 51.2354L42.4824 51.3945C43.0038 52.0888 43.4837 52.8219 43.9131 53.584L44.0107 53.7568L44.21 53.7422L48.4619 53.4346C49.2097 55.0665 49.7811 56.8029 50.1562 58.6162L46.5566 60.8916L46.3896 60.9971L46.4121 61.1924C46.4393 61.4286 46.469 61.6382 46.4844 61.8574V61.8633C46.5416 62.5135 46.5655 63.1603 46.5605 63.8027L46.5596 64.002L46.7373 64.0879L50.5635 65.9404C50.3933 67.7825 50.0177 69.5719 49.4531 71.2842L45.2061 71.4512L45.0098 71.459L44.9307 71.6396C44.5817 72.4442 44.1851 73.2232 43.7451 73.9736L43.6455 74.1445L43.7568 74.3086L46.1426 77.8311C45.0851 79.317 43.8669 80.6804 42.5088 81.8975L38.7451 79.9189L38.5693 79.8271L38.4111 79.9453C37.7139 80.4667 36.9813 80.9447 36.2217 81.3789L36.0498 81.4766L36.0645 81.6738L36.3701 85.9268C34.7356 86.6727 33.0015 87.2427 31.1836 87.6221L28.9111 84.0166L28.8047 83.8467L28.6064 83.8721C28.3772 83.901 28.1633 83.9319 27.9463 83.9492H27.9443C27.2943 84.0054 26.6454 84.0274 26.0039 84.0234L25.8066 84.0215L25.7197 84.2002L23.8604 88.0283C22.0198 87.8562 20.2336 87.478 18.5225 86.915L18.3545 82.667L18.3467 82.4688L18.165 82.3906L17.5674 82.123C16.9751 81.8457 16.397 81.5391 15.835 81.2051L15.6631 81.1025L15.498 81.2148L11.9756 83.6045C10.4914 82.5474 9.12358 81.3289 7.9082 79.9668L9.88867 76.2041L9.98145 76.0283L9.8623 75.8701C9.34071 75.1737 8.86228 74.4432 8.43066 73.6807L8.33301 73.5078L8.13477 73.5225L3.88379 73.8301C3.13726 72.1985 2.56785 70.462 2.18848 68.6484L5.79199 66.376L5.96191 66.2686L5.93555 66.0693C5.9054 65.8412 5.87679 65.625 5.85742 65.4043C5.80123 64.7547 5.78121 64.1086 5.78516 63.4639L5.78613 63.2656L5.60742 63.1787L1.77832 61.3252C1.95018 59.4816 2.32538 57.6941 2.88965 55.9824L7.13965 55.8164L7.33789 55.8086L7.41602 55.626C7.75921 54.8232 8.15866 54.0472 8.60254 53.2979L8.7041 53.126L8.5918 52.9609L6.19922 49.4375C7.25525 47.9513 8.47575 46.5874 9.83594 45.3701L13.6016 47.3506L13.7783 47.4434L13.9375 47.3232C14.6287 46.8007 15.3623 46.3224 16.124 45.8916L16.2969 45.7939L16.2822 45.5957L15.9717 41.3438C17.6054 40.5968 19.3412 40.0252 21.1572 39.6465L23.4297 43.25L23.5361 43.418L23.7334 43.3945C23.9614 43.3671 24.1795 43.3378 24.4023 43.3184C25.057 43.263 25.7004 43.2382 26.3418 43.2441L26.54 43.2461L26.627 43.0664L28.4805 39.2363ZM25.7969 53.0898L25.2549 53.124C19.632 53.6118 15.4265 58.4298 15.626 64.0078L15.6592 64.5498C16.1557 70.2377 21.085 74.4777 26.7471 74.1641V74.1738L27.0889 74.1445C32.8929 73.6399 37.186 68.5225 36.6816 62.7158C36.1947 57.0951 31.3768 52.8859 25.7969 53.0898Z" fill="url(#paint0_linear_44027_13297)" stroke="white" stroke-width="0.627777"/>
<path d="M61.6377 65.0225C62.826 64.8908 64.0197 64.879 65.2031 64.9795L65.9746 67.918L66.0254 68.1133L66.2246 68.1475C67.0465 68.291 67.8575 68.4993 68.6475 68.7725L68.8389 68.8389L68.9785 68.6914L71.0635 66.4863C72.151 66.9684 73.1921 67.5527 74.1768 68.2393L73.374 71.1592L73.3203 71.3545L73.4756 71.4834C74.1129 72.0137 74.7108 72.6017 75.2666 73.2432L75.3994 73.3965L75.5938 73.3379L78.498 72.4697C78.8489 72.9488 79.1788 73.444 79.4824 73.96L79.4834 73.9609C79.7907 74.479 80.0681 75.0087 80.3184 75.5449L78.1611 77.6738L78.0176 77.8154L78.0869 78.0049C78.3774 78.7997 78.6063 79.6114 78.7695 80.4238L78.8086 80.6201L79.0039 80.667L81.9463 81.3701C82.0729 82.5633 82.0836 83.7548 81.9824 84.9395L79.0488 85.707L78.8535 85.7588L78.8193 85.958C78.6779 86.7818 78.4669 87.5908 78.1953 88.3779L78.1289 88.5684L78.2754 88.708L80.4795 90.7979C80.0037 91.8818 79.4178 92.9236 78.7305 93.9072L75.8096 93.1064L75.6152 93.0537L75.4854 93.208C74.9557 93.8429 74.3679 94.4432 73.7285 94.999L73.5762 95.1318L73.6338 95.3252L74.498 98.2295C74.0192 98.58 73.5271 98.9107 73.0088 99.2168H73.0078C72.4907 99.5241 71.9627 99.8008 71.4307 100.048L69.292 97.8896L69.1504 97.7461L68.96 97.8164C68.1658 98.1106 67.3603 98.3401 66.5469 98.4971L66.3477 98.5352L66.3008 98.7324L65.5996 101.678C64.4086 101.805 63.2128 101.814 62.0303 101.715L61.2627 98.7793L61.2109 98.583L61.0117 98.5488L60.3945 98.4307C59.7821 98.3005 59.1817 98.1331 58.5879 97.9268L58.3965 97.8604L58.2568 98.0068L56.165 100.21C55.083 99.7343 54.0447 99.1466 53.0615 98.4609L53.8613 95.5381L53.9141 95.3438L53.7598 95.2148C53.1255 94.6848 52.523 94.0967 51.9697 93.459L51.8369 93.3057L51.6426 93.3633L48.7344 94.2285C48.3865 93.7526 48.0564 93.2553 47.749 92.7354L47.748 92.7334C47.4405 92.2199 47.1661 91.6927 46.917 91.1562L49.0732 89.0283L49.2168 88.8867L49.1475 88.6973C48.857 87.8996 48.6298 87.0933 48.4717 86.2783L48.4336 86.0791L48.2363 86.0322L45.2881 85.3311C45.1605 84.1391 45.1481 82.9445 45.251 81.7617L48.1865 80.9922L48.3809 80.9414L48.416 80.7432C48.5609 79.9194 48.7634 79.1082 49.0361 78.3184L49.1025 78.127L48.9551 77.9873L46.751 75.8994C47.2323 74.814 47.8169 73.7731 48.5039 72.792L51.4238 73.5938L51.6182 73.6475L51.748 73.4922C52.2782 72.856 52.8667 72.2586 53.5059 71.7012L53.6582 71.5684L53.6006 71.375L52.7363 68.4658C53.2141 68.1184 53.7104 67.7885 54.2266 67.4844L54.2285 67.4834C54.7436 67.1756 55.2757 66.9009 55.8105 66.6523L57.9414 68.8096L58.084 68.9531L58.2744 68.8828C59.0674 68.5876 59.8712 68.3591 60.6826 68.2021L60.8809 68.1631L60.9277 67.9668L61.6377 65.0225ZM70.0029 79.3896C67.896 75.8354 63.2732 74.6791 59.7393 76.8672C56.4182 78.9225 55.2694 83.3928 57.1895 86.793C59.2356 90.4099 63.8384 91.6324 67.4014 89.5264H67.4023C70.9188 87.4453 72.0836 82.9064 70.0039 79.3896H70.0029Z" fill="url(#paint1_linear_44027_13297)" stroke="white" stroke-width="0.627777"/>
<line y1="-0.313888" x2="14.3081" y2="-0.313888" transform="matrix(-0.291208 -0.95666 0.956656 -0.29122 56.293 61.3457)" stroke="white" stroke-width="0.627777"/>
<line y1="-0.313888" x2="26.7841" y2="-0.313888" transform="matrix(-0.886091 -0.463511 0.463484 -0.886105 76.5859 61.166)" stroke="white" stroke-width="0.627777"/>
<path d="M76.7228 44.351L52.8561 47.4941" stroke="white" stroke-width="0.627777"/>
<path d="M73.666 26.2948L52.355 46.4775" stroke="white" stroke-width="0.627777"/>
<line y1="-0.313888" x2="28.2458" y2="-0.313888" transform="matrix(0.884002 -0.467484 0.467468 0.88401 27.1602 60.1309)" stroke="white" stroke-width="0.627777"/>
<line y1="-0.313888" x2="31.3969" y2="-0.313888" transform="matrix(0.769462 0.638692 -0.638675 0.769476 27.9688 26.1426)" stroke="white" stroke-width="0.627777"/>
<path d="M51.4347 27.1536L52.3286 46.211" stroke="white" stroke-width="0.627777"/>
<g filter="url(#filter1_f_44027_13297)">
<path d="M52.1269 53.1116C55.5431 53.1116 58.3125 50.3422 58.3125 46.9259C58.3125 43.5097 55.5431 40.7402 52.1269 40.7402C48.7108 40.7402 45.9414 43.5097 45.9414 46.9259C45.9414 50.3422 48.7108 53.1116 52.1269 53.1116Z" fill="url(#paint2_linear_44027_13297)"/>
</g>
<ellipse cx="52.1269" cy="46.9259" rx="6.18554" ry="6.18567" fill="#06DF72"/>
<g filter="url(#filter2_f_44027_13297)">
<path d="M28.1573 30.5687C30.4965 30.5687 32.3927 28.6724 32.3927 26.3332C32.3927 23.994 30.4965 22.0977 28.1573 22.0977C25.8181 22.0977 23.9219 23.994 23.9219 26.3332C23.9219 28.6724 25.8181 30.5687 28.1573 30.5687Z" fill="url(#paint3_linear_44027_13297)"/>
</g>
<ellipse cx="28.1573" cy="26.3332" rx="4.23542" ry="4.23552" fill="white"/>
<g filter="url(#filter3_f_44027_13297)">
<path d="M51.2198 30.5687C53.559 30.5687 55.4552 28.6724 55.4552 26.3332C55.4552 23.994 53.559 22.0977 51.2198 22.0977C48.8806 22.0977 46.9844 23.994 46.9844 26.3332C46.9844 28.6724 48.8806 30.5687 51.2198 30.5687Z" fill="url(#paint4_linear_44027_13297)"/>
</g>
<ellipse cx="51.2198" cy="26.3332" rx="4.23542" ry="4.23552" fill="white"/>
<g filter="url(#filter4_f_44027_13297)">
<path d="M56.4776 65.7699C58.8168 65.7699 60.713 63.8736 60.713 61.5343C60.713 59.1951 58.8168 57.2988 56.4776 57.2988C54.1385 57.2988 52.2422 59.1951 52.2422 61.5343C52.2422 63.8736 54.1385 65.7699 56.4776 65.7699Z" fill="url(#paint5_linear_44027_13297)"/>
</g>
<ellipse cx="56.4776" cy="61.5343" rx="4.23542" ry="4.23552" fill="white"/>
<g filter="url(#filter5_f_44027_13297)">
<path d="M74.2823 30.5687C76.6215 30.5687 78.5177 28.6724 78.5177 26.3332C78.5177 23.994 76.6215 22.0977 74.2823 22.0977C71.9431 22.0977 70.0469 23.994 70.0469 26.3332C70.0469 28.6724 71.9431 30.5687 74.2823 30.5687Z" fill="url(#paint6_linear_44027_13297)"/>
</g>
<ellipse cx="74.2823" cy="26.3332" rx="4.23542" ry="4.23552" fill="white"/>
<g filter="url(#filter6_f_44027_13297)">
<path d="M76.712 48.3714C79.0511 48.3714 80.9474 46.4751 80.9474 44.1359C80.9474 41.7967 79.0511 39.9004 76.712 39.9004C74.3728 39.9004 72.4766 41.7967 72.4766 44.1359C72.4766 46.4751 74.3728 48.3714 76.712 48.3714Z" fill="url(#paint7_linear_44027_13297)"/>
</g>
<ellipse cx="76.712" cy="44.1359" rx="4.23542" ry="4.23552" fill="white"/>
<g filter="url(#filter7_f_44027_13297)">
<path d="M26.5401 64.555C28.8793 64.555 30.7755 62.6587 30.7755 60.3195C30.7755 57.9803 28.8793 56.084 26.5401 56.084C24.201 56.084 22.3047 57.9803 22.3047 60.3195C22.3047 62.6587 24.201 64.555 26.5401 64.555Z" fill="url(#paint8_linear_44027_13297)"/>
</g>
<ellipse cx="26.5401" cy="60.3195" rx="4.23542" ry="4.23552" fill="white"/>
<g filter="url(#filter8_f_44027_13297)">
<path d="M77.8995 66.1742C80.2386 66.1742 82.1349 64.2779 82.1349 61.9386C82.1349 59.5994 80.2386 57.7031 77.8995 57.7031C75.5603 57.7031 73.6641 59.5994 73.6641 61.9386C73.6641 64.2779 75.5603 66.1742 77.8995 66.1742Z" fill="url(#paint9_linear_44027_13297)"/>
</g>
<ellipse cx="77.8995" cy="61.9386" rx="4.23542" ry="4.23552" fill="white"/>
<defs>
<filter id="filter1_f_44027_13297" x="23.8494" y="18.6482" width="56.5552" height="56.5552" filterUnits="userSpaceOnUse" color-interpolation-filters="sRGB">
<feFlood flood-opacity="0" result="BackgroundImageFix"/>
<feBlend mode="normal" in="SourceGraphic" in2="BackgroundImageFix" result="shape"/>
<feGaussianBlur stdDeviation="11.046" result="effect1_foregroundBlur_44027_13297"/>
</filter>
<filter id="filter2_f_44027_13297" x="1.82983" y="0.00561142" width="52.6567" height="52.6548" filterUnits="userSpaceOnUse" color-interpolation-filters="sRGB">
<feFlood flood-opacity="0" result="BackgroundImageFix"/>
<feBlend mode="normal" in="SourceGraphic" in2="BackgroundImageFix" result="shape"/>
<feGaussianBlur stdDeviation="11.046" result="effect1_foregroundBlur_44027_13297"/>
</filter>
<filter id="filter3_f_44027_13297" x="24.8923" y="0.00561142" width="52.6567" height="52.6548" filterUnits="userSpaceOnUse" color-interpolation-filters="sRGB">
<feFlood flood-opacity="0" result="BackgroundImageFix"/>
<feBlend mode="normal" in="SourceGraphic" in2="BackgroundImageFix" result="shape"/>
<feGaussianBlur stdDeviation="11.046" result="effect1_foregroundBlur_44027_13297"/>
</filter>
<filter id="filter4_f_44027_13297" x="30.1501" y="35.2068" width="52.6567" height="52.6548" filterUnits="userSpaceOnUse" color-interpolation-filters="sRGB">
<feFlood flood-opacity="0" result="BackgroundImageFix"/>
<feBlend mode="normal" in="SourceGraphic" in2="BackgroundImageFix" result="shape"/>
<feGaussianBlur stdDeviation="11.046" result="effect1_foregroundBlur_44027_13297"/>
</filter>
<filter id="filter5_f_44027_13297" x="47.9548" y="0.00561142" width="52.6567" height="52.6548" filterUnits="userSpaceOnUse" color-interpolation-filters="sRGB">
<feFlood flood-opacity="0" result="BackgroundImageFix"/>
<feBlend mode="normal" in="SourceGraphic" in2="BackgroundImageFix" result="shape"/>
<feGaussianBlur stdDeviation="11.046" result="effect1_foregroundBlur_44027_13297"/>
</filter>
<filter id="filter6_f_44027_13297" x="50.3845" y="17.8083" width="52.6567" height="52.6548" filterUnits="userSpaceOnUse" color-interpolation-filters="sRGB">
<feFlood flood-opacity="0" result="BackgroundImageFix"/>
<feBlend mode="normal" in="SourceGraphic" in2="BackgroundImageFix" result="shape"/>
<feGaussianBlur stdDeviation="11.046" result="effect1_foregroundBlur_44027_13297"/>
</filter>
<filter id="filter7_f_44027_13297" x="0.212643" y="33.9919" width="52.6567" height="52.6548" filterUnits="userSpaceOnUse" color-interpolation-filters="sRGB">
<feFlood flood-opacity="0" result="BackgroundImageFix"/>
<feBlend mode="normal" in="SourceGraphic" in2="BackgroundImageFix" result="shape"/>
<feGaussianBlur stdDeviation="11.046" result="effect1_foregroundBlur_44027_13297"/>
</filter>
<filter id="filter8_f_44027_13297" x="51.572" y="35.6111" width="52.6567" height="52.6548" filterUnits="userSpaceOnUse" color-interpolation-filters="sRGB">
<feFlood flood-opacity="0" result="BackgroundImageFix"/>
<feBlend mode="normal" in="SourceGraphic" in2="BackgroundImageFix" result="shape"/>
<feGaussianBlur stdDeviation="11.046" result="effect1_foregroundBlur_44027_13297"/>
</filter>
<linearGradient id="paint0_linear_44027_13297" x1="26.1717" y1="38.0534" x2="26.1717" y2="88.3627" gradientUnits="userSpaceOnUse">
<stop stop-color="white" stop-opacity="0.3"/>
<stop offset="1" stop-color="white" stop-opacity="0.6"/>
</linearGradient>
<linearGradient id="paint1_linear_44027_13297" x1="63.6172" y1="63.954" x2="63.6172" y2="102.098" gradientUnits="userSpaceOnUse">
<stop stop-color="white" stop-opacity="0.3"/>
<stop offset="1" stop-color="white" stop-opacity="0.6"/>
</linearGradient>
<linearGradient id="paint2_linear_44027_13297" x1="46.4036" y1="48.091" x2="75.7089" y2="42.1318" gradientUnits="userSpaceOnUse">
<stop stop-color="#07D46E"/>
<stop offset="1" stop-color="#D6B9FA"/>
</linearGradient>
<linearGradient id="paint3_linear_44027_13297" x1="24.2383" y1="27.131" x2="44.3046" y2="23.0505" gradientUnits="userSpaceOnUse">
<stop stop-color="#694AFF"/>
<stop offset="0.51" stop-color="#BBBCFA"/>
<stop offset="1" stop-color="#D6B9FA"/>
</linearGradient>
<linearGradient id="paint4_linear_44027_13297" x1="47.3008" y1="27.131" x2="67.3671" y2="23.0505" gradientUnits="userSpaceOnUse">
<stop stop-color="#694AFF"/>
<stop offset="0.51" stop-color="#BBBCFA"/>
<stop offset="1" stop-color="#D6B9FA"/>
</linearGradient>
<linearGradient id="paint5_linear_44027_13297" x1="52.5586" y1="62.3321" x2="72.6249" y2="58.2517" gradientUnits="userSpaceOnUse">
<stop stop-color="#694AFF"/>
<stop offset="0.51" stop-color="#BBBCFA"/>
<stop offset="1" stop-color="#D6B9FA"/>
</linearGradient>
<linearGradient id="paint6_linear_44027_13297" x1="70.3633" y1="27.131" x2="90.4296" y2="23.0505" gradientUnits="userSpaceOnUse">
<stop stop-color="#694AFF"/>
<stop offset="0.51" stop-color="#BBBCFA"/>
<stop offset="1" stop-color="#D6B9FA"/>
</linearGradient>
<linearGradient id="paint7_linear_44027_13297" x1="72.793" y1="44.9337" x2="92.8593" y2="40.8533" gradientUnits="userSpaceOnUse">
<stop stop-color="#694AFF"/>
<stop offset="0.51" stop-color="#BBBCFA"/>
<stop offset="1" stop-color="#D6B9FA"/>
</linearGradient>
<linearGradient id="paint8_linear_44027_13297" x1="22.6211" y1="61.1173" x2="42.6874" y2="57.0369" gradientUnits="userSpaceOnUse">
<stop stop-color="#694AFF"/>
<stop offset="0.51" stop-color="#BBBCFA"/>
<stop offset="1" stop-color="#D6B9FA"/>
</linearGradient>
<linearGradient id="paint9_linear_44027_13297" x1="73.9805" y1="62.7364" x2="94.0468" y2="58.656" gradientUnits="userSpaceOnUse">
<stop stop-color="#694AFF"/>
<stop offset="0.51" stop-color="#BBBCFA"/>
<stop offset="1" stop-color="#D6B9FA"/>
</linearGradient>
</defs>
</svg>
