<svg width="252" height="249" viewBox="0 0 252 249" fill="none" xmlns="http://www.w3.org/2000/svg">
<path d="M126.524 170.071C172.383 170.071 209.559 132.895 209.559 87.0356C209.559 41.1763 172.383 4 126.524 4C80.6646 4 43.4883 41.1763 43.4883 87.0356C43.4883 132.895 80.6646 170.071 126.524 170.071Z" fill="url(#paint0_linear_44027_13556)" stroke="#BBBCFA" stroke-miterlimit="10"/>
<path d="M26.3438 218.559V244.169" stroke="#BBBCFA" stroke-width="3" stroke-miterlimit="10" stroke-linecap="round" stroke-linejoin="round"/>
<path d="M26.3438 112.93V207.17" stroke="#BBBCFA" stroke-width="3" stroke-miterlimit="10" stroke-linecap="round" stroke-linejoin="round"/>
<path d="M37.1533 207.318H15.6641V218.065H37.1533V207.318Z" fill="#BBBCFA" stroke="#BBBCFA" stroke-width="3" stroke-miterlimit="10" stroke-linecap="round" stroke-linejoin="round"/>
<path d="M226.707 176.646V244.169" stroke="#BBBCFA" stroke-width="3" stroke-miterlimit="10" stroke-linecap="round" stroke-linejoin="round"/>
<path d="M226.707 112.93V166.013" stroke="#BBBCFA" stroke-width="3" stroke-miterlimit="10" stroke-linecap="round" stroke-linejoin="round"/>
<path d="M237.306 166.076H215.816V176.823H237.306V166.076Z" fill="#BBBCFA" stroke="#BBBCFA" stroke-width="3" stroke-miterlimit="10" stroke-linecap="round" stroke-linejoin="round"/>
<path d="M59.7617 197.201V244.171" stroke="#BBBCFA" stroke-width="3" stroke-miterlimit="10" stroke-linecap="round" stroke-linejoin="round"/>
<path d="M59.7617 148.176V186.213" stroke="#BBBCFA" stroke-width="3" stroke-miterlimit="10" stroke-linecap="round" stroke-linejoin="round"/>
<path d="M70.5127 186.324H49.0234V197.071H70.5127V186.324Z" fill="#BBBCFA" stroke="#BBBCFA" stroke-width="3" stroke-miterlimit="10" stroke-linecap="round" stroke-linejoin="round"/>
<path d="M93.3477 209.814V244.17" stroke="#BBBCFA" stroke-width="3" stroke-miterlimit="10" stroke-linecap="round" stroke-linejoin="round"/>
<path d="M93.3477 174.375V199.03" stroke="#BBBCFA" stroke-width="3" stroke-miterlimit="10" stroke-linecap="round" stroke-linejoin="round"/>
<path d="M103.872 199.141H82.3828V209.887H103.872V199.141Z" fill="#BBBCFA" stroke="#BBBCFA" stroke-width="3" stroke-miterlimit="10" stroke-linecap="round" stroke-linejoin="round"/>
<path d="M159.664 204.148V244.171" stroke="#BBBCFA" stroke-width="3" stroke-miterlimit="10" stroke-linecap="round" stroke-linejoin="round"/>
<path d="M159.664 174.375V193.317" stroke="#BBBCFA" stroke-width="3" stroke-miterlimit="10" stroke-linecap="round" stroke-linejoin="round"/>
<path d="M170.587 193.395H149.098V204.141H170.587V193.395Z" fill="#BBBCFA" stroke="#BBBCFA" stroke-width="3" stroke-miterlimit="10" stroke-linecap="round" stroke-linejoin="round"/>
<path d="M193.172 232.389V244.17" stroke="#BBBCFA" stroke-width="3" stroke-miterlimit="10" stroke-linecap="round" stroke-linejoin="round"/>
<path d="M193.172 148.176V221.515" stroke="#BBBCFA" stroke-width="3" stroke-miterlimit="10" stroke-linecap="round" stroke-linejoin="round"/>
<path d="M203.946 221.521H182.457V232.268H203.946V221.521Z" fill="#BBBCFA" stroke="#BBBCFA" stroke-width="3" stroke-miterlimit="10" stroke-linecap="round" stroke-linejoin="round"/>
<path d="M126.34 232.332V244.171" stroke="#BBBCFA" stroke-width="3" stroke-miterlimit="10" stroke-linecap="round" stroke-linejoin="round"/>
<path d="M126.34 185.699V221.574" stroke="#BBBCFA" stroke-width="3" stroke-miterlimit="10" stroke-linecap="round" stroke-linejoin="round"/>
<path d="M137.228 221.521H115.738V232.268H137.228V221.521Z" fill="#BBBCFA" stroke="#BBBCFA" stroke-width="3" stroke-miterlimit="10" stroke-linecap="round" stroke-linejoin="round"/>
<mask id="path-23-outside-1_44027_13556" maskUnits="userSpaceOnUse" x="102.566" y="44.3125" width="48" height="84" fill="black">
<rect fill="white" x="102.566" y="44.3125" width="48" height="84"/>
<path d="M123.985 57.1786V45.4086H129.782V57.1786H123.985ZM129.782 116.556V127.887H123.985V116.556H129.782ZM128.552 119.103C121.174 119.103 115.289 117.288 110.897 113.657C106.564 110.027 104.017 104.844 103.256 98.1102H110.282C110.927 102.97 112.771 106.63 115.816 109.09C118.861 111.549 123.077 112.779 128.464 112.779C133.032 112.779 136.458 111.93 138.741 110.232C141.084 108.475 142.255 105.928 142.255 102.59C142.255 99.7205 141.464 97.4368 139.883 95.7386C138.302 94.0405 135.843 92.6351 132.505 91.5225L121.877 87.8334C116.489 85.9596 112.508 83.7051 109.931 81.07C107.355 78.3764 106.066 74.9801 106.066 70.8811C106.066 67.4847 106.915 64.5569 108.614 62.0975C110.312 59.5795 112.713 57.6178 115.816 56.2124C118.92 54.8071 122.521 54.1044 126.62 54.1044C132.944 54.1044 138.009 55.7733 141.816 59.111C145.622 62.3902 147.818 67.0748 148.403 73.1648H141.376C140.615 68.773 139.034 65.5523 136.633 63.5028C134.291 61.4533 130.895 60.4286 126.444 60.4286C122.228 60.4286 118.949 61.2776 116.607 62.9758C114.264 64.674 113.093 67.0748 113.093 70.1784C113.093 72.8134 113.913 74.9215 115.553 76.5026C117.192 78.0836 119.739 79.4597 123.194 80.6309L134.525 84.5835C139.444 86.2816 143.133 88.5946 145.592 91.5225C148.052 94.3918 149.282 98.0517 149.282 102.502C149.282 107.772 147.466 111.871 143.836 114.799C140.264 117.668 135.169 119.103 128.552 119.103Z"/>
</mask>
<path d="M123.985 57.1786V45.4086H129.782V57.1786H123.985ZM129.782 116.556V127.887H123.985V116.556H129.782ZM128.552 119.103C121.174 119.103 115.289 117.288 110.897 113.657C106.564 110.027 104.017 104.844 103.256 98.1102H110.282C110.927 102.97 112.771 106.63 115.816 109.09C118.861 111.549 123.077 112.779 128.464 112.779C133.032 112.779 136.458 111.93 138.741 110.232C141.084 108.475 142.255 105.928 142.255 102.59C142.255 99.7205 141.464 97.4368 139.883 95.7386C138.302 94.0405 135.843 92.6351 132.505 91.5225L121.877 87.8334C116.489 85.9596 112.508 83.7051 109.931 81.07C107.355 78.3764 106.066 74.9801 106.066 70.8811C106.066 67.4847 106.915 64.5569 108.614 62.0975C110.312 59.5795 112.713 57.6178 115.816 56.2124C118.92 54.8071 122.521 54.1044 126.62 54.1044C132.944 54.1044 138.009 55.7733 141.816 59.111C145.622 62.3902 147.818 67.0748 148.403 73.1648H141.376C140.615 68.773 139.034 65.5523 136.633 63.5028C134.291 61.4533 130.895 60.4286 126.444 60.4286C122.228 60.4286 118.949 61.2776 116.607 62.9758C114.264 64.674 113.093 67.0748 113.093 70.1784C113.093 72.8134 113.913 74.9215 115.553 76.5026C117.192 78.0836 119.739 79.4597 123.194 80.6309L134.525 84.5835C139.444 86.2816 143.133 88.5946 145.592 91.5225C148.052 94.3918 149.282 98.0517 149.282 102.502C149.282 107.772 147.466 111.871 143.836 114.799C140.264 117.668 135.169 119.103 128.552 119.103Z" fill="#BBBCFA"/>
<path d="M123.985 57.1786H123.603V57.5605H123.985V57.1786ZM123.985 45.4086V45.0267H123.603V45.4086H123.985ZM129.782 45.4086H130.164V45.0267H129.782V45.4086ZM129.782 57.1786V57.5605H130.164V57.1786H129.782ZM129.782 116.556H130.164V116.174H129.782V116.556ZM129.782 127.887V128.269H130.164V127.887H129.782ZM123.985 127.887H123.603V128.269H123.985V127.887ZM123.985 116.556V116.174H123.603V116.556H123.985ZM110.897 113.657L110.652 113.95L110.654 113.952L110.897 113.657ZM103.256 98.1102V97.7283H102.828L102.876 98.1531L103.256 98.1102ZM110.282 98.1102L110.661 98.06L110.617 97.7283H110.282V98.1102ZM115.816 109.09L115.576 109.387L115.816 109.09ZM138.741 110.232L138.969 110.538L138.97 110.537L138.741 110.232ZM139.883 95.7386L139.604 95.9989L139.883 95.7386ZM132.505 91.5225L132.38 91.8833L132.384 91.8848L132.505 91.5225ZM121.877 87.8334L121.751 88.1941L121.752 88.1942L121.877 87.8334ZM109.931 81.07L109.655 81.334L109.658 81.337L109.931 81.07ZM108.614 62.0975L108.928 62.3145L108.93 62.311L108.614 62.0975ZM141.816 59.111L141.564 59.3982L141.566 59.4004L141.816 59.111ZM148.403 73.1648V73.5467H148.824L148.783 73.1282L148.403 73.1648ZM141.376 73.1648L141 73.23L141.055 73.5467H141.376V73.1648ZM136.633 63.5028L136.382 63.7903L136.385 63.7933L136.633 63.5028ZM116.607 62.9758L116.382 62.6666L116.607 62.9758ZM115.553 76.5026L115.287 76.7775L115.553 76.5026ZM123.194 80.6309L123.32 80.2703L123.317 80.2692L123.194 80.6309ZM134.525 84.5835L134.399 84.9441L134.401 84.9445L134.525 84.5835ZM145.592 91.5225L145.3 91.7682L145.303 91.7711L145.592 91.5225ZM143.836 114.799L144.075 115.097L144.075 115.096L143.836 114.799ZM123.985 57.1786H124.367V45.4086H123.985H123.603V57.1786H123.985ZM123.985 45.4086V45.7905H129.782V45.4086V45.0267H123.985V45.4086ZM129.782 45.4086H129.4V57.1786H129.782H130.164V45.4086H129.782ZM129.782 57.1786V56.7967H123.985V57.1786V57.5605H129.782V57.1786ZM129.782 116.556H129.4V127.887H129.782H130.164V116.556H129.782ZM129.782 127.887V127.505H123.985V127.887V128.269H129.782V127.887ZM123.985 127.887H124.367V116.556H123.985H123.603V127.887H123.985ZM123.985 116.556V116.938H129.782V116.556V116.174H123.985V116.556ZM128.552 119.103V118.721C121.236 118.721 115.446 116.922 111.141 113.363L110.897 113.657L110.654 113.952C115.132 117.654 121.112 119.485 128.552 119.485V119.103ZM110.897 113.657L111.143 113.364C106.899 109.809 104.388 104.725 103.635 98.0673L103.256 98.1102L102.876 98.1531C103.646 104.964 106.229 110.244 110.652 113.95L110.897 113.657ZM103.256 98.1102V98.4921H110.282V98.1102V97.7283H103.256V98.1102ZM110.282 98.1102L109.904 98.1604C110.557 103.092 112.437 106.851 115.576 109.387L115.816 109.09L116.056 108.793C113.105 106.409 111.296 102.849 110.661 98.06L110.282 98.1102ZM115.816 109.09L115.576 109.387C118.711 111.919 123.022 113.161 128.464 113.161V112.779V112.397C123.132 112.397 119.011 111.18 116.056 108.793L115.816 109.09ZM128.464 112.779V113.161C133.068 113.161 136.59 112.307 138.969 110.538L138.741 110.232L138.513 109.925C136.325 111.553 132.996 112.397 128.464 112.397V112.779ZM138.741 110.232L138.97 110.537C141.423 108.697 142.637 106.029 142.637 102.59H142.255H141.873C141.873 105.827 140.744 108.252 138.512 109.926L138.741 110.232ZM142.255 102.59H142.637C142.637 99.6479 141.824 97.263 140.163 95.4784L139.883 95.7386L139.604 95.9989C141.104 97.6106 141.873 99.7932 141.873 102.59H142.255ZM139.883 95.7386L140.163 95.4784C138.521 93.7155 135.995 92.2834 132.626 91.1602L132.505 91.5225L132.384 91.8848C135.69 92.9868 138.083 94.3655 139.604 95.9989L139.883 95.7386ZM132.505 91.5225L132.63 91.1617L122.002 87.4726L121.877 87.8334L121.752 88.1942L132.38 91.8833L132.505 91.5225ZM121.877 87.8334L122.002 87.4727C116.643 85.6087 112.723 83.379 110.204 80.803L109.931 81.07L109.658 81.337C112.292 84.0312 116.336 86.3105 121.751 88.1941L121.877 87.8334ZM109.931 81.07L110.207 80.8061C107.706 78.1909 106.448 74.8924 106.448 70.8811H106.066H105.684C105.684 75.0677 107.004 78.5619 109.655 81.334L109.931 81.07ZM106.066 70.8811H106.448C106.448 67.5513 107.279 64.7016 108.928 62.3144L108.614 62.0975L108.299 61.8805C106.551 64.4121 105.684 67.4182 105.684 70.8811H106.066ZM108.614 62.0975L108.93 62.311C110.584 59.8586 112.926 57.9402 115.974 56.5603L115.816 56.2124L115.659 55.8646C112.499 57.2955 110.039 59.3004 108.297 61.8839L108.614 62.0975ZM115.816 56.2124L115.974 56.5603C119.019 55.1814 122.564 54.4863 126.62 54.4863V54.1044V53.7225C122.477 53.7225 118.821 54.4327 115.659 55.8646L115.816 56.2124ZM126.62 54.1044V54.4863C132.875 54.4863 137.843 56.1356 141.564 59.3982L141.816 59.111L142.067 58.8239C138.175 55.4109 133.013 53.7225 126.62 53.7225V54.1044ZM141.816 59.111L141.566 59.4004C145.282 62.6019 147.445 67.1868 148.023 73.2013L148.403 73.1648L148.783 73.1282C148.191 66.9629 145.961 62.1786 142.065 58.8217L141.816 59.111ZM148.403 73.1648V72.7829H141.376V73.1648V73.5467H148.403V73.1648ZM141.376 73.1648L141.753 73.0996C140.982 68.6556 139.373 65.3395 136.881 63.2124L136.633 63.5028L136.385 63.7933C138.695 65.7652 140.248 68.8903 141 73.23L141.376 73.1648ZM136.633 63.5028L136.885 63.2154C134.448 61.0833 130.948 60.0467 126.444 60.0467V60.4286V60.8105C130.841 60.8105 134.134 61.8233 136.382 63.7902L136.633 63.5028ZM126.444 60.4286V60.0467C122.183 60.0467 118.814 60.904 116.382 62.6666L116.607 62.9758L116.831 63.285C119.084 61.6513 122.273 60.8105 126.444 60.8105V60.4286ZM116.607 62.9758L116.382 62.6666C113.933 64.4425 112.711 66.9629 112.711 70.1784H113.093H113.475C113.475 67.1868 114.596 64.9054 116.831 63.285L116.607 62.9758ZM113.093 70.1784H112.711C112.711 72.8994 113.561 75.113 115.287 76.7775L115.553 76.5026L115.818 76.2277C114.265 74.73 113.475 72.7275 113.475 70.1784H113.093ZM115.553 76.5026L115.287 76.7775C116.985 78.4141 119.592 79.813 123.072 80.9925L123.194 80.6309L123.317 80.2692C119.887 79.1064 117.4 77.7531 115.818 76.2277L115.553 76.5026ZM123.194 80.6309L123.069 80.9914L134.399 84.9441L134.525 84.5835L134.651 84.2229L123.32 80.2703L123.194 80.6309ZM134.525 84.5835L134.401 84.9445C139.277 86.6279 142.898 88.909 145.3 91.7682L145.592 91.5225L145.885 91.2769C143.368 88.2803 139.611 85.9354 134.65 84.2225L134.525 84.5835ZM145.592 91.5225L145.303 91.7711C147.692 94.5592 148.9 98.1258 148.9 102.502H149.282H149.663C149.663 97.9775 148.411 94.2244 145.882 91.274L145.592 91.5225ZM149.282 102.502H148.9C148.9 107.674 147.124 111.656 143.596 114.502L143.836 114.799L144.075 115.096C147.808 112.086 149.663 107.871 149.663 102.502H149.282ZM143.836 114.799L143.597 114.501C140.117 117.297 135.12 118.721 128.552 118.721V119.103V119.485C135.219 119.485 140.411 118.04 144.075 115.097L143.836 114.799Z" fill="#BBBCFA" mask="url(#path-23-outside-1_44027_13556)"/>
<defs>
<linearGradient id="paint0_linear_44027_13556" x1="126.524" y1="1.14945" x2="126.524" y2="170.071" gradientUnits="userSpaceOnUse">
<stop stop-color="white" stop-opacity="0.3"/>
<stop offset="1" stop-color="white" stop-opacity="0.6"/>
</linearGradient>
</defs>
</svg>
