<svg width="80" height="82" viewBox="0 0 80 82" fill="none" xmlns="http://www.w3.org/2000/svg">
<mask id="path-1-inside-1_44027_13330" fill="white">
<path d="M42.1387 0.261719C45.7015 0.261839 48.5896 3.15004 48.5898 6.71289C48.5898 7.23359 48.5256 7.73964 48.4092 8.22461C64.3238 12.1816 76.1182 26.5642 76.1182 43.7031C76.118 63.894 59.7495 80.2617 39.5586 80.2617C19.3679 80.2615 3.00015 63.8938 3 43.7031C3 26.5655 14.7924 12.1839 30.7051 8.22559C30.5885 7.74043 30.5254 7.2338 30.5254 6.71289C30.5256 3.14997 33.4146 0.261719 36.9775 0.261719H42.1387Z"/>
</mask>
<path d="M42.1387 0.261719C45.7015 0.261839 48.5896 3.15004 48.5898 6.71289C48.5898 7.23359 48.5256 7.73964 48.4092 8.22461C64.3238 12.1816 76.1182 26.5642 76.1182 43.7031C76.118 63.894 59.7495 80.2617 39.5586 80.2617C19.3679 80.2615 3.00015 63.8938 3 43.7031C3 26.5655 14.7924 12.1839 30.7051 8.22559C30.5885 7.74043 30.5254 7.2338 30.5254 6.71289C30.5256 3.14997 33.4146 0.261719 36.9775 0.261719H42.1387Z" fill="url(#paint0_linear_44027_13330)"/>
<path d="M42.1387 0.261719L42.1387 -0.738281H42.1387V0.261719ZM48.5898 6.71289H49.5898V6.71283L48.5898 6.71289ZM48.4092 8.22461L47.4368 7.99111L47.2052 8.9557L48.1679 9.19506L48.4092 8.22461ZM76.1182 43.7031L77.1182 43.7031V43.7031H76.1182ZM39.5586 80.2617L39.5586 81.2617H39.5586V80.2617ZM3 43.7031H2V43.7031L3 43.7031ZM30.7051 8.22559L30.9465 9.19601L31.9091 8.95655L31.6774 7.99199L30.7051 8.22559ZM30.5254 6.71289L29.5254 6.71283V6.71289H30.5254ZM42.1387 0.261719L42.1386 1.26172C45.1492 1.26182 47.5897 3.70231 47.5898 6.71295L48.5898 6.71289L49.5898 6.71283C49.5896 2.59777 46.2539 -0.738142 42.1387 -0.738281L42.1387 0.261719ZM48.5898 6.71289H47.5898C47.5898 7.15105 47.5358 7.57874 47.4368 7.99111L48.4092 8.22461L49.3815 8.45811C49.5154 7.90053 49.5898 7.31612 49.5898 6.71289H48.5898ZM48.4092 8.22461L48.1679 9.19506C63.6474 13.0439 75.1182 27.0344 75.1182 43.7031H76.1182H77.1182C77.1182 26.0939 65.0002 11.3194 48.6505 7.25416L48.4092 8.22461ZM76.1182 43.7031L75.1182 43.7031C75.118 63.3417 59.1972 79.2617 39.5586 79.2617V80.2617V81.2617C60.3017 81.2617 77.118 64.4463 77.1182 43.7031L76.1182 43.7031ZM39.5586 80.2617L39.5586 79.2617C19.9202 79.2615 4.00014 63.3416 4 43.7031L3 43.7031L2 43.7031C2.00015 64.4461 18.8156 81.2615 39.5586 81.2617L39.5586 80.2617ZM3 43.7031H4C4 27.0357 15.4688 13.0461 30.9465 9.19601L30.7051 8.22559L30.4637 7.25516C14.1159 11.3217 2 26.0953 2 43.7031H3ZM30.7051 8.22559L31.6774 7.99199C31.5787 7.58099 31.5254 7.15274 31.5254 6.71289H30.5254H29.5254C29.5254 7.31487 29.5984 7.89987 29.7327 8.45918L30.7051 8.22559ZM30.5254 6.71289L31.5254 6.71295C31.5256 3.7024 33.9667 1.26172 36.9775 1.26172V0.261719V-0.738281C32.8624 -0.738281 29.5257 2.59754 29.5254 6.71283L30.5254 6.71289ZM36.9775 0.261719V1.26172H42.1387V0.261719V-0.738281H36.9775V0.261719Z" fill="white" mask="url(#path-1-inside-1_44027_13330)"/>
<path d="M43.7034 50.5879L23.9987 21.5288" stroke="white" stroke-linecap="round"/>
<circle cx="39.561" cy="43.7016" r="6.45159" fill="white"/>
<path d="M18.4844 8.28906L25.9504 4.99432" stroke="white" stroke-width="3" stroke-linecap="round"/>
<path d="M60.7891 8.28906L53.323 4.99432" stroke="white" stroke-width="3" stroke-linecap="round"/>
<g filter="url(#filter1_d_44027_13330)">
<path d="M27.9343 17.541C17.8918 22.0087 10.8906 32.0515 10.8906 43.727C10.8906 59.5554 23.7568 72.3868 39.6283 72.3868C55.4998 72.3868 68.366 59.5554 68.366 43.727C68.366 32.0525 61.3648 22.0087 51.3223 17.541" stroke="#EE5000" stroke-width="3" stroke-linecap="round" stroke-linejoin="round" shape-rendering="crispEdges"/>
</g>
<defs>
<filter id="filter1_d_44027_13330" x="5.39062" y="12.041" width="68.4766" height="65.8457" filterUnits="userSpaceOnUse" color-interpolation-filters="sRGB">
<feFlood flood-opacity="0" result="BackgroundImageFix"/>
<feColorMatrix in="SourceAlpha" type="matrix" values="0 0 0 0 0 0 0 0 0 0 0 0 0 0 0 0 0 0 127 0" result="hardAlpha"/>
<feOffset/>
<feGaussianBlur stdDeviation="2"/>
<feComposite in2="hardAlpha" operator="out"/>
<feColorMatrix type="matrix" values="0 0 0 0 1 0 0 0 0 0.36 0 0 0 0 0 0 0 0 0.55 0"/>
<feBlend mode="normal" in2="BackgroundImageFix" result="effect1_dropShadow_44027_13330"/>
<feBlend mode="normal" in="SourceGraphic" in2="effect1_dropShadow_44027_13330" result="shape"/>
</filter>
<linearGradient id="paint0_linear_44027_13330" x1="39.5591" y1="1.55204" x2="39.5591" y2="80.2617" gradientUnits="userSpaceOnUse">
<stop stop-color="white" stop-opacity="0.2"/>
<stop offset="1" stop-color="white" stop-opacity="0.5"/>
</linearGradient>
</defs>
</svg>
