<svg width="80" height="82" viewBox="0 0 80 82" fill="none" xmlns="http://www.w3.org/2000/svg">
<mask id="path-1-inside-1_44027_13354" fill="white">
<path d="M42.1387 0.261719C45.7015 0.261839 48.5896 3.15004 48.5898 6.71289C48.5898 7.23359 48.5256 7.73964 48.4092 8.22461C64.3238 12.1816 76.1182 26.5642 76.1182 43.7031C76.118 63.894 59.7495 80.2617 39.5586 80.2617C19.3679 80.2615 3.00015 63.8938 3 43.7031C3 26.5655 14.7924 12.1839 30.7051 8.22559C30.5885 7.74043 30.5254 7.2338 30.5254 6.71289C30.5256 3.14997 33.4146 0.261719 36.9775 0.261719H42.1387Z"/>
</mask>
<path d="M42.1387 0.261719C45.7015 0.261839 48.5896 3.15004 48.5898 6.71289C48.5898 7.23359 48.5256 7.73964 48.4092 8.22461C64.3238 12.1816 76.1182 26.5642 76.1182 43.7031C76.118 63.894 59.7495 80.2617 39.5586 80.2617C19.3679 80.2615 3.00015 63.8938 3 43.7031C3 26.5655 14.7924 12.1839 30.7051 8.22559C30.5885 7.74043 30.5254 7.2338 30.5254 6.71289C30.5256 3.14997 33.4146 0.261719 36.9775 0.261719H42.1387Z" fill="url(#paint0_linear_44027_13354)"/>
<path d="M42.1387 0.261719L42.1387 -0.738281H42.1387V0.261719ZM48.5898 6.71289H49.5898V6.71283L48.5898 6.71289ZM48.4092 8.22461L47.4368 7.99111L47.2052 8.9557L48.1679 9.19506L48.4092 8.22461ZM76.1182 43.7031L77.1182 43.7031V43.7031H76.1182ZM39.5586 80.2617L39.5586 81.2617H39.5586V80.2617ZM3 43.7031H2V43.7031L3 43.7031ZM30.7051 8.22559L30.9465 9.19601L31.9091 8.95655L31.6774 7.99199L30.7051 8.22559ZM30.5254 6.71289L29.5254 6.71283V6.71289H30.5254ZM42.1387 0.261719L42.1386 1.26172C45.1492 1.26182 47.5897 3.70231 47.5898 6.71295L48.5898 6.71289L49.5898 6.71283C49.5896 2.59777 46.2539 -0.738142 42.1387 -0.738281L42.1387 0.261719ZM48.5898 6.71289H47.5898C47.5898 7.15105 47.5358 7.57874 47.4368 7.99111L48.4092 8.22461L49.3815 8.45811C49.5154 7.90053 49.5898 7.31612 49.5898 6.71289H48.5898ZM48.4092 8.22461L48.1679 9.19506C63.6474 13.0439 75.1182 27.0344 75.1182 43.7031H76.1182H77.1182C77.1182 26.0939 65.0002 11.3194 48.6505 7.25416L48.4092 8.22461ZM76.1182 43.7031L75.1182 43.7031C75.118 63.3417 59.1972 79.2617 39.5586 79.2617V80.2617V81.2617C60.3017 81.2617 77.118 64.4463 77.1182 43.7031L76.1182 43.7031ZM39.5586 80.2617L39.5586 79.2617C19.9202 79.2615 4.00014 63.3416 4 43.7031L3 43.7031L2 43.7031C2.00015 64.4461 18.8156 81.2615 39.5586 81.2617L39.5586 80.2617ZM3 43.7031H4C4 27.0357 15.4688 13.0461 30.9465 9.19601L30.7051 8.22559L30.4637 7.25516C14.1159 11.3217 2 26.0953 2 43.7031H3ZM30.7051 8.22559L31.6774 7.99199C31.5787 7.58099 31.5254 7.15274 31.5254 6.71289H30.5254H29.5254C29.5254 7.31487 29.5984 7.89987 29.7327 8.45918L30.7051 8.22559ZM30.5254 6.71289L31.5254 6.71295C31.5256 3.7024 33.9667 1.26172 36.9775 1.26172V0.261719V-0.738281C32.8624 -0.738281 29.5257 2.59754 29.5254 6.71283L30.5254 6.71289ZM36.9775 0.261719V1.26172H42.1387V0.261719V-0.738281H36.9775V0.261719Z" fill="white" mask="url(#path-1-inside-1_44027_13354)"/>
<path d="M32.0007 44.7969L67.0296 42.4134" stroke="white" stroke-linecap="round"/>
<circle cx="39.561" cy="43.7016" r="6.45159" fill="white"/>
<path d="M18.4844 8.28906L25.9504 4.99432" stroke="white" stroke-width="3" stroke-linecap="round"/>
<path d="M60.7891 8.28906L53.323 4.99432" stroke="white" stroke-width="3" stroke-linecap="round"/>
<g filter="url(#filter1_d_44027_13354)">
<path d="M39 14.2617C48.9174 14.7535 66.5207 22.1306 69 44.2617" stroke="#06DF72" stroke-width="3" stroke-linecap="round" stroke-linejoin="round"/>
</g>
<path d="M27.816 71.2617V60.0837L28.158 60.2277C28.002 60.5637 27.732 60.8937 27.348 61.2177C26.964 61.5417 26.52 61.8237 26.016 62.0637C25.512 62.2917 24.978 62.4537 24.414 62.5497V60.7137C24.942 60.6297 25.458 60.4737 25.962 60.2457C26.466 60.0057 26.916 59.7177 27.312 59.3817C27.708 59.0337 28.002 58.6737 28.194 58.3017H29.67V71.2617H27.816ZM36.1119 71.4417C34.8039 71.4417 33.7539 71.0997 32.9619 70.4157C32.1699 69.7197 31.6839 68.8017 31.5039 67.6617H33.4659C33.6099 68.3577 33.9159 68.9037 34.3839 69.2997C34.8519 69.6837 35.4099 69.8757 36.0579 69.8757C36.7539 69.8757 37.3359 69.6537 37.8039 69.2097C38.2839 68.7537 38.5239 68.0457 38.5239 67.0857C38.5239 66.1377 38.2899 65.4237 37.8219 64.9437C37.3539 64.4517 36.7539 64.2057 36.0219 64.2057C35.5299 64.2057 35.0919 64.3137 34.7079 64.5297C34.3239 64.7337 34.0479 65.0037 33.8799 65.3397H32.1519L32.7819 58.3017H39.8199V59.8677H33.6819L34.5099 59.4537L34.1319 64.2777L33.6099 64.1517C33.8499 63.7437 34.2039 63.4137 34.6719 63.1617C35.1519 62.8977 35.7399 62.7657 36.4359 62.7657C37.2399 62.7657 37.9539 62.9397 38.5779 63.2877C39.2019 63.6357 39.6879 64.1337 40.0359 64.7817C40.3839 65.4297 40.5579 66.1977 40.5579 67.0857C40.5579 67.9977 40.3719 68.7777 39.9999 69.4257C39.6399 70.0737 39.1239 70.5717 38.4519 70.9197C37.7919 71.2677 37.0119 71.4417 36.1119 71.4417ZM46.1089 71.2617V62.0817H47.8909V64.2417H47.9809V71.2617H46.1089ZM52.3009 71.2617V65.2677C52.3009 64.6437 52.1569 64.1877 51.8689 63.8997C51.5809 63.6117 51.1669 63.4677 50.6269 63.4677C50.1229 63.4677 49.6669 63.5877 49.2589 63.8277C48.8629 64.0557 48.5509 64.3797 48.3229 64.7997C48.0949 65.2077 47.9809 65.6937 47.9809 66.2577L47.7469 64.1157C48.0469 63.4317 48.4969 62.8917 49.0969 62.4957C49.7089 62.0997 50.3929 61.9017 51.1489 61.9017C52.0609 61.9017 52.7869 62.1657 53.3269 62.6937C53.8789 63.2217 54.1549 63.9177 54.1549 64.7817V71.2617H52.3009ZM58.4929 71.2617V65.2677C58.4929 64.6437 58.3429 64.1877 58.0429 63.8997C57.7549 63.6117 57.3409 63.4677 56.8009 63.4677C56.3089 63.4677 55.8589 63.5877 55.4509 63.8277C55.0549 64.0557 54.7369 64.3797 54.4969 64.7997C54.2689 65.2077 54.1549 65.6937 54.1549 66.2577L53.7769 64.1157C54.0889 63.4317 54.5569 62.8917 55.1809 62.4957C55.8169 62.0997 56.5249 61.9017 57.3049 61.9017C58.2289 61.9017 58.9669 62.1717 59.5189 62.7117C60.0709 63.2397 60.3469 63.9477 60.3469 64.8357V71.2617H58.4929ZM62.8257 71.2617V62.0817H64.6977V71.2617H62.8257ZM62.7357 60.2817V58.1757H64.8057V60.2817H62.7357ZM67.3257 71.2617V62.0817H69.1077V64.2417H69.1977V71.2617H67.3257ZM73.8417 71.2617V65.3577C73.8417 64.7217 73.6797 64.2477 73.3557 63.9357C73.0437 63.6237 72.5757 63.4677 71.9517 63.4677C71.4117 63.4677 70.9317 63.5877 70.5117 63.8277C70.1037 64.0677 69.7797 64.3977 69.5397 64.8177C69.3117 65.2377 69.1977 65.7357 69.1977 66.3117L68.9637 64.1157C69.2637 63.4317 69.7257 62.8917 70.3497 62.4957C70.9737 62.0997 71.6997 61.9017 72.5277 61.9017C73.5117 61.9017 74.2857 62.1777 74.8497 62.7297C75.4137 63.2817 75.6957 64.0137 75.6957 64.9257V71.2617H73.8417Z" fill="#06DF72"/>
<defs>
<filter id="filter1_d_44027_13354" x="33.7408" y="9.0025" width="44.2777" height="44.2777" filterUnits="userSpaceOnUse" color-interpolation-filters="sRGB">
<feFlood flood-opacity="0" result="BackgroundImageFix"/>
<feColorMatrix in="SourceAlpha" type="matrix" values="0 0 0 0 0 0 0 0 0 0 0 0 0 0 0 0 0 0 127 0" result="hardAlpha"/>
<feOffset dx="1.87961" dy="1.87961"/>
<feGaussianBlur stdDeviation="2.81941"/>
<feComposite in2="hardAlpha" operator="out"/>
<feColorMatrix type="matrix" values="0 0 0 0 0.0235294 0 0 0 0 0.87451 0 0 0 0 0.447059 0 0 0 1 0"/>
<feBlend mode="normal" in2="BackgroundImageFix" result="effect1_dropShadow_44027_13354"/>
<feBlend mode="normal" in="SourceGraphic" in2="effect1_dropShadow_44027_13354" result="shape"/>
</filter>
<linearGradient id="paint0_linear_44027_13354" x1="39.5591" y1="1.55204" x2="39.5591" y2="80.2617" gradientUnits="userSpaceOnUse">
<stop stop-color="white" stop-opacity="0.2"/>
<stop offset="1" stop-color="white" stop-opacity="0.5"/>
</linearGradient>
</defs>
</svg>
