<svg width="114" height="121" viewBox="0 0 114 121" fill="none" xmlns="http://www.w3.org/2000/svg">
<mask id="path-1-inside-1_4513_2590" fill="white">
<path d="M61.7109 0.43457C65.4664 0.43457 68.5116 3.47894 68.5117 7.23438V12.4121C92.1826 18.4275 109.692 39.8803 109.692 65.4229C109.692 95.6288 85.205 120.115 54.999 120.115C24.7932 120.115 0.306794 95.6286 0.306641 65.4229C0.306641 39.8806 17.8157 18.4277 41.4863 12.4121V7.23438C41.4865 3.47894 44.5316 0.43457 48.2871 0.43457H61.7109Z"/>
</mask>
<path d="M61.7109 0.43457C65.4664 0.43457 68.5116 3.47894 68.5117 7.23438V12.4121C92.1826 18.4275 109.692 39.8803 109.692 65.4229C109.692 95.6288 85.205 120.115 54.999 120.115C24.7932 120.115 0.306794 95.6286 0.306641 65.4229C0.306641 39.8806 17.8157 18.4277 41.4863 12.4121V7.23438C41.4865 3.47894 44.5316 0.43457 48.2871 0.43457H61.7109Z" fill="url(#paint0_linear_4513_2590)"/>
<path d="M68.5117 7.23438H69.1917V7.23435L68.5117 7.23438ZM68.5117 12.4121H67.8317V12.9409L68.3442 13.0712L68.5117 12.4121ZM109.692 65.4229H110.372H109.692ZM54.999 120.115L54.999 120.795H54.999V120.115ZM0.306641 65.4229H-0.373364H0.306641ZM41.4863 12.4121L41.6538 13.0712L42.1663 12.9409V12.4121H41.4863ZM41.4863 7.23438L40.8063 7.23435V7.23438H41.4863ZM61.7109 0.43457V1.11458C65.091 1.11458 67.8316 3.8546 67.8317 7.2344L68.5117 7.23438L69.1917 7.23435C69.1916 3.10327 65.8419 -0.245434 61.7109 -0.245434V0.43457ZM68.5117 7.23438H67.8317V12.4121H68.5117H69.1917V7.23438H68.5117ZM68.5117 12.4121L68.3442 13.0712C91.721 19.0118 109.012 40.1988 109.012 65.4229H109.692H110.372C110.372 39.5618 92.6443 17.8432 68.6792 11.7531L68.5117 12.4121ZM109.692 65.4229H109.012C109.012 95.2532 84.8294 119.435 54.999 119.435V120.115V120.795C85.5805 120.795 110.372 96.0043 110.372 65.4229H109.692ZM54.999 120.115L54.999 119.435C25.1688 119.435 0.986797 95.2531 0.986645 65.4229H0.306641H-0.373364C-0.373209 96.0042 24.4177 120.795 54.999 120.795L54.999 120.115ZM0.306641 65.4229H0.986645C0.986645 40.199 18.2774 19.012 41.6538 13.0712L41.4863 12.4121L41.3188 11.7531C17.3541 17.8434 -0.373364 39.5621 -0.373364 65.4229H0.306641ZM41.4863 12.4121H42.1663V7.23438H41.4863H40.8063V12.4121H41.4863ZM41.4863 7.23438L42.1663 7.2344C42.1665 3.8546 44.9071 1.11458 48.2871 1.11458V0.43457V-0.245434C44.1562 -0.245434 40.8065 3.10327 40.8063 7.23435L41.4863 7.23438ZM48.2871 0.43457V1.11458H61.7109V0.43457V-0.245434H48.2871V0.43457Z" fill="url(#paint1_linear_4513_2590)" mask="url(#path-1-inside-1_4513_2590)"/>
<path d="M43.8381 64.9811L96.135 69.8701" stroke="white" stroke-width="0.680005" stroke-linecap="round"/>
<circle cx="54.9993" cy="65.4222" r="9.65168" fill="white"/>
<path d="M23.4707 12.4414L34.64 7.51242" stroke="white" stroke-width="3.40002" stroke-linecap="round"/>
<path d="M86.7598 12.4414L75.5905 7.51242" stroke="white" stroke-width="3.40002" stroke-linecap="round"/>
<g filter="url(#filter1_d_4513_2590)">
<path d="M52.5703 22.1943C67.6316 22.9412 94.3653 34.1446 98.1306 67.7547" stroke="white" stroke-width="8.16006" stroke-linecap="round" stroke-linejoin="round"/>
</g>
<defs>
<filter id="filter1_d_4513_2590" x="43.0502" y="12.6742" width="70.0408" height="70.0408" filterUnits="userSpaceOnUse" color-interpolation-filters="sRGB">
<feFlood flood-opacity="0" result="BackgroundImageFix"/>
<feColorMatrix in="SourceAlpha" type="matrix" values="0 0 0 0 0 0 0 0 0 0 0 0 0 0 0 0 0 0 127 0" result="hardAlpha"/>
<feOffset dx="2.72002" dy="2.72002"/>
<feGaussianBlur stdDeviation="4.08003"/>
<feComposite in2="hardAlpha" operator="out"/>
<feColorMatrix type="matrix" values="0 0 0 0 0.999568 0 0 0 0 0.999568 0 0 0 0 0.999568 0 0 0 1 0"/>
<feBlend mode="normal" in2="BackgroundImageFix" result="effect1_dropShadow_4513_2590"/>
<feBlend mode="normal" in="SourceGraphic" in2="effect1_dropShadow_4513_2590" result="shape"/>
</filter>
<linearGradient id="paint0_linear_4513_2590" x1="54.9995" y1="2.36491" x2="54.9995" y2="120.115" gradientUnits="userSpaceOnUse">
<stop stop-color="white" stop-opacity="0.2"/>
<stop offset="1" stop-color="white" stop-opacity="0.5"/>
</linearGradient>
<linearGradient id="paint1_linear_4513_2590" x1="54.9995" y1="2.36491" x2="54.9995" y2="120.115" gradientUnits="userSpaceOnUse">
<stop stop-color="white" stop-opacity="0"/>
<stop offset="1" stop-color="white"/>
</linearGradient>
</defs>
</svg>
