<svg width="236" height="224" viewBox="0 0 236 224" fill="none" xmlns="http://www.w3.org/2000/svg">
<path d="M67.1035 68.0645C71.801 68.4956 76.3723 69.4584 80.7334 70.9121L81.1543 81.6064L81.167 81.9219L81.457 82.0459C83.4598 82.9074 85.3914 83.8923 87.25 84.9873L87.5225 85.1475L87.7852 84.9697L96.6582 78.9531C100.456 81.6455 103.94 84.7605 107.031 88.2363L102.05 97.7109L101.903 97.9912L102.093 98.2441C103.389 99.9694 104.581 101.79 105.648 103.685L105.805 103.96L106.12 103.938L116.824 103.161C118.746 107.32 120.207 111.753 121.15 116.387L112.089 122.114L111.823 122.282L111.858 122.594C111.925 123.169 111.999 123.7 112.038 124.25V124.259C112.18 125.875 112.24 127.483 112.228 129.079L112.225 129.396L112.51 129.533L122.142 134.197C121.722 138.902 120.76 143.47 119.306 147.835L108.615 148.254L108.302 148.267L108.177 148.555C107.31 150.554 106.324 152.488 105.231 154.353L105.072 154.625L105.249 154.887L111.259 163.755C108.571 167.557 105.458 171.037 101.981 174.133L92.5059 169.151L92.2266 169.005L91.9736 169.194C90.2411 170.49 88.4217 171.676 86.5352 172.754L86.2617 172.91L86.2842 173.225L87.0566 183.931C82.8915 185.848 78.4635 187.303 73.8184 188.258L68.0977 179.181L67.9277 178.911L67.6123 178.951C67.0514 179.022 66.5118 179.098 65.9668 179.142L65.9629 179.143C64.3469 179.282 62.7363 179.336 61.1436 179.326L60.8281 179.324L60.6904 179.607L56.0107 189.245C51.3095 188.821 46.7485 187.855 42.3867 186.405L41.9648 175.709L41.9521 175.394L41.6611 175.27L40.916 174.943C39.1843 174.167 37.5001 173.291 35.8701 172.322L35.5977 172.16L35.334 172.338L26.4648 178.354C22.669 175.669 19.1781 172.556 16.0869 169.069L21.0713 159.598L21.2188 159.318L21.0293 159.065C19.7332 157.335 18.5452 155.521 17.4727 153.626L17.3164 153.351L17.001 153.373L6.30078 154.148C4.38191 149.991 2.92551 145.557 1.9707 140.923L11.043 135.202L11.3135 135.031L11.2715 134.714C11.2342 134.432 11.198 134.156 11.165 133.881L11.0781 133.058C10.9384 131.442 10.8866 129.836 10.8965 128.235L10.8984 127.92L10.6143 127.783L0.976562 123.117C1.40081 118.408 2.35765 113.845 3.81152 109.481L14.5107 109.062L14.8271 109.049L14.9512 108.759C15.8044 106.763 16.7958 104.834 17.8984 102.973L18.0605 102.699L17.8818 102.437L11.8604 93.5664C14.5436 89.7649 17.6587 86.2825 21.1396 83.1865L30.6211 88.1719L30.9014 88.3193L31.1553 88.1279C32.8741 86.8284 34.6969 85.6407 36.5898 84.5703L36.8652 84.4141L36.8428 84.0986L36.0615 73.3945C40.2244 71.475 44.6565 70.0143 49.2969 69.0615L55.0166 78.1328L55.1855 78.4004L55.499 78.3623C56.0599 78.2947 56.607 78.2244 57.1641 78.1758L57.1631 78.1748C58.7891 78.0373 60.3871 77.9745 61.9814 77.9893L62.2979 77.9922L62.4355 77.707L67.1035 68.0645ZM87.2607 126.415C86.0322 112.227 73.5177 101.717 59.3174 102.958C45.3458 104.17 34.9533 116.315 35.8037 130.234L35.8535 130.898C37.0762 144.905 49.2901 155.327 63.2578 154.397V154.407L63.8018 154.36C77.9949 153.127 88.4941 140.615 87.2607 126.415Z" fill="url(#paint0_linear_43843_2944)" stroke="white"/>
<path d="M148.992 131.836C152.075 131.481 155.173 131.448 158.242 131.722L160.198 139.175L160.28 139.485L160.596 139.541C162.642 139.898 164.662 140.417 166.629 141.098L166.934 141.203L167.155 140.969L172.446 135.373C175.273 136.612 177.975 138.13 180.523 139.923L178.485 147.328L178.399 147.639L178.647 147.846C180.235 149.166 181.722 150.629 183.105 152.226L183.317 152.47L183.627 152.377L190.993 150.174C191.909 151.413 192.766 152.698 193.555 154.038L193.556 154.039C194.354 155.384 195.074 156.759 195.717 158.153L190.244 163.554L190.015 163.779L190.125 164.081C190.848 166.058 191.419 168.076 191.825 170.098L191.888 170.411L192.199 170.485L199.665 172.271C200.006 175.366 200.034 178.459 199.759 181.531L192.315 183.479L192.003 183.56L191.949 183.877C191.597 185.929 191.07 187.943 190.395 189.901L190.29 190.205L190.523 190.427L196.114 195.73C194.892 198.548 193.369 201.251 191.575 203.796L184.166 201.765L183.855 201.68L183.65 201.927C182.332 203.507 180.868 205 179.276 206.383L179.033 206.595L179.125 206.903L181.317 214.271C180.079 215.184 178.802 216.042 177.456 216.837L177.455 216.838C176.113 217.635 174.743 218.353 173.36 218.987L167.936 213.515L167.709 213.286L167.406 213.398C165.43 214.131 163.424 214.7 161.397 215.091L161.081 215.152L161.006 215.467L159.229 222.939C156.138 223.285 153.033 223.304 149.967 223.036L148.019 215.587L147.938 215.274L147.618 215.221L146.848 215.082C145.056 214.74 143.309 214.271 141.584 213.672L141.279 213.566L141.058 213.8L135.753 219.386C132.939 218.164 130.242 216.64 127.697 214.85L129.727 207.436L129.812 207.126L129.565 206.92C127.987 205.601 126.486 204.137 125.108 202.549L124.897 202.306L124.589 202.397L117.21 204.592C116.302 203.362 115.447 202.07 114.649 200.721L114.647 200.719L114.33 200.179C113.658 199.016 113.05 197.827 112.496 196.62L117.966 191.224L118.194 190.998L118.084 190.696C117.361 188.712 116.796 186.705 116.402 184.675L116.341 184.358L116.027 184.283L108.549 182.506C108.205 179.413 108.173 176.312 108.453 173.244L115.897 171.291L116.207 171.21L116.263 170.895C116.623 168.846 117.128 166.826 117.808 164.858L117.912 164.554L117.679 164.332L112.088 159.036C113.325 156.215 114.84 153.511 116.635 150.972L124.041 153.007L124.352 153.093L124.558 152.845C125.878 151.26 127.344 149.774 128.934 148.388L129.176 148.177L129.085 147.869L126.892 140.489C128.127 139.584 129.414 138.725 130.755 137.935L130.758 137.934C132.097 137.133 133.481 136.425 134.869 135.786L140.273 141.254L140.501 141.483L140.804 141.371C142.777 140.637 144.778 140.067 146.8 139.676L147.115 139.614L147.19 139.302L148.992 131.836ZM169.406 167.336C164.171 158.999 153.135 156.355 144.667 161.598C136.71 166.521 133.875 177.146 138.245 185.369L138.459 185.76C143.44 194.565 154.645 197.54 163.318 192.413C171.879 187.347 174.715 176.298 169.651 167.737V167.736L169.406 167.336Z" fill="url(#paint1_linear_43843_2944)" stroke="white"/>
<line x1="135.522" y1="123.146" x2="125.224" y2="89.3161" stroke="white"/>
<line y1="-0.5" x2="66.1976" y2="-0.5" transform="matrix(-0.886095 -0.463503 0.463492 -0.886101 186.162 122.559)" stroke="white"/>
<path d="M186.501 81.0015L127.514 88.7696" stroke="white"/>
<path d="M178.94 36.3766L126.269 86.2578" stroke="white"/>
<line x1="63.7663" y1="119.558" x2="125.479" y2="86.9235" stroke="white"/>
<line x1="66.3193" y1="35.6153" x2="126.029" y2="85.1758" stroke="white"/>
<path d="M124 38.5007L126.209 85.6007" stroke="white"/>
<g filter="url(#filter1_f_43843_2944)">
<path d="M125.712 102.654C134.155 102.654 140.999 95.8091 140.999 87.3659C140.999 78.9227 134.155 72.0781 125.712 72.0781C117.268 72.0781 110.424 78.9227 110.424 87.3659C110.424 95.8091 117.268 102.654 125.712 102.654Z" fill="url(#paint2_linear_43843_2944)"/>
</g>
<circle cx="125.712" cy="87.3659" r="15.2878" fill="#06DF72"/>
<g filter="url(#filter2_f_43843_2944)">
<path d="M66.468 46.936C72.2493 46.936 76.936 42.2493 76.936 36.468C76.936 30.6867 72.2493 26 66.468 26C60.6867 26 56 30.6867 56 36.468C56 42.2493 60.6867 46.936 66.468 46.936Z" fill="url(#paint3_linear_43843_2944)"/>
</g>
<circle cx="66.468" cy="36.468" r="10.468" fill="white"/>
<g filter="url(#filter3_f_43843_2944)">
<path d="M123.466 46.936C129.247 46.936 133.934 42.2493 133.934 36.468C133.934 30.6867 129.247 26 123.466 26C117.685 26 112.998 30.6867 112.998 36.468C112.998 42.2493 117.685 46.936 123.466 46.936Z" fill="url(#paint4_linear_43843_2944)"/>
</g>
<circle cx="123.466" cy="36.468" r="10.468" fill="white"/>
<g filter="url(#filter4_f_43843_2944)">
<path d="M136.468 133.936C142.249 133.936 146.936 129.249 146.936 123.468C146.936 117.687 142.249 113 136.468 113C130.687 113 126 117.687 126 123.468C126 129.249 130.687 133.936 136.468 133.936Z" fill="url(#paint5_linear_43843_2944)"/>
</g>
<circle cx="136.468" cy="123.468" r="10.468" fill="white"/>
<g filter="url(#filter5_f_43843_2944)">
<path d="M180.468 46.936C186.249 46.936 190.936 42.2493 190.936 36.468C190.936 30.6867 186.249 26 180.468 26C174.687 26 170 30.6867 170 36.468C170 42.2493 174.687 46.936 180.468 46.936Z" fill="url(#paint6_linear_43843_2944)"/>
</g>
<circle cx="180.468" cy="36.468" r="10.468" fill="white"/>
<g filter="url(#filter6_f_43843_2944)">
<path d="M186.468 90.936C192.249 90.936 196.936 86.2493 196.936 80.468C196.936 74.6867 192.249 70 186.468 70C180.687 70 176 74.6867 176 80.468C176 86.2493 180.687 90.936 186.468 90.936Z" fill="url(#paint7_linear_43843_2944)"/>
</g>
<circle cx="186.468" cy="80.468" r="10.468" fill="white"/>
<g filter="url(#filter7_f_43843_2944)">
<path d="M62.4661 130.936C68.2474 130.936 72.9341 126.249 72.9341 120.468C72.9341 114.687 68.2474 110 62.4661 110C56.6847 110 51.998 114.687 51.998 120.468C51.998 126.249 56.6847 130.936 62.4661 130.936Z" fill="url(#paint8_linear_43843_2944)"/>
</g>
<circle cx="62.4661" cy="120.468" r="10.468" fill="white"/>
<g filter="url(#filter8_f_43843_2944)">
<path d="M189.413 134.936C195.195 134.936 199.881 130.249 199.881 124.468C199.881 118.687 195.195 114 189.413 114C183.632 114 178.945 118.687 178.945 124.468C178.945 130.249 183.632 134.936 189.413 134.936Z" fill="url(#paint9_linear_43843_2944)"/>
</g>
<circle cx="189.413" cy="124.468" r="10.468" fill="white"/>
<defs>
<filter id="filter1_f_43843_2944" x="75.2329" y="36.8872" width="100.958" height="100.956" filterUnits="userSpaceOnUse" color-interpolation-filters="sRGB">
<feFlood flood-opacity="0" result="BackgroundImageFix"/>
<feBlend mode="normal" in="SourceGraphic" in2="BackgroundImageFix" result="shape"/>
<feGaussianBlur stdDeviation="17.5955" result="effect1_foregroundBlur_43843_2944"/>
</filter>
<filter id="filter2_f_43843_2944" x="20.8091" y="-9.19093" width="91.3174" height="91.3194" filterUnits="userSpaceOnUse" color-interpolation-filters="sRGB">
<feFlood flood-opacity="0" result="BackgroundImageFix"/>
<feBlend mode="normal" in="SourceGraphic" in2="BackgroundImageFix" result="shape"/>
<feGaussianBlur stdDeviation="17.5955" result="effect1_foregroundBlur_43843_2944"/>
</filter>
<filter id="filter3_f_43843_2944" x="77.8071" y="-9.19093" width="91.3174" height="91.3194" filterUnits="userSpaceOnUse" color-interpolation-filters="sRGB">
<feFlood flood-opacity="0" result="BackgroundImageFix"/>
<feBlend mode="normal" in="SourceGraphic" in2="BackgroundImageFix" result="shape"/>
<feGaussianBlur stdDeviation="17.5955" result="effect1_foregroundBlur_43843_2944"/>
</filter>
<filter id="filter4_f_43843_2944" x="90.8091" y="77.8091" width="91.3174" height="91.3194" filterUnits="userSpaceOnUse" color-interpolation-filters="sRGB">
<feFlood flood-opacity="0" result="BackgroundImageFix"/>
<feBlend mode="normal" in="SourceGraphic" in2="BackgroundImageFix" result="shape"/>
<feGaussianBlur stdDeviation="17.5955" result="effect1_foregroundBlur_43843_2944"/>
</filter>
<filter id="filter5_f_43843_2944" x="134.809" y="-9.19093" width="91.3174" height="91.3194" filterUnits="userSpaceOnUse" color-interpolation-filters="sRGB">
<feFlood flood-opacity="0" result="BackgroundImageFix"/>
<feBlend mode="normal" in="SourceGraphic" in2="BackgroundImageFix" result="shape"/>
<feGaussianBlur stdDeviation="17.5955" result="effect1_foregroundBlur_43843_2944"/>
</filter>
<filter id="filter6_f_43843_2944" x="140.809" y="34.8091" width="91.3174" height="91.3194" filterUnits="userSpaceOnUse" color-interpolation-filters="sRGB">
<feFlood flood-opacity="0" result="BackgroundImageFix"/>
<feBlend mode="normal" in="SourceGraphic" in2="BackgroundImageFix" result="shape"/>
<feGaussianBlur stdDeviation="17.5955" result="effect1_foregroundBlur_43843_2944"/>
</filter>
<filter id="filter7_f_43843_2944" x="16.8071" y="74.8091" width="91.3174" height="91.3194" filterUnits="userSpaceOnUse" color-interpolation-filters="sRGB">
<feFlood flood-opacity="0" result="BackgroundImageFix"/>
<feBlend mode="normal" in="SourceGraphic" in2="BackgroundImageFix" result="shape"/>
<feGaussianBlur stdDeviation="17.5955" result="effect1_foregroundBlur_43843_2944"/>
</filter>
<filter id="filter8_f_43843_2944" x="143.754" y="78.8091" width="91.3174" height="91.3194" filterUnits="userSpaceOnUse" color-interpolation-filters="sRGB">
<feFlood flood-opacity="0" result="BackgroundImageFix"/>
<feBlend mode="normal" in="SourceGraphic" in2="BackgroundImageFix" result="shape"/>
<feGaussianBlur stdDeviation="17.5955" result="effect1_foregroundBlur_43843_2944"/>
</filter>
<linearGradient id="paint0_linear_43843_2944" x1="61.5596" y1="65.4369" x2="61.5596" y2="189.776" gradientUnits="userSpaceOnUse">
<stop stop-color="white" stop-opacity="0.3"/>
<stop offset="1" stop-color="white" stop-opacity="0.6"/>
</linearGradient>
<linearGradient id="paint1_linear_43843_2944" x1="154.105" y1="129.448" x2="154.105" y2="223.721" gradientUnits="userSpaceOnUse">
<stop stop-color="white" stop-opacity="0.3"/>
<stop offset="1" stop-color="white" stop-opacity="0.6"/>
</linearGradient>
<linearGradient id="paint2_linear_43843_2944" x1="111.566" y1="90.2455" x2="183.995" y2="75.5168" gradientUnits="userSpaceOnUse">
<stop stop-color="#07D46E"/>
<stop offset="1" stop-color="#D6B9FA"/>
</linearGradient>
<linearGradient id="paint3_linear_43843_2944" x1="56.7821" y1="38.4398" x2="106.377" y2="28.3546" gradientUnits="userSpaceOnUse">
<stop stop-color="#694AFF"/>
<stop offset="0.51" stop-color="#BBBCFA"/>
<stop offset="1" stop-color="#D6B9FA"/>
</linearGradient>
<linearGradient id="paint4_linear_43843_2944" x1="113.78" y1="38.4398" x2="163.375" y2="28.3546" gradientUnits="userSpaceOnUse">
<stop stop-color="#694AFF"/>
<stop offset="0.51" stop-color="#BBBCFA"/>
<stop offset="1" stop-color="#D6B9FA"/>
</linearGradient>
<linearGradient id="paint5_linear_43843_2944" x1="126.782" y1="125.44" x2="176.377" y2="115.355" gradientUnits="userSpaceOnUse">
<stop stop-color="#694AFF"/>
<stop offset="0.51" stop-color="#BBBCFA"/>
<stop offset="1" stop-color="#D6B9FA"/>
</linearGradient>
<linearGradient id="paint6_linear_43843_2944" x1="170.782" y1="38.4398" x2="220.377" y2="28.3546" gradientUnits="userSpaceOnUse">
<stop stop-color="#694AFF"/>
<stop offset="0.51" stop-color="#BBBCFA"/>
<stop offset="1" stop-color="#D6B9FA"/>
</linearGradient>
<linearGradient id="paint7_linear_43843_2944" x1="176.782" y1="82.4398" x2="226.377" y2="72.3546" gradientUnits="userSpaceOnUse">
<stop stop-color="#694AFF"/>
<stop offset="0.51" stop-color="#BBBCFA"/>
<stop offset="1" stop-color="#D6B9FA"/>
</linearGradient>
<linearGradient id="paint8_linear_43843_2944" x1="52.7802" y1="122.44" x2="102.375" y2="112.355" gradientUnits="userSpaceOnUse">
<stop stop-color="#694AFF"/>
<stop offset="0.51" stop-color="#BBBCFA"/>
<stop offset="1" stop-color="#D6B9FA"/>
</linearGradient>
<linearGradient id="paint9_linear_43843_2944" x1="179.727" y1="126.44" x2="229.322" y2="116.355" gradientUnits="userSpaceOnUse">
<stop stop-color="#694AFF"/>
<stop offset="0.51" stop-color="#BBBCFA"/>
<stop offset="1" stop-color="#D6B9FA"/>
</linearGradient>
</defs>
</svg>
