<svg width="30" height="30" viewBox="0 0 30 30" fill="none" xmlns="http://www.w3.org/2000/svg">
<path d="M23.3367 23.3375L26.1117 21.95V18.475M17.7742 12.225L14.9992 13.6125L17.7742 12.225ZM14.9992 13.6125L12.2242 12.225L14.9992 13.6125ZM14.9992 13.6125V17.0875V13.6125ZM26.1117 8.05L23.3367 9.4375L26.1117 8.05ZM26.1117 8.05L23.3367 6.6625L26.1117 8.05ZM26.1117 8.05V11.525V8.05ZM17.7742 3.8875L14.9992 2.5L12.2242 3.8875H17.7742ZM3.88672 8.05L6.66172 6.6625L3.88672 8.05ZM3.88672 8.05L6.66172 9.4375L3.88672 8.05ZM3.88672 8.05V11.525V8.05ZM14.9992 27.5L12.2242 26.1125L14.9992 27.5ZM14.9992 27.5L17.7742 26.1125L14.9992 27.5ZM14.9992 27.5V24.025V27.5ZM6.66172 23.3375L3.88672 21.95V18.475L6.66172 23.3375Z" stroke="#06DF72" stroke-width="1.5" stroke-linecap="round" stroke-linejoin="round"/>
</svg>
