<svg width="633" height="474" viewBox="0 0 633 474" fill="none" xmlns="http://www.w3.org/2000/svg">
<mask id="mask0_1195_17852" style="mask-type:alpha" maskUnits="userSpaceOnUse" x="9" y="0" width="709" height="451">
<path d="M324.962 7.68066C343.153 -2.82216 374.207 -1.50546 394.289 10.0889L700.551 186.908C720.633 198.503 722.913 216.432 704.722 226.935L330.25 443.136C312.059 453.639 281.005 452.322 260.923 440.728L26.4463 305.353C6.36408 293.758 4.08394 275.829 22.2754 265.326L183.231 172.398C191.655 167.535 195.844 160.59 194.705 153.139H194.706L186.818 101.503C185.563 93.2867 190.182 85.4959 199.71 79.9951L324.962 7.68066ZM184.963 173.398C185.177 173.275 185.388 173.148 185.597 173.021L184.963 173.398ZM199.749 82.0342C199.547 82.1657 199.348 82.2978 199.151 82.4316C199.348 82.2978 199.547 82.1656 199.749 82.0342ZM201.441 80.9951L200.612 81.4873C200.362 81.6407 200.115 81.7962 199.872 81.9531C200.379 81.6262 200.902 81.3067 201.441 80.9951L326.694 8.68066H326.693L201.441 80.9951ZM347.758 2.37305H347.759C348.117 2.33508 348.476 2.29938 348.837 2.2666H348.836C348.475 2.29939 348.116 2.33507 347.758 2.37305Z" fill="#BBBCFA"/>
</mask>
<g mask="url(#mask0_1195_17852)">
<path d="M325.827 112.125C343.44 101.956 373.712 103.153 393.422 114.533L699.683 291.353C719.394 302.732 721.468 320.21 703.854 330.379L329.383 546.58C311.77 556.749 281.498 555.552 261.787 544.172L27.3109 408.797C7.6005 397.417 5.52654 379.94 23.1398 369.771L184.096 276.842C192.796 271.819 197.092 264.664 195.925 257.021L188.037 205.385C186.811 197.36 191.323 189.78 200.574 184.439L325.827 112.125Z" fill="#B25BDE" stroke="#EBF0FF" stroke-width="2"/>
<g filter="url(#filter0_d_1195_17852)">
<path d="M702.989 276.943L328.517 493.145C311.482 502.98 281.992 501.902 262.654 490.736L28.1769 355.361C8.83832 344.196 6.97069 327.17 24.0057 317.335L184.962 224.407C193.939 219.224 198.342 211.857 197.145 204.023L189.257 152.387C188.06 144.553 192.466 137.185 201.44 132.004L326.693 59.6888C343.728 49.8537 373.218 50.9319 392.557 62.0971L698.818 238.917C718.156 250.082 720.024 267.108 702.989 276.943Z" fill="#BBBCFA"/>
<path d="M325.827 59.189C343.44 49.02 373.712 50.2174 393.422 61.5972L699.683 238.417C719.394 249.797 721.468 267.274 703.854 277.443L329.383 493.645C311.77 503.814 281.498 502.616 261.787 491.236L27.3109 355.861C7.6005 344.482 5.52654 327.004 23.1398 316.835L184.096 223.907C192.796 218.884 197.092 211.728 195.925 204.085L188.037 152.45C186.811 144.425 191.323 136.844 200.574 131.503L325.827 59.189Z" stroke="#EBF0FF" stroke-width="2"/>
</g>
<g filter="url(#filter1_d_1195_17852)">
<path d="M702.989 225.934L328.517 442.135C311.482 451.97 281.992 450.892 262.654 439.727L28.1769 304.352C8.83832 293.186 6.97069 276.16 24.0057 266.325L184.962 173.397C193.939 168.214 198.342 160.847 197.145 153.013L189.257 101.378C188.06 93.5435 192.466 86.175 201.44 80.9938L326.693 8.67906C343.728 -1.15611 373.218 -0.0778179 392.557 11.0873L698.818 187.907C718.156 199.072 720.024 216.098 702.989 225.934Z" fill="#593EDC"/>
<path d="M325.827 8.1792C343.44 -1.98981 373.712 -0.792352 393.422 10.5874L699.683 187.407C719.394 198.787 721.468 216.265 703.854 226.434L329.383 442.635C311.77 452.804 281.498 451.606 261.787 440.227L27.3109 304.852C7.6005 293.472 5.52654 275.994 23.1398 265.825L184.096 172.897C192.796 167.874 197.092 160.718 195.925 153.076L188.037 101.44C186.811 93.4148 191.323 85.8347 200.574 80.4937L325.827 8.1792Z" stroke="#EBF0FF" stroke-width="2"/>
</g>
<g filter="url(#filter2_d_1195_17852)">
<path d="M704.61 225.064L330.138 441.266C313.103 451.101 283.613 450.023 264.275 438.858L29.798 303.482C10.4594 292.317 8.59179 275.291 25.6268 265.456L186.583 172.528C195.56 167.345 199.963 159.978 198.766 152.144L190.878 100.508C189.681 92.6744 194.087 85.3059 203.061 80.1246L328.314 7.80992C345.349 -2.02525 374.839 -0.946959 394.178 10.2182L700.439 187.038C719.777 198.203 721.645 215.229 704.61 225.064Z" fill="url(#paint0_linear_1195_17852)"/>
<path d="M327.448 7.31006C345.061 -2.85895 375.333 -1.66149 395.043 9.71826L701.304 186.538C721.015 197.918 723.089 215.395 705.475 225.564L331.004 441.766C313.391 451.935 283.119 450.737 263.408 439.357L28.932 303.982C9.2216 292.603 7.14763 275.125 24.7608 264.956L185.717 172.028C194.417 167.005 198.714 159.849 197.546 152.207L189.658 100.571C188.432 92.5457 192.944 84.9655 202.195 79.6245L327.448 7.31006Z" stroke="#EBF0FF" stroke-width="2"/>
</g>
</g>
<defs>
<filter id="filter0_d_1195_17852" x="0.904297" y="51.5469" width="725.186" height="472.738" filterUnits="userSpaceOnUse" color-interpolation-filters="sRGB">
<feFlood flood-opacity="0" result="BackgroundImageFix"/>
<feColorMatrix in="SourceAlpha" type="matrix" values="0 0 0 0 0 0 0 0 0 0 0 0 0 0 0 0 0 0 127 0" result="hardAlpha"/>
<feOffset dy="14"/>
<feGaussianBlur stdDeviation="4.5"/>
<feComposite in2="hardAlpha" operator="out"/>
<feColorMatrix type="matrix" values="0 0 0 0 0 0 0 0 0 0 0 0 0 0 0 0 0 0 0.1 0"/>
<feBlend mode="normal" in2="BackgroundImageFix" result="effect1_dropShadow_1195_17852"/>
<feBlend mode="normal" in="SourceGraphic" in2="effect1_dropShadow_1195_17852" result="shape"/>
</filter>
<filter id="filter1_d_1195_17852" x="0.904297" y="0.537109" width="725.186" height="472.738" filterUnits="userSpaceOnUse" color-interpolation-filters="sRGB">
<feFlood flood-opacity="0" result="BackgroundImageFix"/>
<feColorMatrix in="SourceAlpha" type="matrix" values="0 0 0 0 0 0 0 0 0 0 0 0 0 0 0 0 0 0 127 0" result="hardAlpha"/>
<feOffset dy="14"/>
<feGaussianBlur stdDeviation="4.5"/>
<feComposite in2="hardAlpha" operator="out"/>
<feColorMatrix type="matrix" values="0 0 0 0 0 0 0 0 0 0 0 0 0 0 0 0 0 0 0.1 0"/>
<feBlend mode="normal" in2="BackgroundImageFix" result="effect1_dropShadow_1195_17852"/>
<feBlend mode="normal" in="SourceGraphic" in2="effect1_dropShadow_1195_17852" result="shape"/>
</filter>
<filter id="filter2_d_1195_17852" x="2.52539" y="-0.332031" width="725.186" height="472.738" filterUnits="userSpaceOnUse" color-interpolation-filters="sRGB">
<feFlood flood-opacity="0" result="BackgroundImageFix"/>
<feColorMatrix in="SourceAlpha" type="matrix" values="0 0 0 0 0 0 0 0 0 0 0 0 0 0 0 0 0 0 127 0" result="hardAlpha"/>
<feOffset dy="14"/>
<feGaussianBlur stdDeviation="4.5"/>
<feComposite in2="hardAlpha" operator="out"/>
<feColorMatrix type="matrix" values="0 0 0 0 0 0 0 0 0 0 0 0 0 0 0 0 0 0 0.1 0"/>
<feBlend mode="normal" in2="BackgroundImageFix" result="effect1_dropShadow_1195_17852"/>
<feBlend mode="normal" in="SourceGraphic" in2="effect1_dropShadow_1195_17852" result="shape"/>
</filter>
<linearGradient id="paint0_linear_1195_17852" x1="228.5" y1="155.501" x2="368.225" y2="413.835" gradientUnits="userSpaceOnUse">
<stop stop-color="#06DF72"/>
<stop offset="1" stop-color="#BBBCFA"/>
</linearGradient>
</defs>
</svg>
