<svg width="21" height="20" viewBox="0 0 21 20" fill="none" xmlns="http://www.w3.org/2000/svg">
<g clip-path="url(#clip0_43728_5271)">
<path d="M15.1164 6.92422C16.2486 6.92422 17.1664 6.0064 17.1664 4.87422C17.1664 3.74203 16.2486 2.82422 15.1164 2.82422C13.9842 2.82422 13.0664 3.74203 13.0664 4.87422C13.0664 6.0064 13.9842 6.92422 15.1164 6.92422Z" stroke="#06DF72" stroke-width="1.5" stroke-miterlimit="10" stroke-linecap="round" stroke-linejoin="round"/>
<path d="M5.88204 6.92422C7.01422 6.92422 7.93203 6.0064 7.93203 4.87422C7.93203 3.74203 7.01422 2.82422 5.88204 2.82422C4.74985 2.82422 3.83203 3.74203 3.83203 4.87422C3.83203 6.0064 4.74985 6.92422 5.88204 6.92422Z" stroke="#06DF72" stroke-width="1.5" stroke-miterlimit="10" stroke-linecap="round" stroke-linejoin="round"/>
<path d="M15.1164 17.1742C16.2486 17.1742 17.1664 16.2564 17.1664 15.1242C17.1664 13.992 16.2486 13.0742 15.1164 13.0742C13.9842 13.0742 13.0664 13.992 13.0664 15.1242C13.0664 16.2564 13.9842 17.1742 15.1164 17.1742Z" stroke="#06DF72" stroke-width="1.5" stroke-miterlimit="10" stroke-linecap="round" stroke-linejoin="round"/>
<path d="M5.88204 17.1742C7.01422 17.1742 7.93203 16.2564 7.93203 15.1242C7.93203 13.992 7.01422 13.0742 5.88204 13.0742C4.74985 13.0742 3.83203 13.992 3.83203 15.1242C3.83203 16.2564 4.74985 17.1742 5.88204 17.1742Z" stroke="#06DF72" stroke-width="1.5" stroke-miterlimit="10" stroke-linecap="round" stroke-linejoin="round"/>
</g>
<defs>
<clipPath id="clip0_43728_5271">
<rect width="20" height="20" fill="white" transform="translate(0.5)"/>
</clipPath>
</defs>
</svg>
