<svg width="172" height="181" viewBox="0 0 172 181" fill="none" xmlns="http://www.w3.org/2000/svg">
<path d="M128.457 50L128.457 108L38.457 108L38.457 50" stroke="white" stroke-linecap="round"/>
<g filter="url(#filter0_f_43747_5123)">
<path d="M116.457 46C116.457 51.5228 120.934 56 126.457 56C131.98 56 136.457 51.5228 136.457 46C136.457 40.4772 131.98 36 126.457 36C120.934 36 116.457 40.4771 116.457 46Z" fill="url(#paint0_linear_43747_5123)"/>
</g>
<circle cx="126.457" cy="46" r="10" transform="rotate(90 126.457 46)" fill="white"/>
<g filter="url(#filter1_f_43747_5123)">
<path d="M28.457 46C28.457 51.5228 32.9342 56 38.457 56C43.9799 56 48.457 51.5228 48.457 46C48.457 40.4772 43.9799 36 38.457 36C32.9342 36 28.457 40.4771 28.457 46Z" fill="url(#paint1_linear_43747_5123)"/>
</g>
<circle cx="38.457" cy="46" r="10" transform="rotate(90 38.457 46)" fill="white"/>
<line x1="83.957" y1="50" x2="83.957" y2="142" stroke="white"/>
<g filter="url(#filter2_f_43747_5123)">
<path d="M73.4575 46.5496C73.4575 52.0113 77.8851 56.439 83.3469 56.439C88.8087 56.439 93.2363 52.0113 93.2363 46.5496C93.2363 41.0878 88.8087 36.6602 83.3469 36.6602C77.8851 36.6602 73.4575 41.0878 73.4575 46.5496Z" fill="url(#paint2_linear_43747_5123)"/>
</g>
<circle cx="83.5676" cy="46.3289" r="9.88942" transform="rotate(90 83.5676 46.3289)" fill="white"/>
<g filter="url(#filter3_f_43747_5123)">
<path d="M73.457 135C73.457 140.523 77.9342 145 83.457 145C88.9799 145 93.457 140.523 93.457 135C93.457 129.477 88.9799 125 83.457 125C77.9342 125 73.457 129.477 73.457 135Z" fill="url(#paint3_linear_43747_5123)"/>
</g>
<circle cx="83.457" cy="135" r="10" transform="rotate(90 83.457 135)" fill="#06DF72"/>
<defs>
<filter id="filter0_f_43747_5123" x="81.2661" y="0.809071" width="90.3819" height="90.3819" filterUnits="userSpaceOnUse" color-interpolation-filters="sRGB">
<feFlood flood-opacity="0" result="BackgroundImageFix"/>
<feBlend mode="normal" in="SourceGraphic" in2="BackgroundImageFix" result="shape"/>
<feGaussianBlur stdDeviation="17.5955" result="effect1_foregroundBlur_43747_5123"/>
</filter>
<filter id="filter1_f_43747_5123" x="-6.7339" y="0.809071" width="90.3819" height="90.3819" filterUnits="userSpaceOnUse" color-interpolation-filters="sRGB">
<feFlood flood-opacity="0" result="BackgroundImageFix"/>
<feBlend mode="normal" in="SourceGraphic" in2="BackgroundImageFix" result="shape"/>
<feGaussianBlur stdDeviation="17.5955" result="effect1_foregroundBlur_43747_5123"/>
</filter>
<filter id="filter2_f_43747_5123" x="38.2661" y="1.46923" width="90.1612" height="90.1612" filterUnits="userSpaceOnUse" color-interpolation-filters="sRGB">
<feFlood flood-opacity="0" result="BackgroundImageFix"/>
<feBlend mode="normal" in="SourceGraphic" in2="BackgroundImageFix" result="shape"/>
<feGaussianBlur stdDeviation="17.5955" result="effect1_foregroundBlur_43747_5123"/>
</filter>
<filter id="filter3_f_43747_5123" x="38.2661" y="89.8091" width="90.3819" height="90.3819" filterUnits="userSpaceOnUse" color-interpolation-filters="sRGB">
<feFlood flood-opacity="0" result="BackgroundImageFix"/>
<feBlend mode="normal" in="SourceGraphic" in2="BackgroundImageFix" result="shape"/>
<feGaussianBlur stdDeviation="17.5955" result="effect1_foregroundBlur_43747_5123"/>
</filter>
<linearGradient id="paint0_linear_43747_5123" x1="124.573" y1="36.7471" x2="134.208" y2="84.1243" gradientUnits="userSpaceOnUse">
<stop stop-color="#694AFF"/>
<stop offset="0.51" stop-color="#BBBCFA"/>
<stop offset="1" stop-color="#D6B9FA"/>
</linearGradient>
<linearGradient id="paint1_linear_43747_5123" x1="36.5734" y1="36.7471" x2="46.2077" y2="84.1243" gradientUnits="userSpaceOnUse">
<stop stop-color="#694AFF"/>
<stop offset="0.51" stop-color="#BBBCFA"/>
<stop offset="1" stop-color="#D6B9FA"/>
</linearGradient>
<linearGradient id="paint2_linear_43747_5123" x1="81.4841" y1="37.399" x2="91.0119" y2="84.2522" gradientUnits="userSpaceOnUse">
<stop stop-color="#694AFF"/>
<stop offset="0.51" stop-color="#BBBCFA"/>
<stop offset="1" stop-color="#D6B9FA"/>
</linearGradient>
<linearGradient id="paint3_linear_43747_5123" x1="81.5734" y1="125.747" x2="91.2077" y2="173.124" gradientUnits="userSpaceOnUse">
<stop stop-color="#07D46E"/>
<stop offset="1" stop-color="#D6B9FA"/>
</linearGradient>
</defs>
</svg>
