<svg width="71" height="70" viewBox="0 0 71 70" fill="none" xmlns="http://www.w3.org/2000/svg">
<path d="M27.6562 42.8737L32.0312 47.2487L43.6979 35.582" stroke="#07D46E" stroke-width="2" stroke-linecap="round" stroke-linejoin="round"/>
<path d="M29.6673 17.5007H41.334C47.1673 17.5007 47.1673 14.584 47.1673 11.6673C47.1673 5.83398 44.2507 5.83398 41.334 5.83398H29.6673C26.7507 5.83398 23.834 5.83398 23.834 11.6673C23.834 17.5007 26.7507 17.5007 29.6673 17.5007Z" stroke="#07D46E" stroke-width="2" stroke-miterlimit="10" stroke-linecap="round" stroke-linejoin="round"/>
<path d="M47.1667 11.7227C56.8792 12.2477 61.75 15.8352 61.75 29.1643V46.6643C61.75 58.331 58.8333 64.1643 44.25 64.1643H26.75C12.1667 64.1643 9.25 58.331 9.25 46.6643V29.1643C9.25 15.8643 14.1208 12.2477 23.8333 11.7227" stroke="#07D46E" stroke-width="2" stroke-miterlimit="10" stroke-linecap="round" stroke-linejoin="round"/>
</svg>
