<svg width="71" height="70" viewBox="0 0 71 70" fill="none" xmlns="http://www.w3.org/2000/svg">
<path d="M35.4987 64.1654C51.607 64.1654 64.6654 51.107 64.6654 34.9987C64.6654 18.8904 51.607 5.83203 35.4987 5.83203C19.3904 5.83203 6.33203 18.8904 6.33203 34.9987C6.33203 51.107 19.3904 64.1654 35.4987 64.1654Z" stroke="#07D46E" stroke-width="2" stroke-linecap="round" stroke-linejoin="round"/>
<path d="M23.8333 8.75H26.75C21.0625 25.7833 21.0625 44.2167 26.75 61.25H23.8333" stroke="#07D46E" stroke-width="2" stroke-linecap="round" stroke-linejoin="round"/>
<path d="M44.25 8.75C49.9375 25.7833 49.9375 44.2167 44.25 61.25" stroke="#07D46E" stroke-width="2" stroke-linecap="round" stroke-linejoin="round"/>
<path d="M9.25 46.6667V43.75C26.2833 49.4375 44.7167 49.4375 61.75 43.75V46.6667" stroke="#07D46E" stroke-width="2" stroke-linecap="round" stroke-linejoin="round"/>
<path d="M9.25 26.25C26.2833 20.5625 44.7167 20.5625 61.75 26.25" stroke="#07D46E" stroke-width="2" stroke-linecap="round" stroke-linejoin="round"/>
</svg>
