<svg width="71" height="70" viewBox="0 0 71 70" fill="none" xmlns="http://www.w3.org/2000/svg">
<path d="M18 29.1654V23.332C18 13.6779 20.9167 5.83203 35.5 5.83203C50.0833 5.83203 53 13.6779 53 23.332V29.1654" stroke="#07D46E" stroke-width="2" stroke-linecap="round" stroke-linejoin="round"/>
<path d="M35.4987 53.9583C39.5258 53.9583 42.7904 50.6937 42.7904 46.6667C42.7904 42.6396 39.5258 39.375 35.4987 39.375C31.4716 39.375 28.207 42.6396 28.207 46.6667C28.207 50.6937 31.4716 53.9583 35.4987 53.9583Z" stroke="#07D46E" stroke-width="2" stroke-linecap="round" stroke-linejoin="round"/>
<path d="M50.082 64.168H20.9154C9.2487 64.168 6.33203 61.2513 6.33203 49.5846V43.7513C6.33203 32.0846 9.2487 29.168 20.9154 29.168H50.082C61.7487 29.168 64.6654 32.0846 64.6654 43.7513V49.5846C64.6654 61.2513 61.7487 64.168 50.082 64.168Z" stroke="#07D46E" stroke-width="2" stroke-linecap="round" stroke-linejoin="round"/>
</svg>
