<svg width="633" height="446" viewBox="0 0 633 446" fill="none" xmlns="http://www.w3.org/2000/svg">
<mask id="mask0_1218_17472" style="mask-type:alpha" maskUnits="userSpaceOnUse" x="9" y="0" width="709" height="423">
<path d="M324.923 7.6875C343.132 -2.16685 374.21 -0.928808 394.304 9.94531L700.565 175.688C720.659 186.563 722.945 203.382 704.736 213.236L330.265 415.894C312.055 425.748 280.976 424.51 260.883 413.636L26.4062 286.741C6.31315 275.867 4.02575 259.048 22.2344 249.193L183.191 162.087C191.606 157.533 195.793 151.03 194.655 144.051L186.768 95.6494L186.667 94.9277C185.805 87.4874 190.432 80.4722 199.67 75.4727L324.923 7.6875ZM297.554 421.226C297.926 421.234 298.297 421.239 298.668 421.242C299.039 421.245 299.409 421.246 299.779 421.244C299.41 421.246 299.04 421.245 298.669 421.242C297.927 421.236 297.183 421.22 296.438 421.194L297.554 421.226ZM290.087 420.745C290.249 420.762 290.412 420.778 290.574 420.795C290.412 420.778 290.249 420.762 290.087 420.745ZM289.311 420.658C289.457 420.675 289.603 420.692 289.75 420.708C289.603 420.692 289.457 420.675 289.311 420.658ZM288.604 420.574C288.708 420.587 288.813 420.599 288.917 420.611C288.767 420.593 288.617 420.574 288.468 420.556L288.604 420.574ZM197.249 144.816C197.231 144.637 197.211 144.457 197.186 144.276L197.184 144.266C197.209 144.449 197.23 144.633 197.249 144.816ZM328.435 7.74805C328.116 7.90053 327.8 8.05584 327.489 8.21484L328.314 7.80566C328.354 7.78639 328.394 7.76722 328.435 7.74805ZM329.314 7.33984C329.218 7.38322 329.122 7.42676 329.026 7.4707C329.122 7.42674 329.218 7.38324 329.314 7.33984ZM330.067 7.00879C330.009 7.03381 329.951 7.05973 329.893 7.08496C329.951 7.05972 330.009 7.03382 330.067 7.00879Z" fill="#BBBCFA"/>
</mask>
<g mask="url(#mask0_1218_17472)">
<path d="M325.802 105.603C343.424 96.0663 373.708 97.1905 393.424 107.86L699.685 273.603C719.401 284.273 721.479 300.662 703.857 310.199L329.384 512.857C311.762 522.393 281.478 521.269 261.762 510.599L27.2854 383.705C7.56966 373.035 5.49219 356.646 23.1139 347.109L184.071 260.002C192.766 255.296 197.061 248.592 195.894 241.43L188.007 193.03C186.78 185.504 191.294 178.396 200.549 173.388L325.802 105.603Z" fill="#B25BDE" stroke="#EBF0FF" stroke-width="2"/>
<g filter="url(#filter0_d_1218_17472)">
<path d="M702.977 260.106L328.506 462.764C311.47 471.983 281.98 470.972 262.642 460.506L28.1652 333.612C8.8266 323.146 6.95898 307.187 23.994 297.967L184.95 210.861C193.927 206.003 198.33 199.097 197.133 191.754L189.245 143.353C188.048 136.01 192.454 129.103 201.428 124.246L326.681 56.4619C343.716 47.2428 373.206 48.2536 392.545 58.7193L698.806 224.462C718.144 234.928 720.012 250.887 702.977 260.106Z" fill="#BBBCFA"/>
<path d="M325.802 55.9857C343.424 46.4491 373.708 47.5733 393.424 58.2432L699.685 223.986C719.401 234.656 721.479 251.045 703.857 260.582L329.384 463.24C311.762 472.776 281.478 471.652 261.762 460.982L27.2854 334.088C7.56966 323.418 5.49219 307.028 23.1139 297.492L184.071 210.385C192.766 205.679 197.061 198.975 195.894 191.813L188.007 143.412C186.78 135.887 191.294 128.779 200.549 123.77L325.802 55.9857Z" stroke="#EBF0FF" stroke-width="2"/>
</g>
<g filter="url(#filter1_d_1218_17472)">
<path d="M702.977 211.325L328.506 413.982C311.47 423.201 281.98 422.191 262.642 411.725L28.1652 284.83C8.8266 274.365 6.95898 258.405 23.994 249.186L184.95 162.08C193.927 157.222 198.33 150.316 197.133 142.973L189.245 94.5719C188.048 87.2286 192.454 80.3218 201.428 75.4651L326.681 7.68063C343.716 -1.53843 373.206 -0.527683 392.545 9.93801L698.806 175.681C718.144 186.147 720.012 202.106 702.977 211.325Z" fill="#06DF72"/>
<path d="M325.802 7.20447C343.424 -2.33214 373.708 -1.20791 393.424 9.462L699.685 175.205C719.401 185.875 721.479 202.264 703.857 211.801L329.384 414.458C311.762 423.995 281.478 422.871 261.762 412.201L27.2854 285.306C7.56966 274.636 5.49219 258.247 23.1139 248.71L184.071 161.603C192.766 156.897 197.061 150.193 195.894 143.032L188.007 94.6312C186.78 87.106 191.294 79.998 200.549 74.9892L325.802 7.20447Z" stroke="#EBF0FF" stroke-width="2"/>
</g>
<g filter="url(#filter2_d_1218_17472)">
<path d="M704.598 211.474L330.127 414.131C313.092 423.35 283.601 422.339 264.263 411.873L29.7863 284.979C10.4477 274.513 8.58006 258.554 25.6151 249.335L186.571 162.228C195.548 157.37 199.952 150.465 198.754 143.121L190.866 94.7203C189.669 87.3771 194.075 80.4702 203.05 75.6136L328.302 7.82905C345.337 -1.39 374.827 -0.379247 394.166 10.0864L700.427 175.829C719.766 186.295 721.633 202.254 704.598 211.474Z" fill="url(#paint0_linear_1218_17472)" shape-rendering="crispEdges"/>
<path d="M327.423 7.35291C345.045 -2.18372 375.329 -1.05948 395.045 9.61043L701.306 175.353C721.022 186.023 723.1 202.412 705.478 211.949L331.005 414.607C313.383 424.143 283.099 423.019 263.383 412.349L28.9065 285.455C9.19076 274.785 7.11328 258.396 24.735 248.859L185.692 161.752C194.387 157.046 198.682 150.342 197.515 143.18L189.628 94.7796C188.401 87.2545 192.915 80.1465 202.17 75.1377L327.423 7.35291Z" stroke="#EBF0FF" stroke-width="2" shape-rendering="crispEdges"/>
</g>
</g>
<defs>
<filter id="filter0_d_1218_17472" x="0.855469" y="48.8105" width="725.26" height="444.605" filterUnits="userSpaceOnUse" color-interpolation-filters="sRGB">
<feFlood flood-opacity="0" result="BackgroundImageFix"/>
<feColorMatrix in="SourceAlpha" type="matrix" values="0 0 0 0 0 0 0 0 0 0 0 0 0 0 0 0 0 0 127 0" result="hardAlpha"/>
<feOffset dy="14"/>
<feGaussianBlur stdDeviation="4.5"/>
<feComposite in2="hardAlpha" operator="out"/>
<feColorMatrix type="matrix" values="0 0 0 0 0 0 0 0 0 0 0 0 0 0 0 0 0 0 0.1 0"/>
<feBlend mode="normal" in2="BackgroundImageFix" result="effect1_dropShadow_1218_17472"/>
<feBlend mode="normal" in="SourceGraphic" in2="effect1_dropShadow_1218_17472" result="shape"/>
</filter>
<filter id="filter1_d_1218_17472" x="0.855469" y="0.0292969" width="725.26" height="444.605" filterUnits="userSpaceOnUse" color-interpolation-filters="sRGB">
<feFlood flood-opacity="0" result="BackgroundImageFix"/>
<feColorMatrix in="SourceAlpha" type="matrix" values="0 0 0 0 0 0 0 0 0 0 0 0 0 0 0 0 0 0 127 0" result="hardAlpha"/>
<feOffset dy="14"/>
<feGaussianBlur stdDeviation="4.5"/>
<feComposite in2="hardAlpha" operator="out"/>
<feColorMatrix type="matrix" values="0 0 0 0 0 0 0 0 0 0 0 0 0 0 0 0 0 0 0.1 0"/>
<feBlend mode="normal" in2="BackgroundImageFix" result="effect1_dropShadow_1218_17472"/>
<feBlend mode="normal" in="SourceGraphic" in2="effect1_dropShadow_1218_17472" result="shape"/>
</filter>
<filter id="filter2_d_1218_17472" x="2.47656" y="0.177734" width="725.26" height="444.605" filterUnits="userSpaceOnUse" color-interpolation-filters="sRGB">
<feFlood flood-opacity="0" result="BackgroundImageFix"/>
<feColorMatrix in="SourceAlpha" type="matrix" values="0 0 0 0 0 0 0 0 0 0 0 0 0 0 0 0 0 0 127 0" result="hardAlpha"/>
<feOffset dy="14"/>
<feGaussianBlur stdDeviation="4.5"/>
<feComposite in2="hardAlpha" operator="out"/>
<feColorMatrix type="matrix" values="0 0 0 0 0 0 0 0 0 0 0 0 0 0 0 0 0 0 0.1 0"/>
<feBlend mode="normal" in2="BackgroundImageFix" result="effect1_dropShadow_1218_17472"/>
<feBlend mode="normal" in="SourceGraphic" in2="effect1_dropShadow_1218_17472" result="shape"/>
</filter>
<linearGradient id="paint0_linear_1218_17472" x1="296.99" y1="45.4961" x2="329.046" y2="333.745" gradientUnits="userSpaceOnUse">
<stop stop-color="white"/>
<stop offset="1" stop-color="white" stop-opacity="0"/>
</linearGradient>
</defs>
</svg>
