<svg width="236" height="224" viewBox="0 0 236 224" fill="none" xmlns="http://www.w3.org/2000/svg">
<path d="M67.1016 68.0645C71.799 68.4956 76.3704 69.4584 80.7314 70.9121L81.1523 81.6064L81.165 81.9219L81.4551 82.0459C83.4578 82.9074 85.3894 83.8923 87.248 84.9873L87.5205 85.1475L87.7832 84.9697L96.6562 78.9531C100.454 81.6455 103.938 84.7605 107.029 88.2363L102.048 97.7109L101.901 97.9912L102.091 98.2441C103.387 99.9694 104.579 101.79 105.646 103.685L105.803 103.96L106.118 103.938L116.822 103.161C118.744 107.32 120.205 111.753 121.148 116.387L112.087 122.114L111.821 122.282L111.856 122.594C111.923 123.169 111.998 123.7 112.036 124.25V124.259C112.178 125.875 112.238 127.483 112.226 129.079L112.223 129.396L112.508 129.533L122.14 134.197C121.72 138.902 120.758 143.47 119.304 147.835L108.613 148.254L108.3 148.267L108.175 148.555C107.308 150.554 106.322 152.488 105.229 154.353L105.07 154.625L105.247 154.887L111.257 163.755C108.569 167.557 105.456 171.037 101.979 174.133L92.5039 169.151L92.2246 169.005L91.9717 169.194C90.2392 170.49 88.4197 171.676 86.5332 172.754L86.2598 172.91L86.2822 173.225L87.0547 183.931C82.8896 185.848 78.4615 187.303 73.8164 188.258L68.0957 179.181L67.9258 178.911L67.6104 178.951C67.0495 179.022 66.5099 179.098 65.9648 179.142L65.9609 179.143C64.3449 179.282 62.7343 179.336 61.1416 179.326L60.8262 179.324L60.6885 179.607L56.0088 189.245C51.3075 188.821 46.7466 187.855 42.3848 186.405L41.9629 175.709L41.9502 175.394L41.6592 175.27L40.9141 174.943C39.1823 174.167 37.4981 173.291 35.8682 172.322L35.5957 172.16L35.332 172.338L26.4629 178.354C22.6671 175.669 19.1761 172.556 16.085 169.069L21.0693 159.598L21.2168 159.318L21.0273 159.065C19.7313 157.335 18.5433 155.521 17.4707 153.626L17.3145 153.351L16.999 153.373L6.29883 154.148C4.37996 149.991 2.92355 145.557 1.96875 140.923L11.041 135.202L11.3115 135.031L11.2695 134.714C11.2323 134.432 11.1961 134.156 11.1631 133.881L11.0762 133.058C10.9364 131.442 10.8847 129.836 10.8945 128.235L10.8965 127.92L10.6123 127.783L0.974609 123.117C1.39886 118.408 2.3557 113.845 3.80957 109.481L14.5088 109.062L14.8252 109.049L14.9492 108.759C15.8025 106.763 16.7939 104.834 17.8965 102.973L18.0586 102.699L17.8799 102.437L11.8584 93.5664C14.5417 89.7649 17.6568 86.2825 21.1377 83.1865L30.6191 88.1719L30.8994 88.3193L31.1533 88.1279C32.8721 86.8284 34.695 85.6407 36.5879 84.5703L36.8633 84.4141L36.8408 84.0986L36.0596 73.3945C40.2225 71.475 44.6546 70.0143 49.2949 69.0615L55.0146 78.1328L55.1836 78.4004L55.4971 78.3623C56.058 78.2947 56.605 78.2244 57.1621 78.1758L57.1611 78.1748C58.7872 78.0373 60.3851 77.9745 61.9795 77.9893L62.2959 77.9922L62.4336 77.707L67.1016 68.0645ZM87.2588 126.415C86.0303 112.227 73.5158 101.717 59.3154 102.958C45.3438 104.17 34.9513 116.315 35.8018 130.234L35.8516 130.898C37.0743 144.905 49.2881 155.327 63.2559 154.397V154.407L63.7998 154.36C77.993 153.127 88.4921 140.615 87.2588 126.415Z" fill="url(#paint0_linear_43747_46)" stroke="white"/>
<path d="M148.99 131.838C152.073 131.483 155.171 131.45 158.24 131.724L160.196 139.177L160.278 139.487L160.594 139.543C162.64 139.9 164.66 140.419 166.627 141.1L166.932 141.205L167.153 140.971L172.444 135.375C175.271 136.614 177.973 138.132 180.521 139.925L178.483 147.33L178.397 147.641L178.646 147.848C180.233 149.168 181.72 150.631 183.104 152.228L183.315 152.472L183.625 152.379L190.991 150.176C191.907 151.415 192.764 152.7 193.553 154.04L193.554 154.041C194.352 155.386 195.072 156.761 195.715 158.155L190.242 163.556L190.013 163.781L190.123 164.083C190.846 166.06 191.417 168.078 191.823 170.1L191.886 170.413L192.197 170.487L199.663 172.272C200.004 175.368 200.032 178.461 199.757 181.533L192.313 183.48L192.001 183.562L191.947 183.879C191.595 185.93 191.068 187.945 190.393 189.903L190.288 190.207L190.521 190.429L196.112 195.732C194.89 198.55 193.367 201.253 191.573 203.798L184.164 201.767L183.854 201.682L183.648 201.929C182.33 203.509 180.866 205.002 179.274 206.385L179.031 206.597L179.123 206.905L181.315 214.272C180.077 215.186 178.8 216.044 177.454 216.839L177.453 216.84C176.111 217.637 174.741 218.355 173.358 218.989L167.934 213.517L167.707 213.288L167.404 213.4C165.428 214.133 163.422 214.702 161.396 215.093L161.079 215.154L161.004 215.469L159.227 222.941C156.136 223.287 153.031 223.306 149.965 223.038L148.017 215.589L147.936 215.276L147.616 215.223L146.846 215.084C145.054 214.742 143.307 214.273 141.582 213.674L141.277 213.568L141.056 213.802L135.751 219.388C132.937 218.166 130.24 216.642 127.695 214.852L129.725 207.438L129.81 207.128L129.563 206.922C127.985 205.602 126.484 204.139 125.106 202.551L124.896 202.308L124.587 202.399L117.208 204.594C116.3 203.364 115.445 202.072 114.647 200.723L114.646 200.721L114.328 200.181C113.656 199.018 113.049 197.829 112.494 196.622L117.964 191.226L118.192 191L118.082 190.698C117.359 188.714 116.794 186.707 116.4 184.677L116.339 184.36L116.025 184.285L108.547 182.508C108.203 179.415 108.171 176.314 108.451 173.246L115.896 171.293L116.205 171.212L116.261 170.896C116.621 168.847 117.126 166.828 117.806 164.86L117.91 164.556L117.677 164.334L112.086 159.038C113.323 156.217 114.838 153.513 116.633 150.974L124.039 153.009L124.35 153.095L124.556 152.847C125.876 151.262 127.342 149.776 128.932 148.39L129.174 148.179L129.083 147.871L126.89 140.491C128.125 139.586 129.412 138.727 130.753 137.937L130.756 137.936C132.095 137.135 133.479 136.427 134.867 135.788L140.271 141.256L140.499 141.485L140.802 141.373C142.775 140.639 144.777 140.069 146.798 139.678L147.113 139.616L147.188 139.304L148.99 131.838ZM169.404 167.338C164.169 159.001 153.133 156.357 144.665 161.6C136.708 166.523 133.873 177.148 138.243 185.371L138.457 185.762C143.438 194.567 154.643 197.542 163.316 192.415C171.877 187.349 174.713 176.3 169.649 167.739V167.738L169.404 167.338Z" fill="url(#paint1_linear_43747_46)" stroke="white"/>
<line x1="135.522" y1="123.146" x2="125.224" y2="89.3161" stroke="white"/>
<line y1="-0.5" x2="66.1976" y2="-0.5" transform="matrix(-0.886095 -0.463503 0.463492 -0.886101 186.16 122.561)" stroke="white"/>
<path d="M186.497 80.9995L127.51 88.7676" stroke="white"/>
<path d="M178.94 36.3766L126.269 86.2578" stroke="white"/>
<line x1="63.7663" y1="119.558" x2="125.479" y2="86.9235" stroke="white"/>
<line x1="66.3193" y1="35.6153" x2="126.029" y2="85.1758" stroke="white"/>
<path d="M123.996 38.5007L126.205 85.6007" stroke="white"/>
<g filter="url(#filter1_f_43747_46)">
<path d="M125.71 102.654C134.153 102.654 140.997 95.8091 140.997 87.3659C140.997 78.9227 134.153 72.0781 125.71 72.0781C117.266 72.0781 110.422 78.9227 110.422 87.3659C110.422 95.8091 117.266 102.654 125.71 102.654Z" fill="url(#paint2_linear_43747_46)"/>
</g>
<circle cx="125.71" cy="87.3659" r="15.2878" fill="#06DF72"/>
<g filter="url(#filter2_f_43747_46)">
<path d="M66.4641 46.936C72.2454 46.936 76.9321 42.2493 76.9321 36.468C76.9321 30.6867 72.2454 26 66.4641 26C60.6828 26 55.9961 30.6867 55.9961 36.468C55.9961 42.2493 60.6828 46.936 66.4641 46.936Z" fill="url(#paint3_linear_43747_46)"/>
</g>
<circle cx="66.4641" cy="36.468" r="10.468" fill="white"/>
<g filter="url(#filter3_f_43747_46)">
<path d="M123.464 46.936C129.245 46.936 133.932 42.2493 133.932 36.468C133.932 30.6867 129.245 26 123.464 26C117.683 26 112.996 30.6867 112.996 36.468C112.996 42.2493 117.683 46.936 123.464 46.936Z" fill="url(#paint4_linear_43747_46)"/>
</g>
<circle cx="123.464" cy="36.468" r="10.468" fill="white"/>
<g filter="url(#filter4_f_43747_46)">
<path d="M136.464 133.936C142.245 133.936 146.932 129.249 146.932 123.468C146.932 117.687 142.245 113 136.464 113C130.683 113 125.996 117.687 125.996 123.468C125.996 129.249 130.683 133.936 136.464 133.936Z" fill="url(#paint5_linear_43747_46)"/>
</g>
<circle cx="136.464" cy="123.468" r="10.468" fill="white"/>
<g filter="url(#filter5_f_43747_46)">
<path d="M180.464 46.936C186.245 46.936 190.932 42.2493 190.932 36.468C190.932 30.6867 186.245 26 180.464 26C174.683 26 169.996 30.6867 169.996 36.468C169.996 42.2493 174.683 46.936 180.464 46.936Z" fill="url(#paint6_linear_43747_46)"/>
</g>
<circle cx="180.464" cy="36.468" r="10.468" fill="white"/>
<g filter="url(#filter6_f_43747_46)">
<path d="M186.464 90.936C192.245 90.936 196.932 86.2493 196.932 80.468C196.932 74.6867 192.245 70 186.464 70C180.683 70 175.996 74.6867 175.996 80.468C175.996 86.2493 180.683 90.936 186.464 90.936Z" fill="url(#paint7_linear_43747_46)"/>
</g>
<circle cx="186.464" cy="80.468" r="10.468" fill="white"/>
<g filter="url(#filter7_f_43747_46)">
<path d="M62.4641 130.936C68.2454 130.936 72.9321 126.249 72.9321 120.468C72.9321 114.687 68.2454 110 62.4641 110C56.6828 110 51.9961 114.687 51.9961 120.468C51.9961 126.249 56.6828 130.936 62.4641 130.936Z" fill="url(#paint8_linear_43747_46)"/>
</g>
<circle cx="62.4641" cy="120.468" r="10.468" fill="white"/>
<g filter="url(#filter8_f_43747_46)">
<path d="M189.409 134.936C195.191 134.936 199.877 130.249 199.877 124.468C199.877 118.687 195.191 114 189.409 114C183.628 114 178.941 118.687 178.941 124.468C178.941 130.249 183.628 134.936 189.409 134.936Z" fill="url(#paint9_linear_43747_46)"/>
</g>
<circle cx="189.409" cy="124.468" r="10.468" fill="white"/>
<defs>
<filter id="filter1_f_43747_46" x="75.2309" y="36.8872" width="100.956" height="100.958" filterUnits="userSpaceOnUse" color-interpolation-filters="sRGB">
<feFlood flood-opacity="0" result="BackgroundImageFix"/>
<feBlend mode="normal" in="SourceGraphic" in2="BackgroundImageFix" result="shape"/>
<feGaussianBlur stdDeviation="17.5955" result="effect1_foregroundBlur_43747_46"/>
</filter>
<filter id="filter2_f_43747_46" x="20.8052" y="-9.19093" width="91.3194" height="91.3174" filterUnits="userSpaceOnUse" color-interpolation-filters="sRGB">
<feFlood flood-opacity="0" result="BackgroundImageFix"/>
<feBlend mode="normal" in="SourceGraphic" in2="BackgroundImageFix" result="shape"/>
<feGaussianBlur stdDeviation="17.5955" result="effect1_foregroundBlur_43747_46"/>
</filter>
<filter id="filter3_f_43747_46" x="77.8052" y="-9.19093" width="91.3194" height="91.3174" filterUnits="userSpaceOnUse" color-interpolation-filters="sRGB">
<feFlood flood-opacity="0" result="BackgroundImageFix"/>
<feBlend mode="normal" in="SourceGraphic" in2="BackgroundImageFix" result="shape"/>
<feGaussianBlur stdDeviation="17.5955" result="effect1_foregroundBlur_43747_46"/>
</filter>
<filter id="filter4_f_43747_46" x="90.8052" y="77.8091" width="91.3194" height="91.3174" filterUnits="userSpaceOnUse" color-interpolation-filters="sRGB">
<feFlood flood-opacity="0" result="BackgroundImageFix"/>
<feBlend mode="normal" in="SourceGraphic" in2="BackgroundImageFix" result="shape"/>
<feGaussianBlur stdDeviation="17.5955" result="effect1_foregroundBlur_43747_46"/>
</filter>
<filter id="filter5_f_43747_46" x="134.805" y="-9.19093" width="91.3194" height="91.3174" filterUnits="userSpaceOnUse" color-interpolation-filters="sRGB">
<feFlood flood-opacity="0" result="BackgroundImageFix"/>
<feBlend mode="normal" in="SourceGraphic" in2="BackgroundImageFix" result="shape"/>
<feGaussianBlur stdDeviation="17.5955" result="effect1_foregroundBlur_43747_46"/>
</filter>
<filter id="filter6_f_43747_46" x="140.805" y="34.8091" width="91.3194" height="91.3174" filterUnits="userSpaceOnUse" color-interpolation-filters="sRGB">
<feFlood flood-opacity="0" result="BackgroundImageFix"/>
<feBlend mode="normal" in="SourceGraphic" in2="BackgroundImageFix" result="shape"/>
<feGaussianBlur stdDeviation="17.5955" result="effect1_foregroundBlur_43747_46"/>
</filter>
<filter id="filter7_f_43747_46" x="16.8052" y="74.8091" width="91.3194" height="91.3174" filterUnits="userSpaceOnUse" color-interpolation-filters="sRGB">
<feFlood flood-opacity="0" result="BackgroundImageFix"/>
<feBlend mode="normal" in="SourceGraphic" in2="BackgroundImageFix" result="shape"/>
<feGaussianBlur stdDeviation="17.5955" result="effect1_foregroundBlur_43747_46"/>
</filter>
<filter id="filter8_f_43747_46" x="143.75" y="78.8091" width="91.3194" height="91.3174" filterUnits="userSpaceOnUse" color-interpolation-filters="sRGB">
<feFlood flood-opacity="0" result="BackgroundImageFix"/>
<feBlend mode="normal" in="SourceGraphic" in2="BackgroundImageFix" result="shape"/>
<feGaussianBlur stdDeviation="17.5955" result="effect1_foregroundBlur_43747_46"/>
</filter>
<linearGradient id="paint0_linear_43747_46" x1="61.5576" y1="65.4369" x2="61.5576" y2="189.776" gradientUnits="userSpaceOnUse">
<stop stop-color="white" stop-opacity="0.3"/>
<stop offset="1" stop-color="white" stop-opacity="0.6"/>
</linearGradient>
<linearGradient id="paint1_linear_43747_46" x1="154.103" y1="129.45" x2="154.103" y2="223.723" gradientUnits="userSpaceOnUse">
<stop stop-color="white" stop-opacity="0.3"/>
<stop offset="1" stop-color="white" stop-opacity="0.6"/>
</linearGradient>
<linearGradient id="paint2_linear_43747_46" x1="111.564" y1="90.2455" x2="183.993" y2="75.5168" gradientUnits="userSpaceOnUse">
<stop stop-color="#07D46E"/>
<stop offset="1" stop-color="#D6B9FA"/>
</linearGradient>
<linearGradient id="paint3_linear_43747_46" x1="56.7782" y1="38.4398" x2="106.373" y2="28.3546" gradientUnits="userSpaceOnUse">
<stop stop-color="#694AFF"/>
<stop offset="0.51" stop-color="#BBBCFA"/>
<stop offset="1" stop-color="#D6B9FA"/>
</linearGradient>
<linearGradient id="paint4_linear_43747_46" x1="113.778" y1="38.4398" x2="163.373" y2="28.3546" gradientUnits="userSpaceOnUse">
<stop stop-color="#694AFF"/>
<stop offset="0.51" stop-color="#BBBCFA"/>
<stop offset="1" stop-color="#D6B9FA"/>
</linearGradient>
<linearGradient id="paint5_linear_43747_46" x1="126.778" y1="125.44" x2="176.373" y2="115.355" gradientUnits="userSpaceOnUse">
<stop stop-color="#694AFF"/>
<stop offset="0.51" stop-color="#BBBCFA"/>
<stop offset="1" stop-color="#D6B9FA"/>
</linearGradient>
<linearGradient id="paint6_linear_43747_46" x1="170.778" y1="38.4398" x2="220.373" y2="28.3546" gradientUnits="userSpaceOnUse">
<stop stop-color="#694AFF"/>
<stop offset="0.51" stop-color="#BBBCFA"/>
<stop offset="1" stop-color="#D6B9FA"/>
</linearGradient>
<linearGradient id="paint7_linear_43747_46" x1="176.778" y1="82.4398" x2="226.373" y2="72.3546" gradientUnits="userSpaceOnUse">
<stop stop-color="#694AFF"/>
<stop offset="0.51" stop-color="#BBBCFA"/>
<stop offset="1" stop-color="#D6B9FA"/>
</linearGradient>
<linearGradient id="paint8_linear_43747_46" x1="52.7782" y1="122.44" x2="102.373" y2="112.355" gradientUnits="userSpaceOnUse">
<stop stop-color="#694AFF"/>
<stop offset="0.51" stop-color="#BBBCFA"/>
<stop offset="1" stop-color="#D6B9FA"/>
</linearGradient>
<linearGradient id="paint9_linear_43747_46" x1="179.724" y1="126.44" x2="229.318" y2="116.355" gradientUnits="userSpaceOnUse">
<stop stop-color="#694AFF"/>
<stop offset="0.51" stop-color="#BBBCFA"/>
<stop offset="1" stop-color="#D6B9FA"/>
</linearGradient>
</defs>
</svg>
