<svg width="68" height="77" viewBox="0 0 68 77" fill="none" xmlns="http://www.w3.org/2000/svg">
<path d="M33.9684 76.2489V38.0931L0.849609 19.0781V57.171L33.9684 76.2489Z" fill="white"/>
<path d="M33.9688 76.2489V38.0931L67.1505 19.0781V57.171L33.9688 76.2489Z" fill="white" fill-opacity="0.42"/>
<path d="M33.9684 0L0.849609 19.0779L33.9684 38.0929L67.1501 19.0779L33.9684 0Z" fill="white" fill-opacity="0.42"/>
<path d="M33.9763 4L9 18.524L33.9763 33L59 18.524L33.9763 4Z" fill="#EE5000"/>
<path d="M31.8738 21.675C31.8738 20.8417 31.9822 20.1417 32.1988 19.575C32.4322 18.9917 32.7238 18.5083 33.0738 18.125C33.4238 17.725 33.7905 17.375 34.1738 17.075C34.5738 16.775 34.9488 16.4917 35.2988 16.225C35.6488 15.9417 35.9322 15.6333 36.1488 15.3C36.3655 14.9667 36.4738 14.5583 36.4738 14.075C36.4738 13.3583 36.2155 12.8083 35.6988 12.425C35.1988 12.025 34.4988 11.825 33.5988 11.825C32.5822 11.825 31.7405 12.075 31.0738 12.575C30.4238 13.075 30.0238 13.7917 29.8738 14.725H26.7488C26.8988 13.6083 27.2738 12.6417 27.8738 11.825C28.4905 11.0083 29.2905 10.375 30.2738 9.925C31.2572 9.475 32.3822 9.25 33.6488 9.25C34.8822 9.25 35.9488 9.45 36.8488 9.85C37.7655 10.25 38.4738 10.8083 38.9738 11.525C39.4905 12.2417 39.7488 13.0917 39.7488 14.075C39.7488 14.7917 39.6322 15.4 39.3988 15.9C39.1655 16.4 38.8655 16.8333 38.4988 17.2C38.1488 17.5667 37.7655 17.9 37.3488 18.2C36.9322 18.5 36.5405 18.8083 36.1738 19.125C35.8238 19.4417 35.5322 19.8 35.2988 20.2C35.0655 20.6 34.9488 21.0917 34.9488 21.675H31.8738ZM31.6238 28V24.4H35.2238V28H31.6238Z" fill="white"/>
</svg>
