<svg id="Слой_1" data-name="Слой 1" xmlns="http://www.w3.org/2000/svg" viewBox="0 0 4241 800"><defs><style>.cls-1{fill:#0072b0;}.cls-2{fill:#fff;}</style></defs><title>logo_full_dark</title><rect class="cls-1" x="-0.08" y="0.49" width="800" height="800" rx="74.83"/><path class="cls-2" d="M171.15,592.49v-384h89.41V520.08H452v72.41Z"/><path class="cls-2" d="M326.87,592.49v-384H493.09q51.56,0,88.87,16.73t57.6,48q20.3,31.27,20.3,74.06,0,43.35-20.3,74.33T582,468.79Q544.66,485,493.09,485H375.69l40.6-38.4V592.49Zm78.62-136L364.9,414.21H477.36q40.59,0,61.44-17.56t20.84-49.37q0-31.8-20.84-49.1t-61.44-17.27H364.9l40.59-42.25Zm155.25,136L464.19,453.16h95.45l96.55,139.33Z"/><rect class="cls-1" x="324.98" y="484.97" width="128.43" height="35.16"/><path class="cls-2" d="M1096.08,615.66V185.33h100.2V534.51h214.55v81.15Z"/><path class="cls-2" d="M1720.67,535.74h234.22v79.92h-333.2V185.33H1946.9v79.92H1720.67Zm-7.38-177.67h207.17v78.08H1713.29Z"/><path class="cls-2" d="M2135,615.66l184.43-255.13v72.55L2143,185.33h112.5l122.33,172.13-47.94,1.23,121.72-173.36H2559.2L2383.38,428.77V357.46l186.27,258.2h-115L2328.05,433.08h45.49L2248.75,615.66Z"/><path class="cls-2" d="M2760.22,615.66V185.33h207.17q60.24,0,104.2,19.67t67.93,56.25q24,36.58,24,86.37t-24,85.76q-24,36-67.93,55t-104.2,19.06H2840.76l64.54-59.63V615.66ZM2905.3,463.82,2840.76,398h117.41q30.12,0,44.58-13.53t14.43-36.89q0-23.36-14.43-36.88t-44.58-13.53H2840.76l64.54-65.78Zm112.5,151.84L2912.06,458.9h153.69l107,156.76Z"/><path class="cls-2" d="M3233,615.66l188.11-430.33h142.63l188.11,430.33h-150L3462.88,254.18h56.56L3380.51,615.66Zm111.89-75,36.87-104.51h198l36.88,104.51Z"/><path class="cls-2" d="M4053.67,625.49q-52.24,0-96.2-16.28t-76.23-46.42a211,211,0,0,1-50.11-71.31q-17.84-41.18-17.83-91t17.83-91a209,209,0,0,1,50.41-71.31q32.58-30.12,77.16-46.42t98.05-16.29q63.93,0,114,21.52t82.68,61.47l-92.83,81.77q-20.28-23.36-44-35.35t-52.56-12q-24,0-43.34,7.38a88.33,88.33,0,0,0-32.89,21.51,98.15,98.15,0,0,0-20.9,33.82q-7.36,19.68-7.38,44.87a126.21,126.21,0,0,0,7.38,44,97.53,97.53,0,0,0,20.9,34.12,92.52,92.52,0,0,0,32.28,21.82q18.73,7.69,42.11,7.69a142.37,142.37,0,0,0,47.95-8.3q23.37-8.29,49.8-28.59l81.15,99.59q-39.36,26.44-89.76,40.58T4053.67,625.49Zm61.48-73.15V388.81h126v182Z"/></svg>