<svg width="281" height="62" viewBox="0 0 281 62" fill="none" xmlns="http://www.w3.org/2000/svg">
<g clip-path="url(#clip0_4031_4944)">
<path d="M27.0658 40.9826L27.0482 40.9738L27.0349 40.9826L1.39887 26.2999C-0.466291 27.3761 -0.466291 30.0493 1.39887 31.1256L24.5304 44.3558C26.1178 45.2614 28.0667 45.257 29.6497 44.3426L46.9389 34.3412C48.2749 33.5712 49.095 32.1537 49.095 30.618V23.9198C49.095 22.4323 47.878 21.2248 46.3789 21.2248H31.0695L31.312 21.0804L32.9214 20.1179L34.0591 19.4398L34.2046 19.3523C35.7082 18.4554 35.6905 16.281 34.1693 15.4103L21.4439 8.12583C20.2798 7.45645 18.8423 7.46082 17.6783 8.13021L1.40327 17.5147C-0.3252 18.5122 -0.3252 20.9885 1.40327 21.986L22.8813 34.3762C24.7421 35.4525 27.079 34.1094 27.0658 31.9699L5.94493 19.7504L19.5919 11.8796L29.6409 17.7466L25.0287 20.4154C23.1547 21.5004 23.1547 24.1911 25.0287 25.2717H44.8576V30.7012L27.0658 40.9826Z" fill="#694AFF"/>
<path d="M47.6854 37.6955L26.927 50.2124L1.3926 35.0957C-0.464201 36.2041 -0.464201 38.9571 1.3926 40.0655L24.4117 53.6863C25.9964 54.6235 27.9453 54.6145 29.5212 53.6638L47.6898 42.7104C49.5642 41.5929 49.5642 38.8084 47.6854 37.6955Z" fill="#06DF72"/>
</g>
<path d="M61.751 44.1501V23.1094H66.5897V40.1817H76.9471V44.1501H61.751Z" fill="#593EDC"/>
<path d="M92.1525 40.2384V35.371H101.616V31.5564H92.1525V27.013H102.872V23.1094H87.4678V44.1501H103.248V40.2384H92.1525Z" fill="#593EDC"/>
<path d="M133.056 44.1501L125.286 33.2653L132.551 23.1094H127.347L122.624 29.8962L117.853 23.1094H112.409L119.689 33.4354L112.016 44.1501H117.524L122.472 36.8369L127.491 44.1501H133.056Z" fill="#593EDC"/>
<path d="M154.812 44.1501H162.279L157.915 37.663C159.072 37.0636 160.005 36.2619 160.676 35.2414C161.449 34.0671 161.832 32.6741 161.832 31.0462C161.832 29.4184 161.449 28.0173 160.676 26.8267C159.91 25.6362 158.817 24.721 157.405 24.0731C155.993 23.4333 154.318 23.1094 152.387 23.1094H142.407V44.1501H149.395V38.8616H151.302L154.82 44.1501H154.812ZM154.086 29.2402C154.549 29.6775 154.78 30.2849 154.78 31.0462C154.78 31.8075 154.549 32.4068 154.086 32.8523C153.624 33.2896 152.906 33.5164 151.94 33.5164H149.395V28.5842H151.94C152.906 28.5842 153.624 28.8028 154.086 29.2483V29.2402Z" fill="#593EDC"/>
<path d="M183.063 44.1501H190.333L181.218 23.1094H174.309L165.201 44.1501H172.343L173.739 40.4813H181.667L183.063 44.1501ZM175.681 35.371L177.695 30.0744L179.717 35.371H175.681Z" fill="#593EDC"/>
<path d="M207.861 38.1732C207.781 38.2056 207.708 38.2461 207.628 38.2704C206.911 38.5295 206.154 38.6591 205.397 38.6591C204.672 38.6591 204.02 38.5376 203.44 38.3028C202.876 38.076 202.361 37.7277 201.942 37.2823C201.515 36.8207 201.185 36.2781 200.967 35.6868C200.734 35.0308 200.613 34.3343 200.621 33.6297C200.621 32.8442 200.734 32.1477 200.967 31.5321C201.177 30.9409 201.515 30.4064 201.942 29.9529C202.369 29.5074 202.892 29.1592 203.472 28.9486C204.068 28.7219 204.744 28.6004 205.485 28.6004C206.379 28.6004 207.193 28.7866 207.934 29.1592C208.667 29.5317 209.351 30.0825 209.979 30.8114L214.296 26.9887C213.281 25.7415 212.001 24.7858 210.455 24.1136C208.9 23.4414 207.136 23.1094 205.155 23.1094C203.496 23.1094 201.982 23.3604 200.597 23.8707C199.22 24.3809 198.02 25.1017 197.013 26.0411C196.006 26.9725 195.209 28.1063 194.669 29.3779C194.114 30.6575 193.84 32.0829 193.84 33.6297C193.84 35.1766 194.114 36.602 194.669 37.8816C195.209 39.145 195.998 40.2789 196.997 41.2183C197.996 42.1578 199.179 42.8786 200.54 43.3888C201.902 43.899 203.391 44.1501 205.01 44.1501C206.476 44.1501 207.99 43.9314 209.553 43.486C211.115 43.0487 212.508 42.417 213.724 41.5909V33.0871H207.861V38.1813V38.1732Z" fill="#593EDC"/>
<path d="M214.297 18.6005V17.8496H219.564V18.6005H217.358V24.8632H216.511V18.6005H214.305H214.297ZM220.866 17.8496H221.881L224.263 23.673H224.343L226.725 17.8496H227.74V24.8632H226.948V19.5351H226.876L224.687 24.8632H223.919L221.73 19.5351H221.666V24.8632H220.874V17.8496H220.866Z" fill="#593EDC"/>
<defs>
<clipPath id="clip0_4031_4944">
<rect width="49.6795" height="49.6795" fill="white" transform="translate(0 6.16016)"/>
</clipPath>
</defs>
</svg>
