<svg id="Layer_1" data-name="Layer 1" xmlns="http://www.w3.org/2000/svg" viewBox="0 0 274.61 58.43"><defs><style>.cls-1{fill:#593edc;}.cls-2{fill:#06df72;}</style></defs><title>_Landscape_sRGB_Two_Tone</title><path class="cls-1" d="M33.66,41.59h0L1.74,23.33a3.46,3.46,0,0,0,0,6L30.51,45.78a6.41,6.41,0,0,0,6.37,0l21.5-12.44a5.35,5.35,0,0,0,2.68-4.63V20.37A3.37,3.37,0,0,0,57.68,17h-19l.3-.18,2-1.19,1.41-.85.18-.11a2.83,2.83,0,0,0,0-4.9L26.67.72A4.68,4.68,0,0,0,22,.73L1.75,12.4a3.2,3.2,0,0,0,0,5.56L28.46,33.37a3.46,3.46,0,0,0,5.2-3L7.39,15.18l17-9.79,12.5,7.3L31.13,16a3.48,3.48,0,0,0,0,6H55.79V28.8Z"/><path class="cls-2" d="M59.31,37.5,33.49,53.07,1.73,34.26a3.63,3.63,0,0,0,0,6.19L30.36,57.39a6.2,6.2,0,0,0,6.36,0L59.31,43.74A3.66,3.66,0,0,0,59.31,37.5Z"/><path class="cls-1" d="M77.09,42.18v-26h6v21h13v5Z"/><polygon class="cls-1" points="114.5 37.34 114.5 31.33 126.57 31.33 126.57 26.61 114.5 26.61 114.5 21.01 128.16 21.01 128.16 16.19 108.53 16.19 108.53 42.16 128.65 42.16 128.65 37.34 114.5 37.34"/><polygon class="cls-1" points="165.75 42.16 156.06 28.73 165.12 16.19 158.63 16.19 152.75 24.57 146.79 16.19 140 16.19 149.08 28.94 139.52 42.16 146.38 42.16 152.56 33.14 158.81 42.16 165.75 42.16"/><path class="cls-1" d="M192.81,42.17h9.35l-5.47-8a9,9,0,0,0,3.46-3A9.08,9.08,0,0,0,201.6,26a9,9,0,0,0-5.55-8.6,15.15,15.15,0,0,0-6.29-1.19h-12.5v26H186V35.63h2.38Zm-.91-18.41a2.88,2.88,0,0,1,.87,2.22,2.92,2.92,0,0,1-.87,2.23,3.85,3.85,0,0,1-2.69.82H186V22.94h3.19A3.8,3.8,0,0,1,191.9,23.76Z"/><path class="cls-1" d="M228.06,42.17h9.06l-11.36-26h-8.61l-11.35,26h8.9l1.74-4.53h9.88Zm-9.19-10.84,2.51-6.54,2.52,6.54Z"/><path class="cls-1" d="M258.77,34.79l-.29.12a8.35,8.35,0,0,1-2.76.48,6.26,6.26,0,0,1-2.43-.45,5.28,5.28,0,0,1-1.87-1.26,5.53,5.53,0,0,1-1.2-2,7.07,7.07,0,0,1-.43-2.54,7.21,7.21,0,0,1,.43-2.59,5.63,5.63,0,0,1,1.2-1.95,5.14,5.14,0,0,1,1.9-1.24,7.09,7.09,0,0,1,2.5-.43,6.64,6.64,0,0,1,3,.7,8.4,8.4,0,0,1,2.54,2L266.75,21A12.26,12.26,0,0,0,262,17.43a16.5,16.5,0,0,0-6.58-1.24,16.32,16.32,0,0,0-5.66.94,13.14,13.14,0,0,0-4.45,2.68,12,12,0,0,0-2.91,4.11,13.06,13.06,0,0,0-1,5.26,13,13,0,0,0,1,5.25,12.12,12.12,0,0,0,2.89,4.11,12.85,12.85,0,0,0,4.4,2.68,15.77,15.77,0,0,0,5.55.94,21,21,0,0,0,5.64-.81A18.16,18.16,0,0,0,266,39h0V28.5h-7.28Z"/><path class="cls-1" d="M274.61,15a4.29,4.29,0,0,1-4.38,4.33,4.31,4.31,0,1,1,0-8.61A4.29,4.29,0,0,1,274.61,15Zm-7.69,0a3.31,3.31,0,0,0,3.33,3.42,3.27,3.27,0,0,0,3.26-3.39,3.3,3.3,0,1,0-6.59,0Zm2.63,2.24h-1V13a8.51,8.51,0,0,1,1.64-.13,2.7,2.7,0,0,1,1.49.31,1.2,1.2,0,0,1,.42.94,1.1,1.1,0,0,1-.89,1v.05a1.26,1.26,0,0,1,.78,1,2.94,2.94,0,0,0,.32,1.07h-1.07a3.5,3.5,0,0,1-.34-1c-.08-.47-.34-.68-.89-.68h-.47Zm0-2.42h.47c.54,0,1-.18,1-.63s-.29-.65-.92-.65a2.7,2.7,0,0,0-.54,0Z"/></svg>