<svg id="Слой_1" data-name="Слой 1" xmlns="http://www.w3.org/2000/svg" viewBox="0 0 4253 800"><defs><style>.cls-1{fill:#0072b0;}.cls-2{fill:#fff;}</style></defs><title>logo_full_light</title><rect class="cls-1" x="-0.4" y="-0.32" width="800" height="800" rx="74.83"/><path class="cls-2" d="M170.82,591.68v-384h89.42V519.27H451.69v72.41Z"/><path class="cls-2" d="M326.55,591.68v-384H492.77q51.56,0,88.87,16.73t57.6,48q20.29,31.27,20.3,74.06,0,43.33-20.3,74.33T581.64,468q-37.3,16.18-88.87,16.18H375.37l40.6-38.4V591.68Zm78.62-136-40.6-42.24H477q40.59,0,61.44-17.55t20.85-49.37q0-31.82-20.85-49.1T477,280.09H364.57l40.6-42.24Zm155.25,136L463.87,452.34h95.45l96.55,139.34Z"/><rect class="cls-1" x="324.66" y="484.16" width="128.43" height="35.16"/><path class="cls-1" d="M1095.76,614.84V184.51H1196V533.7h214.55v81.14Z"/><path class="cls-1" d="M1720.35,534.93h234.22v79.91h-333.2V184.51h325.2v79.92H1720.35ZM1713,357.26h207.17v78.08H1713Z"/><path class="cls-1" d="M2134.69,614.84l184.43-255.12v72.54L2142.69,184.51h112.49l122.34,172.14-47.95,1.23L2451.3,184.51h107.58L2383.06,428V356.65l186.27,258.19h-115L2327.73,432.26h45.49L2248.43,614.84Z"/><path class="cls-1" d="M2759.9,614.84V184.51h207.17q60.24,0,104.2,19.68t67.93,56.25q24,36.57,24,86.37t-24,85.76q-24,36-67.93,55t-104.2,19.06H2840.44L2905,447V614.84ZM2905,463l-64.54-65.78h117.41q30.12,0,44.57-13.52t14.44-36.89q0-23.35-14.44-36.89t-44.57-13.52H2840.44L2905,230.62Zm112.5,151.84L2911.74,458.08h153.69l107,156.76Z"/><path class="cls-1" d="M3232.64,614.84l188.12-430.33h142.62L3751.5,614.84h-150L3462.56,253.37h56.56L3380.19,614.84Zm111.89-75,36.88-104.51h198l36.88,104.51Z"/><path class="cls-1" d="M4053.35,624.68q-52.24,0-96.2-16.29T3880.92,562a210.91,210.91,0,0,1-50.11-71.32q-17.83-41.18-17.83-91t17.83-91a209.06,209.06,0,0,1,50.41-71.32q32.58-30.1,77.16-46.41t98-16.29q63.93,0,114,21.51t82.68,61.48l-92.83,81.76q-20.28-23.35-44-35.35t-52.56-12q-24,0-43.34,7.37A88.35,88.35,0,0,0,3987.57,321a98.11,98.11,0,0,0-20.9,33.81q-7.38,19.68-7.38,44.88,0,24,7.38,44a97.39,97.39,0,0,0,20.9,34.11,92.41,92.41,0,0,0,32.28,21.83q18.74,7.69,42.11,7.68a142.13,142.13,0,0,0,47.95-8.3q23.37-8.29,49.8-28.58L4240.86,570q-39.36,26.43-89.76,40.57T4053.35,624.68Zm61.48-73.16V388h126V570Z"/></svg>