<svg id="Layer_1" data-name="Layer 1" xmlns="http://www.w3.org/2000/svg" viewBox="0 0 61.06 58.15"><defs><style>.cls-1{fill:#fff;}.cls-2{fill:#06df72;}</style></defs><title>Artboard 2</title><path class="cls-1" d="M33.66,41.49h0L1.74,23.23a3.46,3.46,0,0,0,0,6L30.51,45.68a6.41,6.41,0,0,0,6.37,0l21.5-12.44a5.35,5.35,0,0,0,2.68-4.63V20.27a3.37,3.37,0,0,0-3.38-3.36h-19l.3-.18,2-1.19,1.41-.85.18-.11a2.83,2.83,0,0,0,0-4.9L26.67.62A4.68,4.68,0,0,0,22,.63L1.75,12.3a3.2,3.2,0,0,0,0,5.56L28.46,33.27a3.46,3.46,0,0,0,5.2-3L7.39,15.08l17-9.79,12.5,7.3-5.74,3.32a3.48,3.48,0,0,0,0,6H55.79V28.7Z"/><path class="cls-2" d="M59.31,37.4,33.49,53,1.73,34.16a3.63,3.63,0,0,0,0,6.19L30.36,57.29a6.2,6.2,0,0,0,6.36,0L59.31,43.64A3.66,3.66,0,0,0,59.31,37.4Z"/></svg>