<svg id="Слой_1" data-name="Слой 1" xmlns="http://www.w3.org/2000/svg" viewBox="0 0 3409.12 538.08"><defs><style>.cls-1,.cls-2{fill:#fff;}.cls-2{font-size:200px;font-family:Helvetica-Bold, Helvetica;font-weight:700;letter-spacing:-0.05em;}</style></defs><title>white_tm</title><path class="cls-1" d="M0,538.08V107.75H100.2V456.93H314.75v81.15Z"/><path class="cls-1" d="M624.59,458.16H858.81v79.92H525.61V107.75H850.82v79.92H624.59Zm-7.38-177.67H824.38v78.08H617.21Z"/><path class="cls-1" d="M1038.92,538.08,1223.35,283V355.5L1046.92,107.75h112.5l122.33,172.13-47.94,1.23,121.72-173.36h107.59L1287.3,351.19V279.88l186.27,258.2h-115L1232,355.5h45.49L1152.67,538.08Z"/><path class="cls-1" d="M1664.14,538.08V107.75h207.17q60.24,0,104.2,19.67t67.93,56.25q24,36.57,24,86.37t-24,85.76q-24,36-67.93,55t-104.2,19.06H1744.68l64.54-59.63V538.08Zm145.08-151.84-64.54-65.82h117.41q30.12,0,44.58-13.53T1921.1,270q0-23.37-14.43-36.88t-44.58-13.53H1744.68l64.54-65.78Zm112.5,151.84L1816,381.32h153.69l107,156.76Z"/><path class="cls-1" d="M2136.92,538.08,2325,107.75h142.63l188.11,430.33h-150l-139-361.48h56.56L2284.43,538.08Zm111.89-75,36.87-104.51h198l36.88,104.51Z"/><path class="cls-1" d="M2955.7,538.06q-49.95,0-92-15.57t-72.89-44.39a201.93,201.93,0,0,1-47.92-68.19q-17.05-39.37-17.05-87t17.05-87a199.91,199.91,0,0,1,48.21-68.19q31.16-28.8,73.78-44.39t93.76-15.57q61.13,0,109,20.57t79.06,58.78L3058,265.27q-19.39-22.33-42.07-33.8T2965.62,220q-22.95,0-41.45,7.05a84.58,84.58,0,0,0-31.45,20.57,94.09,94.09,0,0,0-20,32.34q-7,18.82-7.06,42.91a120.82,120.82,0,0,0,7.06,42.07,93.28,93.28,0,0,0,20,32.63,88.61,88.61,0,0,0,30.87,20.86q17.91,7.35,40.27,7.36a136.25,136.25,0,0,0,45.85-7.94q22.35-7.94,47.62-27.34l77.6,95.23q-37.65,25.29-85.83,38.8T2955.7,538.06Zm58.79-69.95V311.74H3135v174Z"/><text class="cls-2" transform="translate(3134.97 143.71)">TM</text></svg>