<?xml version="1.0" encoding="UTF-8"?>
<svg id="Layer_1" data-name="Layer 1" xmlns="http://www.w3.org/2000/svg" viewBox="0 0 283.46 58.43">
  <defs>
    <style>
      .cls-1 {
        fill: #fff;
      }
    </style>
  </defs>
  <g>
    <path class="cls-1" d="M33.66,41.63h-.02s-.02,0-.02,0L1.74,23.36c-2.32,1.34-2.32,4.66,0,6l28.77,16.45c1.97,1.13,4.4,1.12,6.37-.02l21.5-12.44c1.66-.96,2.68-2.72,2.68-4.63v-8.33c0-1.85-1.51-3.35-3.38-3.35h-19.04l.3-.18,2-1.2,1.41-.84.18-.11c1.87-1.12,1.85-3.82-.04-4.9L26.67.76c-1.45-.83-3.24-.83-4.68,0L1.75,12.44c-2.15,1.24-2.15,4.32,0,5.56l26.71,15.41c2.31,1.34,5.22-.33,5.2-2.99L7.39,15.22,24.37,5.43l12.5,7.3-5.74,3.32c-2.33,1.35-2.33,4.7,0,6.04h24.66v6.75l-22.13,12.79Z"/>
    <path class="cls-1" d="M59.31,37.54l-25.82,15.57L1.73,34.3c-2.31,1.38-2.31,4.8,0,6.18l28.63,16.94c1.97,1.17,4.39,1.15,6.35-.03l22.6-13.62c2.33-1.39,2.33-4.85,0-6.24Z"/>
  </g>
  <path class="cls-1" d="M76.8,47.15v-25.98h6.05v21.08h12.95v4.9h-19Z"/>
  <polygon class="cls-1" points="114.51 42.33 114.51 36.31 126.57 36.31 126.57 31.6 114.51 31.6 114.51 26 128.16 26 128.16 21.17 108.53 21.17 108.53 47.15 128.64 47.15 128.64 42.33 114.51 42.33"/>
  <polygon class="cls-1" points="165.75 47.15 156.06 33.72 165.12 21.17 158.63 21.17 152.75 29.55 146.79 21.17 140 21.17 149.08 33.92 139.52 47.15 146.38 47.15 152.56 38.12 158.81 47.15 165.75 47.15"/>
  <path class="cls-1" d="M192.81,47.15h9.36l-5.47-8.01c1.45-.74,2.62-1.73,3.46-2.99.97-1.45,1.45-3.17,1.45-5.18s-.48-3.74-1.45-5.21c-.96-1.47-2.33-2.6-4.1-3.4-1.77-.79-3.87-1.19-6.29-1.19h-12.51v25.98h8.76v-6.53h2.39l4.41,6.53ZM191.9,28.74c.58.54.87,1.29.87,2.23,0,.94-.29,1.68-.87,2.23-.58.54-1.48.82-2.69.82h-3.19v-6.09h3.19c1.21,0,2.11.27,2.69.82Z"/>
  <path class="cls-1" d="M228.06,47.15h9.06l-11.36-25.98h-8.61l-11.35,25.98h8.9l1.74-4.53h9.88l1.74,4.53ZM218.87,36.31l2.51-6.54,2.52,6.54h-5.03Z"/>
  <path class="cls-1" d="M258.77,39.77c-.1.04-.19.09-.29.12-.89.32-1.83.48-2.77.48-.9,0-1.71-.15-2.43-.44-.7-.28-1.34-.71-1.86-1.26-.53-.57-.94-1.24-1.21-1.97-.29-.81-.44-1.67-.43-2.54,0-.97.14-1.83.43-2.59.26-.73.68-1.39,1.21-1.95.53-.55,1.18-.98,1.9-1.24.74-.28,1.58-.43,2.5-.43,1.11,0,2.12.23,3.04.69.91.46,1.76,1.14,2.54,2.04l5.36-4.72c-1.26-1.54-2.85-2.72-4.77-3.55-1.93-.83-4.12-1.24-6.58-1.24-2.06,0-3.94.31-5.66.94-1.71.63-3.2,1.52-4.45,2.68-1.25,1.15-2.24,2.55-2.91,4.12-.69,1.58-1.03,3.33-1.03,5.25s.34,3.67,1.03,5.25c.67,1.56,1.65,2.96,2.89,4.12,1.24,1.16,2.71,2.05,4.4,2.68,1.69.63,3.54.94,5.55.94,1.82,0,3.7-.27,5.64-.82,1.94-.54,3.67-1.32,5.18-2.34h0s0,0,0,0v-10.5h-7.28v6.29Z"/>
  <path class="cls-1" d="M266.63,15.58v-.94h6.59v.94h-2.76v7.84h-1.06v-7.84h-2.76ZM274.86,14.63h1.27l2.98,7.29h.1l2.98-7.29h1.27v8.78h-.99v-6.67h-.09l-2.74,6.67h-.96l-2.74-6.67h-.08v6.67h-.99v-8.78Z"/>
</svg>