<svg id="Layer_1" data-name="Layer 1" xmlns="http://www.w3.org/2000/svg" viewBox="0 0 283.46 58.43"><defs><style>.cls-1{fill:#593edc;}.cls-2{fill:#06df72;}</style></defs><title>_Landscape_sRGB_Two_Tone</title><path class="cls-1" d="M33.66,41.63l0,0,0,0L1.74,23.36a3.46,3.46,0,0,0,0,6L30.51,45.82a6.38,6.38,0,0,0,6.37,0l21.5-12.43a5.36,5.36,0,0,0,2.68-4.64V20.4a3.36,3.36,0,0,0-3.38-3.35h-19l.3-.18,2-1.19,1.41-.85.18-.11a2.83,2.83,0,0,0,0-4.9L26.67.76A4.68,4.68,0,0,0,22,.77L1.75,12.44a3.2,3.2,0,0,0,0,5.56L28.46,33.41a3.46,3.46,0,0,0,5.2-3L7.39,15.22l17-9.79,12.5,7.3-5.74,3.32a3.48,3.48,0,0,0,0,6H55.79v6.75Z"/><path class="cls-2" d="M59.31,37.54,33.49,53.1,1.73,34.3a3.62,3.62,0,0,0,0,6.18l28.63,17a6.2,6.2,0,0,0,6.36,0L59.31,43.77A3.65,3.65,0,0,0,59.31,37.54Z"/><path class="cls-1" d="M76.8,42.2v-26h6V37.3h13v4.9Z"/><polygon class="cls-1" points="114.5 37.38 114.5 31.37 126.57 31.37 126.57 26.65 114.5 26.65 114.5 21.05 128.16 21.05 128.16 16.23 108.53 16.23 108.53 42.2 128.65 42.2 128.65 37.38 114.5 37.38"/><polygon class="cls-1" points="165.75 42.2 156.06 28.77 165.12 16.23 158.63 16.23 152.75 24.6 146.79 16.23 140 16.23 149.08 28.98 139.52 42.2 146.38 42.2 152.56 33.17 158.81 42.2 165.75 42.2"/><path class="cls-1" d="M192.81,42.2h9.35l-5.47-8a8.87,8.87,0,0,0,3.46-3A9.08,9.08,0,0,0,201.6,26a9,9,0,0,0-5.55-8.61,15.32,15.32,0,0,0-6.29-1.18h-12.5v26H186V35.67h2.38Zm-.91-18.41a2.92,2.92,0,0,1,.87,2.23,2.92,2.92,0,0,1-.87,2.23,3.85,3.85,0,0,1-2.69.81H186V23h3.19A3.85,3.85,0,0,1,191.9,23.79Z"/><path class="cls-1" d="M228.06,42.2h9.06l-11.36-26h-8.61l-11.35,26h8.9l1.74-4.53h9.88Zm-9.19-10.83,2.51-6.55,2.52,6.55Z"/><path class="cls-1" d="M258.77,34.77a2.52,2.52,0,0,1-.29.12,8.1,8.1,0,0,1-2.76.48,6.45,6.45,0,0,1-2.43-.44,5.42,5.42,0,0,1-1.87-1.26,5.71,5.71,0,0,1-1.2-2,7.14,7.14,0,0,1-.43-2.54,7.21,7.21,0,0,1,.43-2.59,5.54,5.54,0,0,1,1.2-1.95,5,5,0,0,1,1.9-1.24,6.87,6.87,0,0,1,2.5-.43,6.63,6.63,0,0,1,3,.69,8.4,8.4,0,0,1,2.54,2L266.75,21A12.24,12.24,0,0,0,262,17.42a17.74,17.74,0,0,0-12.24-.31,13.14,13.14,0,0,0-4.45,2.68,12.17,12.17,0,0,0-2.91,4.12,13,13,0,0,0-1,5.25,13,13,0,0,0,1,5.25,12.25,12.25,0,0,0,2.89,4.12,13,13,0,0,0,4.4,2.68,15.77,15.77,0,0,0,5.55.94,20.63,20.63,0,0,0,5.64-.82A17.63,17.63,0,0,0,266,39h0V28.49h-7.28Z"/><path class="cls-1" d="M274.83,20.78V14h2a4.41,4.41,0,0,1,1.51.21,1.48,1.48,0,0,1,.84.65,2,2,0,0,1,.27,1.1,1.69,1.69,0,0,1-.35,1.06,2.42,2.42,0,0,1-1,.71l1.89,3h-1.26L277.09,18h-1.17v2.76Zm1.09-3.6h.93a1.7,1.7,0,0,0,1.1-.3,1,1,0,0,0,.38-.88.9.9,0,0,0-.41-.88,2.18,2.18,0,0,0-1.13-.24h-.87Zm1,6.76a6.31,6.31,0,0,1-2.52-.51A6.59,6.59,0,0,1,272.27,22,6.69,6.69,0,0,1,270.89,20a6.51,6.51,0,0,1,0-5.05,6.48,6.48,0,0,1,1.38-2.06,6.64,6.64,0,0,1,2.09-1.41,6.48,6.48,0,0,1,2.52-.5,6.33,6.33,0,0,1,2.52.5A6.53,6.53,0,0,1,282.88,20,6.6,6.6,0,0,1,281.47,22a6.39,6.39,0,0,1-2.07,1.39A6.17,6.17,0,0,1,276.88,23.94Zm0-.89a5.61,5.61,0,0,0,2.18-.42,5.85,5.85,0,0,0,1.8-1.22,5.7,5.7,0,0,0,1.2-1.78,5.53,5.53,0,0,0,.44-2.19,5.44,5.44,0,0,0-.44-2.18,5.52,5.52,0,0,0-3-3,5.44,5.44,0,0,0-2.18-.44,5.53,5.53,0,0,0-2.19.44,5.7,5.7,0,0,0-1.78,1.2,5.85,5.85,0,0,0-1.22,1.8,5.61,5.61,0,0,0-.43,2.18,5.7,5.7,0,0,0,.43,2.19,5.88,5.88,0,0,0,3,3A5.69,5.69,0,0,0,276.88,23.05Z"/></svg>