<svg width="30" height="30" viewBox="0 0 30 30" fill="none" xmlns="http://www.w3.org/2000/svg">
<g clip-path="url(#clip0_44089_9633)">
<path d="M22.4996 8.95C22.4246 8.9375 22.3371 8.9375 22.2621 8.95C20.5371 8.8875 19.1621 7.475 19.1621 5.725C19.1621 3.9375 20.5996 2.5 22.3871 2.5C24.1746 2.5 25.6121 3.95 25.6121 5.725C25.5996 7.475 24.2246 8.8875 22.4996 8.95Z" stroke="white" stroke-linecap="round" stroke-linejoin="round"/>
<path d="M21.2113 18.0502C22.9238 18.3377 24.8113 18.0377 26.1363 17.1502C27.8988 15.9752 27.8988 14.0502 26.1363 12.8752C24.7988 11.9877 22.8863 11.6877 21.1738 11.9877" stroke="white" stroke-linecap="round" stroke-linejoin="round"/>
<path d="M7.46406 8.95C7.53906 8.9375 7.62656 8.9375 7.70156 8.95C9.42656 8.8875 10.8016 7.475 10.8016 5.725C10.8016 3.9375 9.36406 2.5 7.57656 2.5C5.78906 2.5 4.35156 3.95 4.35156 5.725C4.36406 7.475 5.73906 8.8875 7.46406 8.95Z" stroke="white" stroke-linecap="round" stroke-linejoin="round"/>
<path d="M8.75078 18.0502C7.03828 18.3377 5.15078 18.0377 3.82578 17.1502C2.06328 15.9752 2.06328 14.0502 3.82578 12.8752C5.16328 11.9877 7.07578 11.6877 8.78828 11.9877" stroke="white" stroke-linecap="round" stroke-linejoin="round"/>
<path d="M14.9996 18.2859C14.9246 18.2734 14.8371 18.2734 14.7621 18.2859C13.0371 18.2234 11.6621 16.8109 11.6621 15.0609C11.6621 13.2734 13.0996 11.8359 14.8871 11.8359C16.6746 11.8359 18.1121 13.2859 18.1121 15.0609C18.0996 16.8109 16.7246 18.2359 14.9996 18.2859Z" stroke="white" stroke-linecap="round" stroke-linejoin="round"/>
<path d="M11.3629 22.2242C9.60039 23.3992 9.60039 25.3242 11.3629 26.4992C13.3629 27.8367 16.6379 27.8367 18.6379 26.4992C20.4004 25.3242 20.4004 23.3992 18.6379 22.2242C16.6504 20.8992 13.3629 20.8992 11.3629 22.2242Z" stroke="white" stroke-linecap="round" stroke-linejoin="round"/>
</g>
<defs>
<clipPath id="clip0_44089_9633">
<rect width="30" height="30" fill="white"/>
</clipPath>
</defs>
</svg>
