<svg width="30" height="30" viewBox="0 0 30 30" fill="none" xmlns="http://www.w3.org/2000/svg">
<path d="M20.875 23.7242H9.125C8.6 23.7242 8.0125 23.3117 7.8375 22.8117L2.6625 8.33672C1.925 6.26172 2.7875 5.62422 4.5625 6.89922L9.4375 10.3867C10.25 10.9492 11.175 10.6617 11.525 9.74922L13.725 3.88672C14.425 2.01172 15.5875 2.01172 16.2875 3.88672L18.4875 9.74922C18.8375 10.6617 19.7625 10.9492 20.5625 10.3867L25.1375 7.12422C27.0875 5.72422 28.025 6.43672 27.225 8.69922L22.175 22.8367C21.9875 23.3117 21.4 23.7242 20.875 23.7242Z" stroke="#06DF72" stroke-width="1.5" stroke-linecap="round" stroke-linejoin="round"/>
<path d="M8.125 27.5H21.875" stroke="#06DF72" stroke-width="1.5" stroke-linecap="round" stroke-linejoin="round"/>
<path d="M11.875 17.5H18.125" stroke="#06DF72" stroke-width="1.5" stroke-linecap="round" stroke-linejoin="round"/>
</svg>
