<svg width="30" height="30" viewBox="0 0 30 30" fill="none" xmlns="http://www.w3.org/2000/svg">
<path d="M22.4308 5.02405C22.9626 3.86581 22.4548 2.49574 21.2965 1.96392C20.1383 1.43209 18.7682 1.9399 18.2364 3.09813C17.7046 4.25637 18.2124 5.62644 19.3706 6.15827C20.5289 6.6901 21.8989 6.18229 22.4308 5.02405Z" stroke="#06DF72" stroke-width="1.5" stroke-linecap="round" stroke-linejoin="round"/>
<path d="M29.0002 16.0009C29.0002 14.7264 27.967 13.6932 26.6925 13.6932C25.418 13.6932 24.3848 14.7264 24.3848 16.0009C24.3848 17.2754 25.418 18.3086 26.6925 18.3086C27.967 18.3086 29.0002 17.2754 29.0002 16.0009Z" stroke="#06DF72" stroke-width="1.5" stroke-linecap="round" stroke-linejoin="round"/>
<path d="M24.6154 26.3095C24.6154 25.035 23.5822 24.0018 22.3077 24.0018C21.0332 24.0018 20 25.035 20 26.3095C20 27.584 21.0332 28.6172 22.3077 28.6172C23.5822 28.6172 24.6154 27.584 24.6154 26.3095Z" stroke="#06DF72" stroke-width="1.5" stroke-linecap="round" stroke-linejoin="round"/>
<path d="M0.99985 10.3077C0.99985 11.5822 2.03304 12.6154 3.30754 12.6154C4.58205 12.6154 5.61523 11.5822 5.61523 10.3077C5.61523 9.03319 4.58205 8 3.30754 8C2.03304 8 0.99985 9.03319 0.99985 10.3077Z" stroke="#06DF72" stroke-width="1.5" stroke-linecap="round" stroke-linejoin="round"/>
<path d="M3.99985 26.3077C3.99985 27.5822 5.03304 28.6154 6.30754 28.6154C7.58205 28.6154 8.61523 27.5822 8.61523 26.3077C8.61523 25.0332 7.58205 24 6.30754 24C5.03304 24 3.99985 25.0332 3.99985 26.3077Z" stroke="#06DF72" stroke-width="1.5" stroke-linecap="round" stroke-linejoin="round"/>
<path d="M17.3087 16.0009C17.3087 14.7264 16.2756 13.6932 15.0011 13.6932C13.7265 13.6932 12.6934 14.7264 12.6934 16.0009C12.6934 17.2754 13.7265 18.3086 15.0011 18.3086C16.2756 18.3086 17.3087 17.2754 17.3087 16.0009Z" stroke="#06DF72" stroke-width="1.5" stroke-linecap="round" stroke-linejoin="round"/>
<path d="M16 13.5L19.3704 6.15988" stroke="#06DF72" stroke-width="1.5" stroke-linecap="round" stroke-linejoin="round"/>
<path d="M18 16.0039L24 16" stroke="#06DF72" stroke-width="1.5" stroke-linecap="round" stroke-linejoin="round"/>
<path d="M17 18L21 24" stroke="#06DF72" stroke-width="1.5" stroke-linecap="round" stroke-linejoin="round"/>
<path d="M13 18L8 24" stroke="#06DF72" stroke-width="1.5" stroke-linecap="round" stroke-linejoin="round"/>
<path d="M12 15L5 12" stroke="#06DF72" stroke-width="1.5" stroke-linecap="round" stroke-linejoin="round"/>
</svg>
