<svg width="30" height="30" viewBox="0 0 30 30" fill="none" xmlns="http://www.w3.org/2000/svg">
<path d="M2.5 11.25V8.125C2.5 5.0125 5.0125 2.5 8.125 2.5H11.25" stroke="#06DF72" stroke-width="1.5" stroke-linecap="round" stroke-linejoin="round"/>
<path d="M18.75 2.5H21.875C24.9875 2.5 27.5 5.0125 27.5 8.125V11.25" stroke="#06DF72" stroke-width="1.5" stroke-linecap="round" stroke-linejoin="round"/>
<path d="M27.5 20V21.875C27.5 24.9875 24.9875 27.5 21.875 27.5H20" stroke="#06DF72" stroke-width="1.5" stroke-linecap="round" stroke-linejoin="round"/>
<path d="M11.25 27.5H8.125C5.0125 27.5 2.5 24.9875 2.5 21.875V18.75" stroke="#06DF72" stroke-width="1.5" stroke-linecap="round" stroke-linejoin="round"/>
<path d="M10.625 13.75C12.3509 13.75 13.75 12.3509 13.75 10.625C13.75 8.89911 12.3509 7.5 10.625 7.5C8.89911 7.5 7.5 8.89911 7.5 10.625C7.5 12.3509 8.89911 13.75 10.625 13.75Z" stroke="#06DF72" stroke-width="1.5" stroke-linecap="round" stroke-linejoin="round"/>
<path d="M9.375 22.5C10.4105 22.5 11.25 21.6605 11.25 20.625C11.25 19.5895 10.4105 18.75 9.375 18.75C8.33947 18.75 7.5 19.5895 7.5 20.625C7.5 21.6605 8.33947 22.5 9.375 22.5Z" stroke="#06DF72" stroke-width="1.5" stroke-linecap="round" stroke-linejoin="round"/>
<path d="M20.625 11.25C21.6605 11.25 22.5 10.4105 22.5 9.375C22.5 8.33947 21.6605 7.5 20.625 7.5C19.5895 7.5 18.75 8.33947 18.75 9.375C18.75 10.4105 19.5895 11.25 20.625 11.25Z" stroke="#06DF72" stroke-width="1.5" stroke-linecap="round" stroke-linejoin="round"/>
<path d="M19.375 22.5C21.1009 22.5 22.5 21.1009 22.5 19.375C22.5 17.6491 21.1009 16.25 19.375 16.25C17.6491 16.25 16.25 17.6491 16.25 19.375C16.25 21.1009 17.6491 22.5 19.375 22.5Z" stroke="#06DF72" stroke-width="1.5" stroke-linecap="round" stroke-linejoin="round"/>
</svg>
