<svg width="200" height="201" viewBox="0 0 200 201" fill="none" xmlns="http://www.w3.org/2000/svg">
<path d="M70.5 136.428C107.779 136.428 138 106.27 138 69.0693C138 31.8683 107.779 1.71094 70.5 1.71094C33.2208 1.71094 3 31.8683 3 69.0693C3 106.27 33.2208 136.428 70.5 136.428Z" fill="url(#paint0_linear_44089_7233)" stroke="white" stroke-width="1.5" stroke-miterlimit="10"/>
<path d="M70.4988 136.428C86.4939 136.428 99.4605 106.27 99.4605 69.0693C99.4605 31.8683 86.4939 1.71094 70.4988 1.71094C54.5037 1.71094 41.5371 31.8683 41.5371 69.0693C41.5371 106.27 54.5037 136.428 70.4988 136.428Z" stroke="white" stroke-width="1.5" stroke-miterlimit="10"/>
<path d="M70.498 136.351L70.498 1.71094" stroke="white" stroke-width="1.5" stroke-miterlimit="10"/>
<path d="M137.923 69.0703L3 69.0703" stroke="white" stroke-width="1.5" stroke-miterlimit="10"/>
<path d="M23.7734 20.5156C23.7734 20.5156 70.8844 44.9465 117.146 20.5156" stroke="white" stroke-width="1.5" stroke-miterlimit="10"/>
<path d="M117.148 118C117.148 118 70.0375 93.5691 23.776 118" stroke="white" stroke-width="1.5" stroke-miterlimit="10"/>
<path d="M161.511 161.966C172.014 161.966 180.529 153.452 180.529 142.948C180.529 132.444 172.014 123.93 161.511 123.93C151.007 123.93 142.492 132.444 142.492 142.948C142.492 153.452 151.007 161.966 161.511 161.966Z" fill="white" stroke="white" stroke-width="1.5" stroke-linecap="round" stroke-linejoin="round"/>
<path d="M194.183 200.005C194.183 185.284 179.539 173.379 161.509 173.379C143.48 173.379 128.836 185.284 128.836 200.005" stroke="white" stroke-width="1.5" stroke-linecap="round" stroke-linejoin="round"/>
<path d="M80.8808 191.651C81.2934 191.615 81.5984 191.251 81.5621 190.838C81.5258 190.425 81.1619 190.12 80.7493 190.157L80.815 190.904L80.8808 191.651ZM37.1512 146.179C36.8583 145.886 36.3834 145.886 36.0905 146.179L31.3175 150.952C31.0246 151.245 31.0246 151.72 31.3175 152.013C31.6104 152.306 32.0853 152.306 32.3782 152.013L36.6208 147.77L40.8635 152.013C41.1564 152.306 41.6312 152.306 41.9241 152.013C42.217 151.72 42.217 151.245 41.9241 150.952L37.1512 146.179ZM80.815 190.904L80.7493 190.157C73.5131 190.793 62.6513 189.381 53.6218 183.102C44.6364 176.854 37.3708 165.723 37.3708 146.71L36.6208 146.71L35.8708 146.71C35.8708 166.163 43.3367 177.777 52.7655 184.334C62.1503 190.859 73.3856 192.31 80.8808 191.651L80.815 190.904Z" fill="#06DF72"/>
<path d="M156.129 51.4815C155.721 51.4098 155.332 51.6824 155.261 52.0903C155.189 52.4983 155.462 52.8872 155.87 52.9589L155.999 52.2202L156.129 51.4815ZM186.6 106.722C186.807 107.081 187.266 107.203 187.624 106.996L193.47 103.621C193.829 103.414 193.952 102.956 193.745 102.597C193.538 102.238 193.079 102.115 192.72 102.322L187.524 105.322L184.524 100.126C184.317 99.7674 183.858 99.6445 183.499 99.8516C183.141 100.059 183.018 100.517 183.225 100.876L186.6 106.722ZM155.999 52.2202L155.87 52.9589C163.024 54.2167 173.15 58.3924 180.247 66.7942C187.309 75.155 191.446 87.7873 186.525 106.153L187.249 106.347L187.974 106.541C193.009 87.7504 188.803 74.5996 181.393 65.8263C174.017 57.0939 163.54 52.7843 156.129 51.4815L155.999 52.2202Z" fill="#06DF72"/>
<defs>
<linearGradient id="paint0_linear_44089_7233" x1="70.5" y1="-0.601427" x2="70.5" y2="136.428" gradientUnits="userSpaceOnUse">
<stop stop-color="white" stop-opacity="0.3"/>
<stop offset="1" stop-color="white" stop-opacity="0.6"/>
</linearGradient>
</defs>
</svg>
