<svg width="200" height="201" viewBox="0 0 200 201" fill="none" xmlns="http://www.w3.org/2000/svg">
<path d="M135.254 96.8525C135.434 97.008 135.614 97.1461 135.729 97.2451C135.943 97.4306 136.062 97.5787 136.115 97.7607L136.23 98.1572L136.642 98.1191C136.626 98.1206 136.655 98.1191 136.764 98.123C136.846 98.126 136.961 98.1308 137.055 98.1338C137.14 98.1366 137.251 98.1398 137.323 98.1348C137.327 98.1345 137.335 98.131 137.347 98.1299C137.819 98.204 138.294 98.2424 138.724 98.2822C139.22 98.3282 139.66 98.3796 140.051 98.4893C140.435 98.597 140.752 98.7563 141.01 99.0049C141.267 99.2528 141.495 99.62 141.654 100.192L141.75 100.537L142.107 100.558C143.544 100.64 144.995 100.242 146.278 99.9824C147.603 99.7147 148.786 99.5809 149.897 100.018V100.019C150.71 100.341 151.151 100.674 151.74 101.011C152.335 101.35 152.98 101.621 154.054 101.711V101.712C154.778 101.775 155.538 101.703 156.26 101.622C156.929 101.547 157.564 101.467 158.178 101.448L158.296 101.57L158.381 101.658L158.496 101.697C158.914 101.838 159.217 102.352 159.229 103.124C159.242 103.883 158.957 104.606 158.545 104.927C158.23 105.172 157.983 105.246 157.773 105.256C157.549 105.266 157.315 105.206 157.013 105.094C156.481 104.896 155.725 104.507 154.772 104.582L154.58 104.603C153.917 104.696 153.44 104.863 153.086 105.12C152.724 105.383 152.54 105.706 152.404 105.99C152.262 106.288 152.185 106.501 152.017 106.74C151.863 106.959 151.628 107.199 151.196 107.438C150.73 107.697 149.88 107.809 148.935 107.754C148.001 107.699 147.106 107.489 146.589 107.219H146.59C146.094 106.958 145.7 106.476 145.24 105.874C144.81 105.31 144.312 104.625 143.643 104.193H143.644C142.786 103.637 142.031 103.419 141.276 103.293C140.91 103.232 140.534 103.191 140.167 103.146C139.794 103.099 139.413 103.046 139.001 102.958H139.002C138.016 102.747 136.368 102.235 135.003 101.441C133.742 100.708 132.892 99.8369 132.78 98.8633C133.431 98.6222 133.897 98.1992 134.283 97.8027C134.661 97.4151 134.939 97.0903 135.254 96.8525ZM136.818 97.627C136.967 97.6325 137.148 97.6359 137.246 97.6348L137.157 98.1006L137.155 98.0996C137.15 98.0981 137.133 98.0922 137.109 98.082C137.104 98.0796 137.02 98.0462 136.945 97.9639C136.903 97.9172 136.827 97.8142 136.817 97.6592C136.817 97.6483 136.818 97.6375 136.818 97.627Z" fill="url(#paint0_linear_44089_7332)" stroke="white"/>
<path d="M169.988 100.854C170.707 100.187 171.755 99.9615 172.474 100.509L172.828 100.778L173.093 100.503C173.391 100.777 173.439 101.024 173.415 101.216C173.376 101.522 173.133 101.899 172.679 102.25C172.237 102.592 171.666 102.851 171.124 102.952C170.57 103.056 170.133 102.981 169.868 102.78C169.475 102.482 169.377 102.164 169.407 101.871C169.44 101.546 169.641 101.176 169.988 100.854Z" fill="url(#paint1_linear_44089_7332)" stroke="white"/>
<path d="M41.9111 154.088C42.3384 154.056 42.7974 154.151 43.1064 154.292C43.2795 154.371 43.4298 154.478 43.5859 154.606C43.7156 154.713 43.9271 154.905 44.0938 155.032C44.287 155.179 44.5201 155.325 44.8135 155.403C45.1104 155.483 45.4351 155.486 45.8018 155.402V155.403L45.8047 155.402C46.2778 155.291 46.4839 154.878 46.501 154.855C46.503 154.853 46.5044 154.85 46.5059 154.849C46.519 154.845 46.5581 154.836 46.6396 154.839L46.7539 154.849C46.8388 154.861 46.9833 154.918 47.1748 155.029C47.3579 155.136 47.5388 155.265 47.6846 155.374L47.6875 155.376C47.9362 155.559 48.0668 155.72 48.1445 155.861C48.2236 156.005 48.2645 156.157 48.2979 156.354C48.3622 156.733 48.3864 157.338 48.7979 157.981L48.7988 157.982C49.0016 158.298 49.4255 158.706 49.8203 159.047C50.2252 159.396 50.6732 159.738 50.9697 159.911H50.9707C51.1085 159.991 51.3101 160.063 51.4961 160.125C51.6935 160.191 51.9448 160.267 52.1953 160.348C52.7142 160.514 53.2871 160.711 53.7617 160.953C54.2632 161.209 54.5306 161.453 54.6084 161.651C54.6511 161.76 54.6926 162.006 54.1934 162.475L54.1963 162.479C54.1891 162.485 54.1786 162.496 54.1641 162.509C54.1316 162.537 54.0814 162.58 54.0166 162.63C53.8859 162.731 53.6984 162.86 53.4736 162.976C53.0152 163.211 52.4617 163.359 51.9111 163.18L51.9092 163.179L51.7861 163.134C51.6601 163.084 51.5248 163.018 51.3682 162.939C51.1721 162.841 50.937 162.721 50.6953 162.634C50.4493 162.545 50.164 162.479 49.8545 162.505C49.5364 162.531 49.2282 162.653 48.9365 162.885C48.5849 163.165 48.2924 163.479 48.2422 163.86C48.1846 164.299 48.4654 164.59 48.6396 164.74C48.7342 164.822 48.8403 164.899 48.9277 164.963C49.0217 165.031 49.1024 165.09 49.1758 165.151C49.3227 165.275 49.3855 165.367 49.4082 165.449H49.4092C49.4711 165.689 49.3567 166.031 49.0195 166.369C48.812 166.577 48.5769 166.724 48.3721 166.806C48.2374 166.5 48.0521 166.261 47.8125 166.083C47.4757 165.833 47.0906 165.747 46.7607 165.703C46.595 165.681 46.4243 165.668 46.2734 165.655C46.1172 165.642 45.9759 165.629 45.8418 165.608C45.574 165.567 45.3766 165.499 45.2227 165.378L45.2197 165.376C45.2177 165.374 45.2088 165.366 45.1934 165.348C45.1741 165.325 45.1497 165.295 45.1211 165.254C45.0629 165.17 44.9988 165.063 44.9248 164.937C44.7859 164.698 44.6083 164.375 44.4307 164.121C44.3402 163.992 44.2345 163.856 44.1133 163.746C43.9973 163.641 43.821 163.515 43.5918 163.486C43.332 163.454 43.1069 163.558 42.9404 163.719C42.8801 163.777 42.827 163.844 42.7783 163.917C42.3506 163.848 41.8294 163.782 41.3652 163.845C41.0509 163.887 40.7173 163.994 40.4404 164.231C40.1917 164.445 40.0248 164.735 39.9404 165.089L39.9092 165.244C39.7782 166.041 40.1104 166.686 40.5811 167.127C41.0399 167.557 41.6493 167.819 42.1846 167.906H42.1855C42.3924 167.94 42.7337 167.971 42.9521 168C43.2175 168.035 43.4254 168.079 43.5625 168.141C43.6084 168.161 43.6327 168.178 43.6455 168.188C43.6436 168.206 43.6388 168.241 43.6162 168.296C43.58 168.384 43.5094 168.508 43.3838 168.673L43.3828 168.674C43.3305 168.742 43.2227 168.825 43.0176 168.906C42.8154 168.987 42.5658 169.049 42.2793 169.108C42.0133 169.164 41.6801 169.222 41.4033 169.286C41.122 169.351 40.8188 169.437 40.5664 169.575C40.0649 169.847 39.6323 170.311 39.2764 170.668C38.8867 171.059 38.5659 171.349 38.2217 171.48L38.2178 171.481C37.9444 171.588 37.8227 171.586 37.7861 171.583C37.7779 171.568 37.7654 171.542 37.751 171.498C37.7021 171.348 37.6765 171.15 37.6289 170.845C37.596 170.634 37.5535 170.389 37.4814 170.136L37.3994 169.881C37.2951 169.597 37.1739 169.352 37.0615 169.136C36.9444 168.91 36.849 168.738 36.7646 168.554C36.6103 168.217 36.5256 167.904 36.5918 167.457V167.455C36.6148 167.297 36.678 167.104 36.7637 166.835C36.8416 166.591 36.9371 166.287 36.9697 165.99C37.0026 165.691 36.9806 165.322 36.7471 165.001C36.5119 164.678 36.1346 164.501 35.6748 164.424H35.6719C35.101 164.331 34.727 164.651 34.5312 164.809C34.3599 164.946 34.2961 164.985 34.2451 164.99L34.1953 164.987C34.2041 164.99 34.1883 164.99 34.1436 164.946C34.0901 164.894 34.0313 164.815 33.9512 164.696C33.8815 164.593 33.7845 164.442 33.6836 164.316C33.582 164.19 33.4323 164.031 33.2217 163.937L33.2168 163.935L32.9639 163.838C32.7136 163.758 32.4714 163.727 32.2197 163.763C31.9026 163.807 31.623 163.951 31.3555 164.104L31.3545 164.105C31.0863 164.26 31.0499 164.533 31.0439 164.641C31.0401 164.71 31.0459 164.785 31.0518 164.844C31.0457 164.845 31.0397 164.847 31.0332 164.848C30.9602 164.859 30.8502 164.877 30.7432 164.915C30.6382 164.952 30.477 165.028 30.3613 165.194L30.3594 165.196C30.2989 165.284 30.2292 165.361 30.1299 165.474C30.0412 165.574 29.9201 165.712 29.8301 165.879C29.7334 166.058 29.6699 166.271 29.6846 166.522C29.6987 166.765 29.7835 167.008 29.9219 167.257V167.258L29.9238 167.26C30.0518 167.487 30.2508 167.598 30.4014 167.657C30.5338 167.709 30.7013 167.746 30.7754 167.766C30.9746 167.818 30.9684 167.844 30.9746 167.863C31.0494 168.074 31.0203 168.367 30.8262 168.79C30.6343 169.208 30.3212 169.665 29.959 170.16C29.6088 170.639 29.2076 171.159 28.8955 171.649C28.5885 172.132 28.3099 172.669 28.2695 173.201V173.205C28.2478 173.523 28.2755 173.846 28.2959 174.099C28.3153 174.339 28.3234 174.499 28.3145 174.609C28.3031 174.608 28.2902 174.608 28.2764 174.605C28.1801 174.588 28.0439 174.548 27.8584 174.474C27.6913 174.406 27.546 174.29 27.3369 174.114C27.1473 173.955 26.8881 173.732 26.5576 173.6L26.5527 173.598L26.3193 173.523C26.0904 173.465 25.8758 173.447 25.7119 173.43C25.5361 173.411 25.3976 173.392 25.2695 173.351L25.1436 173.301C24.8093 173.142 24.407 172.866 24.0459 172.531C23.7262 172.235 23.4669 171.919 23.3135 171.633L23.2539 171.513C23.0869 171.133 23.11 170.706 23.1074 170.102C23.1051 169.549 23.0746 168.853 22.6016 168.252H22.6025C22.3769 167.961 22.1439 167.756 21.9307 167.591C21.827 167.51 21.7241 167.437 21.6367 167.373C21.546 167.307 21.4693 167.25 21.3994 167.191C21.265 167.079 21.1652 166.97 21.0869 166.823C21.007 166.674 20.9345 166.458 20.8975 166.116C20.8726 165.886 20.8833 165.763 20.8975 165.697C20.909 165.644 20.926 165.611 20.96 165.563C21.0508 165.435 21.2932 165.191 21.4199 164.665L21.4209 164.663C21.5225 164.234 21.4372 163.941 21.3545 163.714C21.2812 163.513 21.2516 163.447 21.2637 163.31V163.308C21.3002 162.865 21.3627 162.68 21.4033 162.611C21.4054 162.608 21.4067 162.605 21.4082 162.603C21.4144 162.601 21.4241 162.601 21.4375 162.6C21.4824 162.595 21.545 162.595 21.6465 162.6C21.7341 162.604 21.8734 162.613 22.0029 162.617C22.2832 162.626 22.6296 162.616 23.0312 162.506L23.0303 162.505C23.5874 162.354 24.2295 161.977 24.7891 161.571C25.3568 161.159 25.8947 160.677 26.2441 160.271L26.2451 160.272C26.48 160.001 26.6592 159.775 26.8096 159.584C26.9625 159.39 27.0771 159.245 27.1963 159.115C27.3613 158.936 27.5413 158.779 27.8457 158.6L28.1953 158.412C28.8551 158.084 29.2647 157.635 29.6201 157.229C29.9803 156.818 30.278 156.462 30.749 156.163L30.752 156.161C31.1691 155.893 31.5195 155.764 31.8682 155.712C32.225 155.658 32.6086 155.68 33.1064 155.75H33.1074C34.2694 155.914 34.9838 155.774 35.8594 155.583C35.8556 155.602 35.8541 155.621 35.8496 155.639C35.8164 155.768 35.7597 155.87 35.6748 155.972C35.5823 156.083 35.4616 156.187 35.29 156.332C35.1265 156.47 34.9237 156.638 34.7188 156.848C34.253 157.325 34.0391 157.775 33.8691 158.184C33.6992 158.592 33.5901 158.904 33.335 159.251L33.334 159.253C33.1528 159.501 32.9704 159.692 32.8018 159.866C32.6576 160.015 32.4504 160.22 32.3438 160.443C32.2809 160.575 32.2393 160.736 32.2617 160.918C32.2837 161.096 32.3614 161.246 32.4551 161.37C32.6285 161.599 32.9191 161.815 33.2832 162.047C33.5501 162.217 33.8015 162.353 34.0469 162.406C34.335 162.469 34.5865 162.414 34.8105 162.273C34.9919 162.16 35.1584 161.985 35.2979 161.843C35.3223 161.818 35.3483 161.793 35.374 161.767L35.4922 161.793C35.8741 161.878 36.2024 161.746 36.4512 161.541C36.6844 161.349 36.8694 161.079 37.0205 160.812C37.3161 160.288 37.5954 159.554 37.8438 159.002C37.9754 158.709 38.1024 158.454 38.2324 158.251C38.3663 158.042 38.4779 157.931 38.5596 157.882C38.6153 157.848 38.6519 157.842 38.7178 157.866C38.8147 157.902 38.9858 158.014 39.2295 158.311V158.31C39.3434 158.449 39.4263 158.647 39.4912 158.918C39.5578 159.196 39.5917 159.484 39.6455 159.822C39.7388 160.41 39.897 161.272 40.6963 161.641V161.642C41.4804 162.007 42.3504 161.723 42.9336 161.254C43.5165 160.785 43.9816 159.996 43.7812 159.15L43.6729 158.691L43.208 158.773C42.7222 158.859 42.5367 158.783 42.4727 158.738C42.415 158.698 42.3478 158.608 42.3066 158.355C42.2638 158.092 42.2689 157.801 42.252 157.416C42.2366 157.068 42.2014 156.647 42.041 156.272V156.271L41.9834 156.152C41.8398 155.888 41.6349 155.701 41.459 155.562C41.3598 155.483 41.2548 155.409 41.1729 155.35C41.0848 155.286 41.0174 155.234 40.9619 155.185C40.8539 155.088 40.841 155.04 40.8379 155.01C40.833 154.962 40.841 154.816 41.0322 154.509C41.1811 154.271 41.4801 154.12 41.9111 154.088Z" fill="url(#paint2_linear_44089_7332)" stroke="white"/>
<path d="M26.5283 177.002C26.5829 177.019 26.6503 177.053 26.7178 177.098C26.7847 177.142 26.8306 177.184 26.8447 177.198C26.8575 177.211 26.9225 177.274 26.9395 177.642V177.645C26.9525 177.902 26.9271 178.128 26.8691 178.25C26.8583 178.273 26.8493 178.285 26.8447 178.29C26.8311 178.291 26.8019 178.29 26.751 178.278L26.748 178.277L26.6924 178.25C26.6248 178.201 26.5271 178.08 26.4619 177.825C26.3819 177.512 26.4093 177.188 26.4912 177.01L26.4951 177.011C26.4978 177.005 26.5007 177 26.5029 176.996C26.5098 176.998 26.5184 176.999 26.5283 177.002Z" fill="url(#paint3_linear_44089_7332)" stroke="white"/>
<path d="M30.54 179.582C30.5375 179.372 30.5174 179.164 30.4375 178.99C30.3926 178.893 30.3269 178.801 30.2354 178.728C30.146 178.656 30.055 178.62 29.9883 178.6C29.7345 178.524 29.8513 178.586 29.8311 178.56L29.8301 178.558L29.6807 178.356C29.5579 178.184 29.5093 178.089 29.4883 177.999C29.4653 177.901 29.4626 177.743 29.5996 177.364L29.6006 177.365C29.7077 177.078 29.8548 176.912 30.0459 176.742C30.225 176.583 30.5441 176.348 30.8027 176.029L30.8037 176.027C31.1474 175.601 31.2492 175.169 31.2959 174.782C31.3462 174.366 31.3341 174.119 31.4209 173.793C31.5535 173.309 31.8236 172.771 32.1475 172.194C32.4059 171.734 32.7064 171.233 32.958 170.764C33.1061 170.791 33.1855 170.86 33.2412 170.936C33.3536 171.088 33.4323 171.359 33.4551 171.757C33.4771 172.142 33.4437 172.579 33.3936 173.006C33.3705 173.202 33.3414 173.415 33.3145 173.614L33.249 174.141C33.1988 174.651 33.1763 174.993 33.0742 175.29C32.9864 175.546 32.8367 175.767 32.4893 175.974H32.4883C32.4875 175.974 32.4851 175.976 32.4805 175.979C32.4743 175.982 32.4653 175.985 32.4541 175.99C32.4311 176.001 32.4017 176.014 32.3643 176.028C32.2864 176.059 32.1982 176.09 32.0869 176.132C31.8766 176.21 31.607 176.314 31.3623 176.448C31.1287 176.577 30.8451 176.771 30.6826 177.065C30.4931 177.409 30.5141 177.797 30.7334 178.165C30.8446 178.351 31.0022 178.493 31.2002 178.57C31.3892 178.644 31.5755 178.645 31.7256 178.624C31.9319 178.595 32.1481 178.509 32.3057 178.444C32.2865 178.5 32.2516 178.576 32.1885 178.673C32.0979 178.811 31.9725 178.962 31.8262 179.118C31.6682 179.286 31.5164 179.431 31.373 179.564L30.9707 179.941C30.68 180.221 30.3518 180.479 30.002 180.736C30.0046 180.733 30.008 180.731 30.0107 180.728C30.0785 180.649 30.1597 180.555 30.2344 180.451C30.3844 180.243 30.5399 179.956 30.54 179.589V179.582Z" fill="url(#paint4_linear_44089_7332)" stroke="white"/>
<path d="M44.3955 148.662C44.5619 148.695 44.7942 148.761 45.1328 148.866L45.1387 148.867C45.4071 148.947 45.632 149.182 45.8594 149.572L45.8613 149.575C45.9527 149.729 46.1119 149.857 46.1895 149.92C46.2989 150.009 46.3879 150.078 46.4697 150.157C46.5509 150.236 46.5867 150.289 46.5996 150.319C46.605 150.332 46.6032 150.329 46.5996 150.338C46.5923 150.342 46.5803 150.348 46.5625 150.353L46.4844 150.366C46.1135 150.396 45.7177 150.437 45.3145 150.533V150.534C45.118 150.574 44.8471 150.554 44.6045 150.467C44.3407 150.372 44.2376 150.249 44.2168 150.192C44.2116 150.173 44.2031 150.123 44.2002 150.032C44.1972 149.936 44.2021 149.821 44.2119 149.694C44.233 149.423 44.2675 149.195 44.29 148.973V148.97C44.304 148.824 44.3175 148.724 44.3291 148.653C44.348 148.656 44.3707 148.657 44.3955 148.662Z" fill="url(#paint5_linear_44089_7332)" stroke="white"/>
<path d="M57.6914 177.602C58.283 177.513 58.801 177.535 59.0781 177.65C59.2806 177.735 59.3435 177.826 59.3652 177.875C59.3886 177.928 59.3994 178.012 59.3584 178.142C59.2698 178.421 58.9834 178.752 58.6387 178.931L58.6826 179.017L58.5166 178.936L58.5098 178.947C58.3983 179.184 58.2772 179.301 58.1748 179.361C58.0723 179.422 57.9478 179.45 57.7881 179.44C57.4436 179.419 57.0227 179.228 56.6055 178.969H56.6064C56.3433 178.805 56.141 178.678 55.9922 178.562C55.9088 178.498 55.8621 178.452 55.8369 178.423C55.8819 178.364 55.9709 178.278 56.1328 178.161L56.3301 178.028C56.5875 177.864 57.1085 177.689 57.6914 177.602Z" fill="url(#paint6_linear_44089_7332)" stroke="white"/>
<path d="M46.6738 187.664H46.6748C47.0039 187.66 47.1478 187.696 47.2061 187.721C47.2319 187.732 47.2367 187.734 47.2588 187.774C47.3186 187.885 47.4587 188.387 47.9834 188.784V188.785C48.4988 189.178 49.0853 189.106 49.5303 188.896C49.684 188.824 49.8297 188.731 49.9648 188.627L49.9883 188.888C50.0133 189.176 50.0748 189.418 50.1777 189.626C50.2825 189.838 50.417 189.988 50.5518 190.106C50.6634 190.205 50.8232 190.316 50.8984 190.375C50.9938 190.449 51.0751 190.522 51.1504 190.618L51.4678 191.024C51.4732 191.032 51.48 191.039 51.4854 191.047C51.5607 191.155 51.5852 191.215 51.5938 191.243C51.5742 191.271 51.5263 191.324 51.4189 191.399L51.2881 191.483C51.0838 191.603 50.9193 191.626 50.7686 191.61C50.6 191.593 50.4197 191.525 50.1895 191.415C49.985 191.317 49.6951 191.159 49.4209 191.056C49.1268 190.945 48.7802 190.865 48.3906 190.923H48.3896C47.8814 191 47.4854 191.23 47.2139 191.356C46.9368 191.485 46.692 191.567 46.3232 191.523H46.3223C45.988 191.485 45.7538 191.383 45.5078 191.242C45.3422 191.147 45.1011 190.986 44.833 190.834L44.5576 190.688C44.2959 190.558 44.0232 190.522 43.7842 190.518C43.5493 190.513 43.3071 190.54 43.1143 190.559C42.9057 190.578 42.7457 190.59 42.6094 190.578C42.4794 190.567 42.4083 190.538 42.3633 190.504L42.3604 190.501C42.3251 190.475 42.2988 190.451 42.2773 190.432C42.3682 190.369 42.4991 190.302 42.6631 190.229C42.8156 190.162 43.0414 190.072 43.1846 190L43.1875 189.999C43.7259 189.725 44.0237 189.423 44.2666 189.101C44.5149 188.771 44.6297 188.548 44.9219 188.24C45.3318 187.815 45.946 187.673 46.6738 187.664ZM50.4141 188.348C50.4074 188.349 50.4001 188.352 50.3926 188.354L50.2432 188.381C50.2763 188.347 50.308 188.313 50.3389 188.278C50.3704 188.301 50.3945 188.326 50.4141 188.348Z" fill="url(#paint7_linear_44089_7332)" stroke="white"/>
<path d="M48.8027 197.336C48.8727 197.305 48.9253 197.299 49.1152 197.412C49.1767 197.449 49.3593 197.569 49.4717 197.631C49.6137 197.709 49.8042 197.796 50.0332 197.813H50.0361C50.2812 197.831 50.4856 197.768 50.6406 197.699C50.7164 197.666 50.7851 197.628 50.8398 197.599C50.9 197.566 50.9382 197.544 50.9785 197.524C51.0076 197.51 51.0276 197.502 51.04 197.497L51.084 197.53C51.1792 197.616 51.2223 197.676 51.2432 197.71C51.2367 197.717 51.2299 197.726 51.2197 197.735C51.1686 197.782 51.0916 197.837 50.9824 197.902C50.874 197.967 50.7538 198.03 50.6182 198.102C50.4879 198.171 50.3427 198.248 50.208 198.331C50.0746 198.413 49.9315 198.514 49.8096 198.635C49.7394 198.705 49.6699 198.79 49.6123 198.891H49.6045L49.5908 198.932C49.5582 198.995 49.529 199.064 49.5107 199.14L49.4805 199.262C49.4563 199.262 49.4289 199.264 49.3984 199.265C49.274 199.266 49.0778 199.267 48.8887 199.316L48.8857 199.317C48.4704 199.427 48.2077 199.729 48.0693 199.868C47.9044 200.034 47.8467 200.064 47.7715 200.069H47.7686C47.6775 200.076 47.6068 200.052 47.5088 199.968C47.3841 199.861 47.2851 199.721 47.1094 199.505L47.1084 199.504L46.8916 199.228C46.8841 199.216 46.8794 199.207 46.875 199.199L46.876 199.198C46.8979 199.145 46.9439 199.061 47.0371 198.917L47.0381 198.915C47.122 198.785 47.1762 198.748 47.1924 198.738C47.2043 198.731 47.2213 198.723 47.2842 198.719C47.3842 198.712 47.7077 198.739 48.0547 198.577L48.2041 198.495C48.6556 198.21 48.6739 197.684 48.6943 197.55C48.7106 197.443 48.7242 197.404 48.7354 197.384C48.7376 197.379 48.7451 197.36 48.8018 197.335L48.8027 197.336Z" fill="url(#paint8_linear_44089_7332)" stroke="white"/>
<path d="M62.3301 178.68C62.5379 178.705 62.5862 178.785 62.6104 178.844C62.6517 178.945 62.66 179.124 62.5928 179.349C62.5268 179.569 62.4108 179.755 62.3057 179.854C62.3047 179.854 62.3027 179.855 62.3018 179.855C62.2991 179.852 62.2957 179.849 62.293 179.845C62.2163 179.737 62.1215 179.594 62.0283 179.443C61.935 179.293 61.8477 179.143 61.7842 179.022C61.7522 178.962 61.7297 178.915 61.7158 178.883L61.7148 178.882C61.7139 178.825 61.7301 178.815 61.7314 178.813C61.7495 178.794 61.7996 178.758 61.9043 178.728C62.0041 178.699 62.1154 178.686 62.209 178.682C62.254 178.68 62.2916 178.679 62.3164 178.68C62.3214 178.68 62.3262 178.68 62.3301 178.68Z" fill="url(#paint9_linear_44089_7332)" stroke="white"/>
<path d="M64.3535 176.204C64.3753 176.206 64.4146 176.215 64.4775 176.247C64.6135 176.317 64.7268 176.437 64.7705 176.516H64.7715C64.7945 176.561 64.8155 176.607 64.8428 176.666C64.8682 176.721 64.8996 176.789 64.9365 176.856C65.0124 176.996 65.1209 177.155 65.2979 177.289V177.29C65.4493 177.406 65.6135 177.483 65.6943 177.525C65.7862 177.574 65.8274 177.602 65.8613 177.639L65.8691 177.647C65.8849 177.664 65.9002 177.687 65.9355 177.778C65.9647 177.854 66.0252 178.033 66.1426 178.195L66.1445 178.199C66.3213 178.44 66.5752 178.535 66.7627 178.574C66.952 178.614 67.1384 178.612 67.2617 178.606L67.2607 178.605C67.7787 178.587 67.9821 178.57 68.2119 178.716L68.3135 178.789C68.6639 179.07 68.9385 179.452 69.2725 179.891V179.892C69.4096 180.076 69.5229 180.281 69.667 180.529C69.8034 180.765 69.9657 181.035 70.1807 181.275L70.1836 181.279C70.2869 181.393 70.4024 181.493 70.4932 181.573C70.5916 181.66 70.6664 181.726 70.7285 181.794C70.8396 181.915 70.8687 181.993 70.8604 182.097V182.099C70.852 182.209 70.8123 182.248 70.7832 182.269C70.7595 182.285 70.7215 182.301 70.668 182.311L70.5215 182.299C70.4515 182.293 70.3596 182.274 70.2266 182.244H70.2275C69.7596 182.124 69.354 181.808 69.0986 181.356L69.0908 181.345L68.8711 180.962L68.8672 180.954L68.8623 180.945C68.5727 180.441 68.1294 179.75 67.4678 179.395H67.4668C67.1378 179.218 66.8018 179.191 66.5078 179.212C66.229 179.231 65.9357 179.3 65.7207 179.342C65.2352 179.436 65.0055 179.428 64.8027 179.228L64.8018 179.227L64.6895 179.108C64.4299 178.82 64.19 178.442 63.9932 178.074L63.9922 178.072L63.7725 177.693C63.7027 177.572 63.6477 177.465 63.6104 177.367C63.5387 177.179 63.5549 177.089 63.6094 177.01L63.6143 177.003C63.6195 176.995 63.6299 176.979 63.7188 176.925C63.789 176.882 63.9571 176.788 64.0986 176.637L64.0996 176.638C64.1012 176.636 64.1019 176.634 64.1035 176.632C64.1049 176.63 64.107 176.629 64.1084 176.628L64.1074 176.627C64.1836 176.545 64.2352 176.462 64.2695 176.395C64.302 176.33 64.3307 176.258 64.3438 176.228C64.3475 176.219 64.3505 176.211 64.3535 176.204Z" fill="url(#paint10_linear_44089_7332)" stroke="white"/>
<path d="M64.625 180.911V180.912C64.971 180.958 65.1878 180.968 65.4795 181.017L65.4883 181.019L65.498 181.02C65.6676 181.041 65.8837 181.056 66.0938 181.029L66.1426 181.022C66.192 181.024 66.2535 181.027 66.3164 181.031C66.3824 181.035 66.4463 181.04 66.4951 181.045C66.5081 181.046 66.5192 181.047 66.5283 181.048C66.6273 181.083 66.7343 181.16 66.8203 181.273L66.8262 181.28C66.8764 181.344 66.9033 181.401 66.9131 181.441C66.9216 181.477 66.9162 181.494 66.9111 181.505L66.9102 181.508C66.8266 181.698 66.6495 181.872 66.4082 182.018L66.4043 182.021C66.3353 182.063 66.234 182.1 66.1455 182.108C66.1006 182.113 66.0775 182.109 66.0684 182.106C66.0269 182.065 66.0168 182.028 65.9072 181.846C65.8123 181.688 65.6508 181.46 65.3359 181.342H65.3369L65.3174 181.334L65.3164 181.335C65.0575 181.235 64.8444 181.237 64.6729 181.237H64.6543C64.5665 181.241 64.4828 181.251 64.415 181.259C64.3413 181.268 64.2889 181.275 64.2354 181.279C64.1312 181.288 64.088 181.279 64.0654 181.271L64.0645 181.27L64.0186 181.24C64.0009 181.225 63.9815 181.205 63.9658 181.179C63.9426 181.14 63.9414 181.116 63.9414 181.11L63.9424 181.106C63.9567 181.047 63.9652 181.031 63.9668 181.028C63.9671 181.028 63.9666 181.027 63.9678 181.025C63.9693 181.024 63.9751 181.018 63.9873 181.008L63.9902 181.005C64.0179 180.982 64.0489 180.955 64.0664 180.94C64.0871 180.923 64.1008 180.911 64.1123 180.902C64.1156 180.9 64.1178 180.896 64.1201 180.895C64.2201 180.866 64.3704 180.878 64.625 180.911Z" fill="url(#paint11_linear_44089_7332)" stroke="white"/>
<path d="M76.9219 188.689C76.995 188.664 77.1063 188.662 77.2334 188.808V188.809L77.2402 188.815C77.3895 188.981 77.5285 189.22 77.6709 189.505C77.7958 189.755 77.9527 190.106 78.0801 190.341L78.1357 190.443L78.2305 190.511C78.8279 190.933 79.4522 191.407 80.1191 191.832V191.833C80.3231 191.965 80.5875 192.135 80.7539 192.32C80.7918 192.363 80.8178 192.399 80.834 192.427C80.8401 192.437 80.8438 192.446 80.8467 192.453C80.8447 192.455 80.8427 192.459 80.8398 192.462L80.8223 192.481C80.6685 192.45 80.4468 192.374 80.1826 192.259C79.8938 192.132 79.5957 191.98 79.3486 191.852C79.2293 191.789 79.113 191.729 79.0273 191.685C78.9579 191.649 78.8556 191.595 78.7803 191.57L78.7686 191.566L78.3076 191.414L77.8408 191.233C77.5089 191.094 77.3682 191.008 77.2988 190.927C77.2643 190.886 77.2073 190.804 77.2461 190.521C77.3237 189.967 76.9624 189.581 76.8223 189.408C76.6367 189.18 76.6359 189.135 76.6494 189.073L76.6504 189.068C76.6995 188.832 76.8304 188.722 76.9219 188.689Z" fill="url(#paint12_linear_44089_7332)" stroke="white"/>
<path d="M63.6035 186.881C63.7331 186.993 63.8506 187.149 63.9463 187.317L64.0342 187.489C64.3505 188.193 64.7152 189.017 65.6494 189.426V189.427C66.2856 189.714 67.1375 189.917 67.9238 189.752L67.9229 189.751C68.3448 189.664 68.7081 189.463 69.0117 189.274C69.3407 189.07 69.5769 188.901 69.8457 188.771L69.8496 188.769C70.4535 188.469 70.859 188.397 71.2412 188.663C71.416 188.785 71.5574 188.988 71.6592 189.265C71.7606 189.54 71.8107 189.858 71.8232 190.157V190.162C71.8426 190.543 71.8689 190.94 71.8516 191.329C71.8341 191.72 71.7733 192.049 71.6514 192.291L71.6494 192.296C71.6017 192.393 71.5514 192.44 71.5049 192.47C71.4507 192.504 71.3736 192.533 71.251 192.559C71.104 192.589 71.006 192.595 70.8018 192.63C70.6294 192.659 70.4228 192.703 70.2168 192.798C69.9512 192.918 69.7489 193.094 69.627 193.332C69.5119 193.557 69.4957 193.786 69.4971 193.959C69.4978 194.047 69.5038 194.134 69.5088 194.207C69.5141 194.285 69.5187 194.349 69.5205 194.412C69.5242 194.538 69.5147 194.619 69.4932 194.68L69.4912 194.683C69.3946 194.963 69.2045 195.202 68.9355 195.437C68.7958 195.558 68.6479 195.668 68.4922 195.777L68.002 196.116C67.5961 196.4 67.2847 196.543 67 196.576C66.7327 196.607 66.4244 196.548 66.0088 196.287L66.0078 196.286C65.2548 195.815 64.4536 195.111 64.168 194.382V194.381L64.1357 194.285C64.1119 194.199 64.1112 194.14 64.1162 194.102C64.1227 194.052 64.1424 194.004 64.1865 193.948C64.2921 193.816 64.4923 193.689 64.7998 193.537L64.8008 193.538C65.1521 193.368 65.4322 193.03 65.5732 192.664C65.7175 192.29 65.7446 191.803 65.4531 191.378L65.4492 191.372L65.3564 191.261C65.1419 191.039 64.8644 190.97 64.6094 190.996C64.417 191.016 64.2416 191.088 64.1006 191.165L63.9717 191.242L63.9609 191.25C63.8621 191.318 63.8112 191.356 63.7549 191.393C63.7167 191.417 63.6964 191.425 63.6885 191.429C63.6748 191.427 63.6372 191.421 63.5615 191.391L63.5557 191.389C63.0467 191.191 62.708 190.526 62.7686 189.882V189.878C62.795 189.567 62.8364 189.335 62.9395 189.114L62.9443 189.103C62.9793 189.022 63.0364 188.946 63.1426 188.812C63.2265 188.707 63.3517 188.549 63.4434 188.355L63.4492 188.348L63.4727 188.312L63.4902 188.271C63.5707 188.079 63.5992 187.847 63.6113 187.655C63.6243 187.45 63.6209 187.232 63.6123 187.038C63.6099 186.983 63.6038 186.93 63.6006 186.879C63.6015 186.88 63.6026 186.88 63.6035 186.881Z" fill="url(#paint13_linear_44089_7332)" stroke="white"/>
<path d="M95.1143 166.353C95.1196 166.354 95.1707 166.374 95.2559 166.487C95.3363 166.594 95.4077 166.73 95.4766 166.873L95.4795 166.879C95.6809 167.283 95.9903 167.527 96.2314 167.707C96.4924 167.902 96.6582 168.017 96.7852 168.192L96.7881 168.196C96.8226 168.243 96.8329 168.272 96.8359 168.284C96.8334 168.29 96.8267 168.304 96.8057 168.326C96.7658 168.368 96.6967 168.417 96.5996 168.462C96.5045 168.506 96.4001 168.536 96.3066 168.551C95.9434 168.607 95.5856 168.672 95.2227 168.7C94.8621 168.728 94.5469 168.714 94.2881 168.635C94.2762 168.627 94.2442 168.602 94.1895 168.542C94.1013 168.445 94.038 168.354 93.918 168.207C93.8209 168.088 93.6765 167.92 93.4912 167.809C93.2743 167.678 92.9895 167.618 92.6885 167.754L92.416 167.877L92.4092 167.965C92.373 167.933 92.3323 167.898 92.2861 167.857C92.1585 167.745 91.9764 167.587 91.7588 167.485C91.5381 167.382 91.3046 167.349 91.1602 167.326C91.1196 167.32 91.084 167.311 91.0518 167.306C91.0718 167.296 91.092 167.286 91.1133 167.276C91.2768 167.204 91.4024 167.158 91.5449 167.098L91.5469 167.097C92.1027 166.859 92.4297 166.669 92.8252 166.612H93.0811C93.4642 166.612 94.0284 166.509 94.4551 166.433C94.6829 166.392 94.8785 166.357 95.0264 166.338C95.0628 166.333 95.093 166.331 95.1172 166.329L95.1143 166.353ZM95.1191 166.312C95.0927 166.304 95.0579 166.29 95.0205 166.268L95.1533 166.049L95.1191 166.312Z" fill="url(#paint14_linear_44089_7332)" stroke="white"/>
<path d="M84.5146 168.123C84.6203 168.103 84.8482 168.109 85.0664 168.171C85.1665 168.199 85.2418 168.234 85.291 168.267V168.461L85.5469 168.604C85.6099 168.64 85.6612 168.668 85.7051 168.695C85.7261 168.708 85.7425 168.72 85.7549 168.729C85.7608 168.733 85.7654 168.736 85.7686 168.738C85.7717 168.741 85.7734 168.742 85.7734 168.742L85.8555 168.816L85.9609 168.85C86.0113 168.865 86.2018 168.935 86.3623 168.971C86.5142 169.005 86.8079 169.054 87.0791 168.913L87.0967 168.903C87.338 168.766 87.4532 168.527 87.502 168.429C87.5034 168.426 87.5045 168.423 87.5059 168.42C87.6594 168.485 87.8147 168.584 87.9834 168.712C88.0942 168.796 88.2036 168.887 88.3213 168.985C88.4361 169.081 88.5607 169.186 88.6875 169.283C89.1068 169.605 89.5632 170.034 90.2354 170.263L90.2363 170.264C90.6265 170.395 91.0362 170.471 91.4355 170.493H91.4395C91.7022 170.506 91.936 170.471 92.1309 170.437C92.3396 170.4 92.4799 170.368 92.6348 170.356L92.6406 170.355C92.7384 170.347 92.9037 170.336 93.0625 170.337C93.142 170.337 93.2118 170.341 93.2666 170.348C93.2809 170.349 93.2927 170.35 93.3018 170.352C93.3106 170.364 93.3257 170.385 93.3467 170.42C93.3714 170.461 93.4214 170.546 93.4824 170.622C93.5489 170.705 93.6513 170.806 93.8037 170.871V170.87C93.9692 170.941 94.1399 170.955 94.2715 170.952C94.4093 170.95 94.5479 170.93 94.668 170.908C94.7875 170.887 94.91 170.861 95.0039 170.841C95.1079 170.819 95.1744 170.806 95.2178 170.802L95.2305 170.801C95.4087 170.779 95.5975 170.739 95.7373 170.714C95.8908 170.686 96.0165 170.668 96.1338 170.668C96.2408 170.668 96.3284 170.679 96.3877 170.699C96.4055 170.705 96.4163 170.711 96.4219 170.714C96.4224 170.724 96.4245 170.765 96.417 170.873C96.4093 170.983 96.3745 171.274 96.4883 171.54L96.4912 171.547C96.5959 171.782 96.8243 172.161 97.2686 172.142C97.464 172.133 97.6134 172.042 97.707 171.967C97.8026 171.89 97.8796 171.798 97.9385 171.719C98.055 171.561 98.1572 171.371 98.2285 171.238C98.2677 171.166 98.2978 171.11 98.3232 171.067C98.331 171.054 98.3367 171.044 98.3408 171.038C98.3888 170.996 98.5 170.947 98.7139 170.964C98.9297 170.981 99.1538 171.059 99.2959 171.143L99.2969 171.141C99.326 171.163 99.3343 171.179 99.3389 171.198C99.3489 171.241 99.3485 171.315 99.3213 171.422C99.2951 171.524 99.2519 171.625 99.2119 171.705C99.2064 171.716 99.1994 171.726 99.1943 171.735C99.062 171.837 98.9749 171.967 98.918 172.082C98.8398 172.24 98.7974 172.411 98.7705 172.555C98.7432 172.701 98.727 172.85 98.7139 172.967C98.6993 173.097 98.6899 173.174 98.6787 173.224L98.6777 173.229C98.6654 173.285 98.5997 173.392 98.4424 173.483C98.297 173.567 98.151 173.589 98.0566 173.575C98.0408 173.538 98.0233 173.479 97.9893 173.347C97.9571 173.222 97.9013 173.005 97.7686 172.815C97.6152 172.596 97.3843 172.444 97.0742 172.394H97.0732C96.768 172.343 96.4199 172.372 96.1709 172.632C95.9374 172.876 95.9204 173.194 95.9375 173.399C95.9725 173.819 96.1891 174.275 96.3408 174.509C96.5111 174.772 96.6114 175.009 96.6211 175.172C96.6252 175.241 96.6113 175.272 96.6016 175.288C96.5921 175.303 96.5585 175.348 96.4424 175.396C96.243 175.476 96.0285 175.484 95.6641 175.533C95.3496 175.576 94.9162 175.655 94.5723 175.981C94.4936 176.056 94.4298 176.132 94.3789 176.194C94.3207 176.266 94.2931 176.302 94.2529 176.349C94.1882 176.424 94.1558 176.444 94.1221 176.456L94.1182 176.457C94.0486 176.482 93.9161 176.501 93.7441 176.491C93.5774 176.481 93.4227 176.447 93.3242 176.41L93.3184 176.408L93.2305 176.371C93.1562 176.335 93.1164 176.299 93.0918 176.271C93.0559 176.229 93.024 176.17 92.9902 176.064C92.9731 176.011 92.957 175.952 92.9385 175.879C92.921 175.81 92.9001 175.725 92.876 175.64C92.8389 175.509 92.7897 175.361 92.7139 175.208L92.6289 175.054C92.4148 174.701 92.1316 174.409 91.7148 174.345C91.339 174.287 90.9814 174.441 90.6934 174.588L90.918 175.03L90.6924 174.588L90.6865 174.592C90.6487 174.612 90.571 174.617 90.4971 174.568C90.465 174.547 90.444 174.523 90.4326 174.499C90.4226 174.478 90.4136 174.445 90.4219 174.392L90.4229 174.385C90.4291 174.341 90.4359 174.349 90.541 174.161C90.5849 174.083 90.6432 173.967 90.6709 173.82C90.6999 173.667 90.6905 173.508 90.6406 173.344L90.6396 173.342L90.5732 173.174C90.4973 173.017 90.396 172.893 90.3037 172.796C90.1985 172.686 90.0407 172.55 89.9805 172.493L89.9766 172.49L89.8711 172.379C89.8341 172.335 89.7947 172.283 89.751 172.224C89.6784 172.125 89.5624 171.958 89.4688 171.836C89.2731 171.58 88.9655 171.225 88.4863 171.134H88.4854C87.8995 171.02 87.4935 171.396 87.3047 171.559C87.1829 171.663 87.1215 171.714 87.0674 171.742C87.058 171.747 87.0509 171.749 87.0469 171.751C87.0346 171.743 87.0044 171.719 86.959 171.657C86.8889 171.563 86.8176 171.424 86.7441 171.248C86.6716 171.074 86.6075 170.889 86.543 170.704C86.4831 170.532 86.4153 170.338 86.3428 170.19H86.3418C86.1794 169.859 85.9499 169.514 85.6309 169.285C85.2876 169.039 84.8543 168.938 84.3809 169.104L84.374 169.106C84.3341 169.121 84.2975 169.138 84.2637 169.156L84.2617 169.155C84.2399 169.138 84.215 169.118 84.1846 169.091C84.1693 169.077 84.154 169.063 84.1367 169.047C84.1202 169.032 84.1018 169.015 84.083 168.998L84.082 168.997L83.9004 168.832C83.7543 168.692 83.6987 168.61 83.6846 168.514C83.6684 168.381 83.6936 168.34 83.6943 168.339C83.6953 168.337 83.7056 168.318 83.7676 168.289C83.8354 168.258 83.9318 168.231 84.0703 168.204C84.1679 168.185 84.3862 168.15 84.5146 168.123ZM86.0186 168.604C86.0027 168.612 85.9835 168.62 85.9951 168.615C85.9959 168.615 86.0072 168.608 86.0244 168.6C86.022 168.601 86.0206 168.604 86.0186 168.604ZM87.3779 168.216L87.3584 168.354C87.3565 168.353 87.3544 168.354 87.3525 168.354C87.3236 168.348 87.2999 168.339 87.2832 168.33L87.3604 168.179L87.3779 168.216Z" fill="url(#paint15_linear_44089_7332)" stroke="white"/>
<path d="M103.556 179.515C103.575 179.536 103.595 179.562 103.608 179.593C103.621 179.62 103.624 179.638 103.625 179.646C103.624 179.653 103.618 179.676 103.588 179.719C103.55 179.773 103.49 179.837 103.404 179.914C103.318 179.991 103.224 180.065 103.119 180.147C103.023 180.223 102.908 180.314 102.813 180.405C102.761 180.456 102.58 180.564 102.282 180.668C102.002 180.766 101.682 180.839 101.4 180.858C101.104 180.879 100.948 180.834 100.896 180.802C100.895 180.789 100.897 180.766 100.904 180.729L100.932 180.644C100.97 180.521 101.037 180.454 101.189 180.384C101.276 180.344 101.377 180.309 101.509 180.268C101.631 180.229 101.787 180.183 101.938 180.124L101.938 180.123C102.333 179.969 102.724 179.823 103.016 179.714C103.161 179.66 103.283 179.615 103.367 179.584C103.409 179.569 103.442 179.556 103.465 179.548C103.476 179.544 103.484 179.54 103.49 179.538C103.493 179.537 103.496 179.537 103.497 179.536L103.499 179.535L103.556 179.515Z" fill="url(#paint16_linear_44089_7332)" stroke="white"/>
<path d="M105.197 182.368V182.369C105.303 182.408 105.455 182.53 105.609 182.698C105.679 182.774 105.738 182.846 105.778 182.899C105.782 182.904 105.785 182.909 105.788 182.913C105.808 182.991 105.812 183.039 105.809 183.065C105.805 183.093 105.798 183.1 105.797 183.102C105.789 183.11 105.733 183.158 105.585 183.155C105.305 183.151 105.051 182.989 104.964 182.762L104.938 182.661C104.906 182.443 104.978 182.383 104.988 182.375C105.011 182.357 105.079 182.325 105.197 182.368Z" fill="url(#paint17_linear_44089_7332)" stroke="white"/>
<path d="M101.811 182.576C101.937 182.584 102.08 182.61 102.173 182.631L102.178 182.632C102.579 182.718 103.032 183.056 103.465 183.426C103.615 183.556 103.83 183.766 104.002 183.99C104.088 184.102 104.156 184.208 104.2 184.3C104.247 184.396 104.254 184.449 104.254 184.464C104.254 184.544 104.232 184.576 104.218 184.593C104.196 184.618 104.149 184.654 104.058 184.685C103.897 184.738 103.683 184.744 103.502 184.721C103.398 184.701 103.328 184.669 103.272 184.631C103.198 184.579 103.121 184.502 103.026 184.373L102.924 184.227C102.73 183.93 102.464 183.665 102.281 183.467C102.129 183.301 102.014 183.16 101.937 183.021L101.871 182.88C101.839 182.791 101.81 182.676 101.801 182.576C101.804 182.576 101.807 182.576 101.811 182.576Z" fill="url(#paint18_linear_44089_7332)" stroke="white"/>
<path d="M98.7871 183.539C98.8524 183.539 98.9375 183.558 99.0078 183.587C99.1363 183.642 99.2492 183.705 99.3555 183.775L99.7031 184.008L99.7344 183.974C99.7828 183.999 99.8302 184.024 99.8721 184.045C99.9036 184.06 99.9709 184.091 100.031 184.111V184.113C100.07 184.127 100.104 184.147 100.152 184.191L100.16 184.198C100.379 184.394 100.526 184.606 100.736 184.914V184.913C100.841 185.069 100.99 185.265 101.096 185.412C101.216 185.58 101.314 185.732 101.38 185.873C101.446 186.015 101.462 186.113 101.457 186.18C101.453 186.232 101.434 186.303 101.335 186.398C101.169 186.558 100.826 186.565 100.592 186.334L100.479 186.216C100.368 186.095 100.266 185.965 100.165 185.826L99.7588 185.229C99.598 184.983 99.4967 184.784 99.3184 184.495L99.3086 184.479L99.1729 184.294C99.0332 184.115 98.8807 183.947 98.7793 183.825C98.7187 183.747 98.7103 183.693 98.7109 183.664C98.7115 183.639 98.7204 183.598 98.7627 183.541C98.769 183.54 98.7772 183.539 98.7871 183.539Z" fill="url(#paint19_linear_44089_7332)" stroke="white"/>
<mask id="path-21-inside-1_44089_7332" fill="white">
<path d="M177.263 140.31C175.494 138.455 172.162 140.795 170.159 140.494C169.448 137.523 172.593 137.795 174.343 137.163C174.483 134.93 172.368 135.241 173.388 132.784C174.184 130.861 176.009 130.123 177.815 130.803C178.471 128.657 176.561 128.89 176.318 127.288C176.056 125.54 178.667 125.569 175.728 123.909C173.734 122.782 169.504 121.306 167.52 122.481C166.733 121.277 166.556 119.918 167.136 118.694C163.935 117.849 164.758 112.916 161.033 112.266C160.462 112.169 159.611 112.916 158.909 112.829C157.776 112.703 157.112 111.984 156.035 111.654C153.976 111.033 153.424 111.586 151.477 112.314C151.73 112.848 151.477 113.324 151.936 113.868C150.56 115.218 148.866 115.732 148.435 117.781C147.349 116.189 146.629 115.965 145.047 115.868C143.25 115.762 141.219 117.034 141.79 113.693C138.804 113.625 138.289 113.159 136.426 110.945C134.461 108.615 133.328 108.547 131.344 110.809C129.949 112.402 129.229 113.625 127.132 114.412C124.942 115.227 122.602 114.557 121.058 116.674C120.225 113.635 126.636 112.198 128.143 110.052C129.453 108.178 129.332 107.867 128.405 105.973C127.563 104.255 127.385 103.322 126.87 101.477C126.14 98.875 126.056 99.2634 123.669 100.662C121.6 101.866 121.788 102.07 120.73 104.245C119.242 107.304 117.267 109.984 114.637 111.411C113.242 106.828 120.159 105.303 118.278 101.196C117.969 100.526 115.348 98.0108 114.534 97.6612C113.018 97.0106 109.704 97.1563 108.394 98.0885C107.477 98.7391 107.477 99.6907 106.793 100.312C106.082 100.963 105.043 101.021 104.369 101.749C103.021 103.196 103.124 105.08 101.234 106.187C100.382 106.682 99.4646 106.42 98.5661 106.954C97.7798 107.42 97.6582 108.362 96.769 108.751C93.2871 110.275 95.1029 107.556 95.0655 105.391C94.0453 105.721 92.9783 106.313 91.9581 106.711C91.2561 104.391 93.6241 103.565 95.3837 103.4C97.6582 103.186 98.2197 103.837 100.185 102.031C102.497 99.9043 104.94 96.6125 105.745 93.5246C104.931 92.7477 104.135 91.9417 103.162 91.4659C103.012 90.0288 102.45 88.1547 101.571 87.0185C100.363 85.4454 99.3897 85.7076 97.705 84.8725C94.4571 83.2606 94.9251 81.7652 91.1999 82.8236C91.0595 82.474 90.9098 82.3575 90.6758 81.8817C91.1812 81.9011 90.6945 81.6972 90.4979 81.7361C90.4698 81.6584 90.4324 81.571 90.423 81.4933C90.4137 81.2699 90.5073 81.27 90.5167 81.066C90.395 80.9981 90.2639 80.9786 90.1329 81.0078C90.2359 80.9689 90.2733 80.901 90.2639 80.7844C89.3841 81.0272 88.4481 81.4253 87.4654 81.5613C87.3437 80.7747 87.1284 79.59 87.3343 78.8229C82.4672 78.5704 80.8854 80.9883 77.1602 83.1441C73.5099 85.2512 69.1951 84.5035 68.6428 89.8152C67.4073 90.0871 66.0876 90.1939 64.927 90.893C63.6353 91.6796 64.094 92.505 62.5403 92.9031C59.985 93.544 57.2426 89.5141 57.8042 94.214C58.0101 95.9619 59.1427 95.8939 58.3377 97.8846C57.8697 99.0401 56.8214 99.8946 55.9416 100.73C53.7795 102.788 51.112 103.818 51.6455 107.255C53.377 107.945 53.1992 110.761 52.6189 112.237C50.2789 112.489 51.9637 109.042 50.7937 107.818C49.6518 109.255 49.3991 111.576 47.368 111.974C46.9375 109.022 49.4459 107.061 48.8843 104.293C46.8626 103.876 43.9704 107.488 44.0828 103.458C43.7645 103.439 43.4089 103.381 43.0906 103.371C42.7256 102.118 43.2965 101.361 44.3729 100.924C46.039 100.244 45.8237 101.594 47.1247 101.691C49.1838 101.846 49.9794 100.963 51.5238 99.2052C54.9776 95.2821 54.2662 92.7477 52.3475 88.2324C49.8577 88.3003 49.0902 92.0874 47.0405 93.3498C46.404 89.7083 51.9075 86.9117 45.4025 87.8439C41.4152 88.4168 40.5916 91.7184 37.456 93.7964C34.7979 95.554 30.9978 94.2528 28.6578 96.8261C26.8888 98.7682 28.3864 99.9043 27.8529 102.031C27.5721 103.148 25.8967 105.313 25.1573 105.886C25.1573 105.468 24.8203 104.818 24.8671 104.264C21.9469 105.633 23.0607 108.032 23.2947 110.625C23.5287 113.227 21.6848 114.286 22.0124 116.936C24.2681 117.072 26.0371 117.053 28.0775 116.762C28.0963 116.878 28.0495 116.956 27.9465 116.995C28.9293 117.267 30.0431 117.286 31.0071 117.606C30.1086 119.617 27.8997 118.15 27.0948 120.102C26.814 120.782 28.5455 121.364 28.1337 121.976C27.1041 123.501 26.4489 121.733 25.4381 121.423C21.9188 120.316 16.228 121.559 20.936 125.297C20.5335 126.064 13.3359 124.821 15.8724 129.405C15.9473 129.541 18.4744 131.036 18.8394 131.327C20 132.26 20.5991 133.182 22.2089 133.104C22.1809 133.658 21.9188 134.726 21.6661 135.231C18.8675 136.688 18.8581 133.745 17.2389 132.716C16.6024 132.318 15.1891 132.522 14.3093 132.162C13.2704 131.735 12.9521 130.832 11.8757 130.609C11.127 132.609 12.6807 133.901 12.4467 135.891C12.2408 137.581 10.6683 139.863 9.91019 141.358C8.97421 143.213 8.01952 144.99 7.22393 146.845C6.94314 147.505 6.24116 148.651 6.22244 149.389C6.19436 150.389 7.15841 151.01 7.03674 151.884C6.62491 154.798 4.50024 152.875 3.01203 154.584C1.57062 156.235 3.67658 158.148 3.09627 159.993C2.66572 161.352 0.147937 162.294 0.0169001 163.741C-0.226454 166.285 2.22581 164.79 3.03075 163.498C5.02438 164.673 4.14456 166.071 3.48938 167.606C2.44108 170.053 2.77804 170.033 3.09627 172.325C3.33026 174.024 0.559768 184.764 5.61405 179.957C9.11461 176.627 4.47216 171.296 6.19436 167.45C6.82146 166.033 8.51558 166.149 9.63876 165.401C11.9319 163.867 11.4452 163.566 13.7103 165.722C15.7039 163.081 12.69 162.547 12.0442 161.109C10.5935 157.895 13.5979 160.119 15.3108 159.944C20.9454 159.381 15.498 153.671 14.5714 151.282C14.1689 150.234 14.3654 149.292 13.6541 148.36C12.9428 147.418 11.5575 148.321 11.3048 146.631C10.7339 142.834 13.8975 146.223 14.7679 146.301C16.2468 146.427 17.8005 143.126 18.9892 143.64C20.8424 144.456 17.7537 147.476 17.7443 148.525C18.7926 148.787 19.7005 148.311 20.3183 147.486C20.8705 149.379 19.0173 150.039 19.3449 151.846C21.769 151.865 21.6099 153.856 23.5661 154.603C26.6455 155.769 26.3834 153.545 25.775 151.816C25.4662 150.942 23.2198 146.854 26.4583 148.068C28.2273 148.738 27.413 152.622 30.2022 152.127C30.7919 150.447 29.9495 148.136 32.3269 148.049C32.7013 149.913 34.4422 153.127 36.4639 150.03C37.1846 148.913 35.453 147.447 37.194 146.893C38.6822 146.427 38.5979 148.224 39.3842 148.787C40.161 149.34 41.1719 150.418 42.2763 149.971C43.8394 149.331 42.6882 147.757 43.5961 146.971C45.6552 145.165 47.6863 148.563 49.6893 148.816C49.8577 147.185 48.0513 144.359 50.2415 143.601C50.0356 143.174 50.2041 142.417 50.0543 141.97C50.9716 141.543 51.9637 141.193 52.8997 141.125C52.881 143.32 51.5893 144.873 51.6735 147.126C51.6548 146.757 52.2632 150.311 51.9169 150.01C52.7218 151.049 55.2396 150.243 56.653 150.292C56.9244 150.302 57.5234 151.205 58.7215 151.71C59.6481 152.108 61.1644 152.185 61.7447 151.952C62.5403 151.632 60.5747 149.36 59.3111 148.612C58.3003 148.02 57.252 149.758 56.1475 149.399C55.2396 149.107 55.3332 147.631 54.3411 147.126C53.8357 145.563 53.4893 142.747 55.6889 142.533C57.8136 142.32 57.7855 144.961 60.3875 143.611C60.453 144.718 60.1722 146.291 60.6309 147.253C61.0146 148.068 62.1097 148.282 62.5683 149.107C63.5511 150.855 62.8678 154.875 66.0034 154.429C66.5556 157.254 66.7147 160.187 62.8304 158.536C61.9599 158.167 60.7245 156.526 59.9008 156.604C58.0101 156.778 58.3284 158.468 59.1614 159.575C60.4062 161.236 61.3609 159.983 62.7742 160.818C64.1969 161.663 63.6728 163.469 65.76 163.537C68.4744 163.624 68.5399 159.789 70.833 158.798C73.4912 161.138 74.605 161.867 77.7686 162.983C78.3209 163.178 79.1352 163.168 79.6406 163.586C80.2583 164.1 80.1741 165.528 80.6421 165.819C81.812 166.547 82.5983 166.295 83.1599 164.411C85.0131 164.294 87.7181 163.77 87.9614 166.256C90.6009 166.518 92.3325 163.857 94.8502 164.43C95.9172 164.673 99.9232 169.596 98.8937 164.964C99.839 165.081 100.307 165.965 100.663 166.829C101.346 165.722 101.355 164.343 101.299 163.032C103.461 162.857 103.948 163.848 105.595 164.304C106.831 164.644 108.366 164.926 109.002 162.993C109.639 161.061 108.3 159.294 106.859 158.488C104.201 156.992 104.388 159.565 102.095 159.07C102.113 157.526 101.542 155.71 99.942 155.468C101.337 153.147 105.258 156.594 106.531 152.953C107.289 150.787 105.24 147.32 109.227 147.233C109.545 150.525 110.921 149.962 112.465 151.632C115.414 154.817 110.949 152.923 109.536 153.351C107.112 154.079 108.497 156.176 109.807 157.439C111.735 159.274 112.54 158.4 114.861 157.099C118.418 155.108 121.32 152.923 125.279 151.622C128.995 150.399 133.048 148.826 136.819 147.534C139.515 146.621 142.52 147.301 145.299 146.641C148.912 145.786 147.827 143.631 146.928 140.601C149.128 140.222 147.331 144.252 150.12 144.679C153.471 145.194 150.803 141.912 152.984 140.29C152.965 141.543 152.45 142.533 152.544 143.825C153.92 143.893 155.352 143.834 156.737 143.912C156.438 149.787 159.891 145.398 162.615 146.126C162.868 148.796 168.952 144.398 170.664 144.699C172.078 144.951 172.78 146.427 174.362 146.039C174.951 146.116 172.518 141.543 174.605 143.864C176.973 144.738 179.425 142.553 177.282 140.31H177.263ZM33.0195 111.945C32.5702 112.78 31.5594 112.266 31.0727 111.838C30.82 111.615 30.5672 111.382 30.2303 111.353C29.7436 111.314 29.7436 111.508 29.6781 111.897C29.547 112.654 28.9386 113.004 28.4145 112.353C28.2179 112.12 28.115 111.78 27.9091 111.557C27.6189 111.246 27.4598 111.343 27.2351 111.596C26.9918 111.868 26.7391 112.042 26.3179 111.829C25.8967 111.615 25.9435 111.207 25.9809 110.799C26.0465 110.091 26.3085 109.421 26.4021 108.712C26.4396 108.459 26.5425 108.081 26.4396 107.857C26.3366 107.634 25.9997 107.43 25.8218 107.236C25.7657 106.74 25.9529 106.507 26.346 106.226C26.6174 106.032 27.1135 105.701 27.076 105.303C27.2913 105.07 27.7406 104.284 28.0775 104.876C28.2086 104.954 28.4332 105.129 28.4706 105.245C28.8263 105.294 29.2756 105.323 29.547 105.051C29.8372 104.769 29.7342 104.323 29.884 104.041C29.884 104.041 30.4362 104.575 30.6421 104.633C30.8948 104.711 31.1943 104.614 31.4471 104.721C32.018 104.963 32.2333 105.643 31.9525 106.187C31.784 106.517 31.6436 106.711 31.2786 106.702C30.9697 106.702 30.6983 106.585 30.38 106.595C29.8372 106.624 28.8918 107.177 29.6125 107.799C30.1367 108.255 31.0633 107.624 31.681 107.702C32.0086 107.741 32.2801 107.954 32.1397 108.362C32.0274 108.683 31.653 108.799 31.3722 108.877C31.0539 108.964 30.3145 108.906 30.146 109.294C30.0244 109.576 30.3613 110.013 30.6047 110.091C31.2879 110.304 31.8682 109.489 32.4673 110.032C32.8604 110.392 33.2909 111.411 33.0195 111.926V111.945ZM35.2471 98.5837C34.8447 98.4963 33.553 97.6224 33.1693 97.9817C32.5421 98.5643 33.8712 99.2634 34.0491 99.7295C35.0412 102.332 31.3254 99.8849 30.6515 99.2926C28.9761 97.8457 31.2411 96.7678 32.6451 96.6028C34.0023 96.4474 36.6979 97.4087 36.7541 97.9525C36.8477 98.9041 35.8274 98.7002 35.2471 98.574V98.5837ZM71.9281 113.907C71.7035 113.081 72.5271 111.858 71.6286 111.372C71.0296 111.052 69.8596 110.916 69.6724 110.061C69.4291 108.945 71.2542 109.411 71.7784 109.44C72.7331 109.489 73.2104 109.042 73.3789 108.139C73.435 107.847 73.3227 107.119 73.4912 106.896C73.8562 106.42 74.2587 106.915 74.4927 107.197C75.1572 107.993 75.5504 108.226 76.3459 107.43C77.0292 106.75 77.5065 106.294 76.6267 105.507C75.7843 104.76 75.0449 105.109 74.0715 105.08C73.6878 105.07 73.0326 105.051 73.3227 104.497C73.5099 104.138 74.2213 104.08 74.5395 103.954C75.41 103.614 75.8124 102.458 76.7016 102.283C78.7233 101.895 78.1617 105.837 79.9495 105.342C80.7544 105.119 80.8199 104.041 80.8854 103.303C80.9229 102.934 80.7731 102.361 81.2505 102.235C81.6529 102.128 82.0554 102.691 82.0554 102.691C82.3268 103.012 82.1958 103.303 82.252 103.682C82.2988 104.012 82.4766 104.274 82.617 104.565C82.9259 105.216 83.085 105.886 82.9914 106.634C82.7948 108.158 81.2785 109.197 80.2115 110.071C79.7435 110.46 79.3598 110.877 79.0603 111.421C78.8731 111.761 78.4987 112.615 78.0494 112.654C77.1322 112.751 78.0681 110.683 78.0026 110.227C77.8341 109.032 76.8046 110.178 76.3085 110.498C76.009 110.693 75.5036 110.916 75.3912 111.266C75.2602 111.703 75.6533 112.11 75.5316 112.547C75.3632 113.159 74.9045 112.829 74.5395 112.547C74.3055 112.373 74.3804 112.14 74.0528 112.256C73.903 112.314 73.8001 112.576 73.7439 112.712C73.4818 113.276 73.4538 113.703 72.9577 114.15C72.5271 114.538 72.1247 114.557 71.9375 113.907H71.9281ZM86.6417 122.831C86.2299 122.811 85.8836 122.627 85.6028 122.297C85.3501 121.996 85.2284 121.384 84.8072 121.588C84.4234 121.772 84.4796 122.471 84.3954 122.821C84.2737 123.297 84.0865 123.666 83.7215 123.996C83.3471 124.355 82.3081 124.802 81.784 124.501C81.2505 124.2 81.7278 123.229 81.3721 122.802C81.2785 121.996 80.6327 123.559 80.5859 123.714C80.3332 124.637 79.6406 125.045 79.079 125.792C78.5642 126.482 77.8061 127.317 77.076 126.317C76.6361 125.715 76.6267 124.501 76.9918 123.889C77.31 123.355 78.742 122.811 78.2179 122.073C77.9652 121.714 77.4317 121.763 77.0198 121.801C76.4863 121.85 76.374 121.889 76.1681 122.374C75.8124 123.209 75.2134 123.986 74.3804 124.307C73.6784 124.579 71.4227 124.501 72.5739 123.404C73.2572 122.763 74.5395 122.617 74.4553 121.491C73.1355 121.491 73.7439 119.451 74.7641 119.461C75.2415 119.461 75.2321 119.888 75.7282 119.685C76.0651 119.539 76.3272 119.199 76.3647 118.84C76.4021 118.451 76.0745 118.043 76.2243 117.645C76.3553 117.286 76.8888 116.975 77.1977 117.14C77.3755 117.237 77.4691 117.636 77.6469 117.762C77.8529 117.908 77.8903 117.849 78.1617 117.908C78.5923 117.995 78.8731 117.975 79.1258 118.374C79.3785 118.781 79.3223 119.267 79.7529 119.587C80.146 119.879 80.6234 119.811 81.0633 119.694C81.9899 119.442 82.8978 118.315 83.918 118.48C84.8914 118.646 85.1535 119.646 86.1175 118.694C86.4451 118.374 86.9974 118.034 87.4373 117.791C87.9708 117.5 88.6166 117.587 89.0565 118.024C89.0565 118.024 89.0565 118.024 89.0659 118.034C89.3841 118.344 89.8802 118.451 90.0861 118.888C90.9846 120.801 88.2609 122.938 86.6136 122.85L86.6417 122.831ZM134.18 134.833C133.413 134.813 132.757 134.483 132.018 134.338C131.438 134.221 130.352 134.357 129.856 133.998C128.939 133.328 130.024 131.978 131.026 131.376C131.381 131.162 131.821 131.191 132.149 131.434C132.795 131.91 134.002 132.755 134.816 133.143C136.352 133.872 135.687 134.862 134.161 134.823L134.18 134.833Z"/>
</mask>
<path d="M177.263 140.31C175.494 138.455 172.162 140.795 170.159 140.494C169.448 137.523 172.593 137.795 174.343 137.163C174.483 134.93 172.368 135.241 173.388 132.784C174.184 130.861 176.009 130.123 177.815 130.803C178.471 128.657 176.561 128.89 176.318 127.288C176.056 125.54 178.667 125.569 175.728 123.909C173.734 122.782 169.504 121.306 167.52 122.481C166.733 121.277 166.556 119.918 167.136 118.694C163.935 117.849 164.758 112.916 161.033 112.266C160.462 112.169 159.611 112.916 158.909 112.829C157.776 112.703 157.112 111.984 156.035 111.654C153.976 111.033 153.424 111.586 151.477 112.314C151.73 112.848 151.477 113.324 151.936 113.868C150.56 115.218 148.866 115.732 148.435 117.781C147.349 116.189 146.629 115.965 145.047 115.868C143.25 115.762 141.219 117.034 141.79 113.693C138.804 113.625 138.289 113.159 136.426 110.945C134.461 108.615 133.328 108.547 131.344 110.809C129.949 112.402 129.229 113.625 127.132 114.412C124.942 115.227 122.602 114.557 121.058 116.674C120.225 113.635 126.636 112.198 128.143 110.052C129.453 108.178 129.332 107.867 128.405 105.973C127.563 104.255 127.385 103.322 126.87 101.477C126.14 98.875 126.056 99.2634 123.669 100.662C121.6 101.866 121.788 102.07 120.73 104.245C119.242 107.304 117.267 109.984 114.637 111.411C113.242 106.828 120.159 105.303 118.278 101.196C117.969 100.526 115.348 98.0108 114.534 97.6612C113.018 97.0106 109.704 97.1563 108.394 98.0885C107.477 98.7391 107.477 99.6907 106.793 100.312C106.082 100.963 105.043 101.021 104.369 101.749C103.021 103.196 103.124 105.08 101.234 106.187C100.382 106.682 99.4646 106.42 98.5661 106.954C97.7798 107.42 97.6582 108.362 96.769 108.751C93.2871 110.275 95.1029 107.556 95.0655 105.391C94.0453 105.721 92.9783 106.313 91.9581 106.711C91.2561 104.391 93.6241 103.565 95.3837 103.4C97.6582 103.186 98.2197 103.837 100.185 102.031C102.497 99.9043 104.94 96.6125 105.745 93.5246C104.931 92.7477 104.135 91.9417 103.162 91.4659C103.012 90.0288 102.45 88.1547 101.571 87.0185C100.363 85.4454 99.3897 85.7076 97.705 84.8725C94.4571 83.2606 94.9251 81.7652 91.1999 82.8236C91.0595 82.474 90.9098 82.3575 90.6758 81.8817C91.1812 81.9011 90.6945 81.6972 90.4979 81.7361C90.4698 81.6584 90.4324 81.571 90.423 81.4933C90.4137 81.2699 90.5073 81.27 90.5167 81.066C90.395 80.9981 90.2639 80.9786 90.1329 81.0078C90.2359 80.9689 90.2733 80.901 90.2639 80.7844C89.3841 81.0272 88.4481 81.4253 87.4654 81.5613C87.3437 80.7747 87.1284 79.59 87.3343 78.8229C82.4672 78.5704 80.8854 80.9883 77.1602 83.1441C73.5099 85.2512 69.1951 84.5035 68.6428 89.8152C67.4073 90.0871 66.0876 90.1939 64.927 90.893C63.6353 91.6796 64.094 92.505 62.5403 92.9031C59.985 93.544 57.2426 89.5141 57.8042 94.214C58.0101 95.9619 59.1427 95.8939 58.3377 97.8846C57.8697 99.0401 56.8214 99.8946 55.9416 100.73C53.7795 102.788 51.112 103.818 51.6455 107.255C53.377 107.945 53.1992 110.761 52.6189 112.237C50.2789 112.489 51.9637 109.042 50.7937 107.818C49.6518 109.255 49.3991 111.576 47.368 111.974C46.9375 109.022 49.4459 107.061 48.8843 104.293C46.8626 103.876 43.9704 107.488 44.0828 103.458C43.7645 103.439 43.4089 103.381 43.0906 103.371C42.7256 102.118 43.2965 101.361 44.3729 100.924C46.039 100.244 45.8237 101.594 47.1247 101.691C49.1838 101.846 49.9794 100.963 51.5238 99.2052C54.9776 95.2821 54.2662 92.7477 52.3475 88.2324C49.8577 88.3003 49.0902 92.0874 47.0405 93.3498C46.404 89.7083 51.9075 86.9117 45.4025 87.8439C41.4152 88.4168 40.5916 91.7184 37.456 93.7964C34.7979 95.554 30.9978 94.2528 28.6578 96.8261C26.8888 98.7682 28.3864 99.9043 27.8529 102.031C27.5721 103.148 25.8967 105.313 25.1573 105.886C25.1573 105.468 24.8203 104.818 24.8671 104.264C21.9469 105.633 23.0607 108.032 23.2947 110.625C23.5287 113.227 21.6848 114.286 22.0124 116.936C24.2681 117.072 26.0371 117.053 28.0775 116.762C28.0963 116.878 28.0495 116.956 27.9465 116.995C28.9293 117.267 30.0431 117.286 31.0071 117.606C30.1086 119.617 27.8997 118.15 27.0948 120.102C26.814 120.782 28.5455 121.364 28.1337 121.976C27.1041 123.501 26.4489 121.733 25.4381 121.423C21.9188 120.316 16.228 121.559 20.936 125.297C20.5335 126.064 13.3359 124.821 15.8724 129.405C15.9473 129.541 18.4744 131.036 18.8394 131.327C20 132.26 20.5991 133.182 22.2089 133.104C22.1809 133.658 21.9188 134.726 21.6661 135.231C18.8675 136.688 18.8581 133.745 17.2389 132.716C16.6024 132.318 15.1891 132.522 14.3093 132.162C13.2704 131.735 12.9521 130.832 11.8757 130.609C11.127 132.609 12.6807 133.901 12.4467 135.891C12.2408 137.581 10.6683 139.863 9.91019 141.358C8.97421 143.213 8.01952 144.99 7.22393 146.845C6.94314 147.505 6.24116 148.651 6.22244 149.389C6.19436 150.389 7.15841 151.01 7.03674 151.884C6.62491 154.798 4.50024 152.875 3.01203 154.584C1.57062 156.235 3.67658 158.148 3.09627 159.993C2.66572 161.352 0.147937 162.294 0.0169001 163.741C-0.226454 166.285 2.22581 164.79 3.03075 163.498C5.02438 164.673 4.14456 166.071 3.48938 167.606C2.44108 170.053 2.77804 170.033 3.09627 172.325C3.33026 174.024 0.559768 184.764 5.61405 179.957C9.11461 176.627 4.47216 171.296 6.19436 167.45C6.82146 166.033 8.51558 166.149 9.63876 165.401C11.9319 163.867 11.4452 163.566 13.7103 165.722C15.7039 163.081 12.69 162.547 12.0442 161.109C10.5935 157.895 13.5979 160.119 15.3108 159.944C20.9454 159.381 15.498 153.671 14.5714 151.282C14.1689 150.234 14.3654 149.292 13.6541 148.36C12.9428 147.418 11.5575 148.321 11.3048 146.631C10.7339 142.834 13.8975 146.223 14.7679 146.301C16.2468 146.427 17.8005 143.126 18.9892 143.64C20.8424 144.456 17.7537 147.476 17.7443 148.525C18.7926 148.787 19.7005 148.311 20.3183 147.486C20.8705 149.379 19.0173 150.039 19.3449 151.846C21.769 151.865 21.6099 153.856 23.5661 154.603C26.6455 155.769 26.3834 153.545 25.775 151.816C25.4662 150.942 23.2198 146.854 26.4583 148.068C28.2273 148.738 27.413 152.622 30.2022 152.127C30.7919 150.447 29.9495 148.136 32.3269 148.049C32.7013 149.913 34.4422 153.127 36.4639 150.03C37.1846 148.913 35.453 147.447 37.194 146.893C38.6822 146.427 38.5979 148.224 39.3842 148.787C40.161 149.34 41.1719 150.418 42.2763 149.971C43.8394 149.331 42.6882 147.757 43.5961 146.971C45.6552 145.165 47.6863 148.563 49.6893 148.816C49.8577 147.185 48.0513 144.359 50.2415 143.601C50.0356 143.174 50.2041 142.417 50.0543 141.97C50.9716 141.543 51.9637 141.193 52.8997 141.125C52.881 143.32 51.5893 144.873 51.6735 147.126C51.6548 146.757 52.2632 150.311 51.9169 150.01C52.7218 151.049 55.2396 150.243 56.653 150.292C56.9244 150.302 57.5234 151.205 58.7215 151.71C59.6481 152.108 61.1644 152.185 61.7447 151.952C62.5403 151.632 60.5747 149.36 59.3111 148.612C58.3003 148.02 57.252 149.758 56.1475 149.399C55.2396 149.107 55.3332 147.631 54.3411 147.126C53.8357 145.563 53.4893 142.747 55.6889 142.533C57.8136 142.32 57.7855 144.961 60.3875 143.611C60.453 144.718 60.1722 146.291 60.6309 147.253C61.0146 148.068 62.1097 148.282 62.5683 149.107C63.5511 150.855 62.8678 154.875 66.0034 154.429C66.5556 157.254 66.7147 160.187 62.8304 158.536C61.9599 158.167 60.7245 156.526 59.9008 156.604C58.0101 156.778 58.3284 158.468 59.1614 159.575C60.4062 161.236 61.3609 159.983 62.7742 160.818C64.1969 161.663 63.6728 163.469 65.76 163.537C68.4744 163.624 68.5399 159.789 70.833 158.798C73.4912 161.138 74.605 161.867 77.7686 162.983C78.3209 163.178 79.1352 163.168 79.6406 163.586C80.2583 164.1 80.1741 165.528 80.6421 165.819C81.812 166.547 82.5983 166.295 83.1599 164.411C85.0131 164.294 87.7181 163.77 87.9614 166.256C90.6009 166.518 92.3325 163.857 94.8502 164.43C95.9172 164.673 99.9232 169.596 98.8937 164.964C99.839 165.081 100.307 165.965 100.663 166.829C101.346 165.722 101.355 164.343 101.299 163.032C103.461 162.857 103.948 163.848 105.595 164.304C106.831 164.644 108.366 164.926 109.002 162.993C109.639 161.061 108.3 159.294 106.859 158.488C104.201 156.992 104.388 159.565 102.095 159.07C102.113 157.526 101.542 155.71 99.942 155.468C101.337 153.147 105.258 156.594 106.531 152.953C107.289 150.787 105.24 147.32 109.227 147.233C109.545 150.525 110.921 149.962 112.465 151.632C115.414 154.817 110.949 152.923 109.536 153.351C107.112 154.079 108.497 156.176 109.807 157.439C111.735 159.274 112.54 158.4 114.861 157.099C118.418 155.108 121.32 152.923 125.279 151.622C128.995 150.399 133.048 148.826 136.819 147.534C139.515 146.621 142.52 147.301 145.299 146.641C148.912 145.786 147.827 143.631 146.928 140.601C149.128 140.222 147.331 144.252 150.12 144.679C153.471 145.194 150.803 141.912 152.984 140.29C152.965 141.543 152.45 142.533 152.544 143.825C153.92 143.893 155.352 143.834 156.737 143.912C156.438 149.787 159.891 145.398 162.615 146.126C162.868 148.796 168.952 144.398 170.664 144.699C172.078 144.951 172.78 146.427 174.362 146.039C174.951 146.116 172.518 141.543 174.605 143.864C176.973 144.738 179.425 142.553 177.282 140.31H177.263ZM33.0195 111.945C32.5702 112.78 31.5594 112.266 31.0727 111.838C30.82 111.615 30.5672 111.382 30.2303 111.353C29.7436 111.314 29.7436 111.508 29.6781 111.897C29.547 112.654 28.9386 113.004 28.4145 112.353C28.2179 112.12 28.115 111.78 27.9091 111.557C27.6189 111.246 27.4598 111.343 27.2351 111.596C26.9918 111.868 26.7391 112.042 26.3179 111.829C25.8967 111.615 25.9435 111.207 25.9809 110.799C26.0465 110.091 26.3085 109.421 26.4021 108.712C26.4396 108.459 26.5425 108.081 26.4396 107.857C26.3366 107.634 25.9997 107.43 25.8218 107.236C25.7657 106.74 25.9529 106.507 26.346 106.226C26.6174 106.032 27.1135 105.701 27.076 105.303C27.2913 105.07 27.7406 104.284 28.0775 104.876C28.2086 104.954 28.4332 105.129 28.4706 105.245C28.8263 105.294 29.2756 105.323 29.547 105.051C29.8372 104.769 29.7342 104.323 29.884 104.041C29.884 104.041 30.4362 104.575 30.6421 104.633C30.8948 104.711 31.1943 104.614 31.4471 104.721C32.018 104.963 32.2333 105.643 31.9525 106.187C31.784 106.517 31.6436 106.711 31.2786 106.702C30.9697 106.702 30.6983 106.585 30.38 106.595C29.8372 106.624 28.8918 107.177 29.6125 107.799C30.1367 108.255 31.0633 107.624 31.681 107.702C32.0086 107.741 32.2801 107.954 32.1397 108.362C32.0274 108.683 31.653 108.799 31.3722 108.877C31.0539 108.964 30.3145 108.906 30.146 109.294C30.0244 109.576 30.3613 110.013 30.6047 110.091C31.2879 110.304 31.8682 109.489 32.4673 110.032C32.8604 110.392 33.2909 111.411 33.0195 111.926V111.945ZM35.2471 98.5837C34.8447 98.4963 33.553 97.6224 33.1693 97.9817C32.5421 98.5643 33.8712 99.2634 34.0491 99.7295C35.0412 102.332 31.3254 99.8849 30.6515 99.2926C28.9761 97.8457 31.2411 96.7678 32.6451 96.6028C34.0023 96.4474 36.6979 97.4087 36.7541 97.9525C36.8477 98.9041 35.8274 98.7002 35.2471 98.574V98.5837ZM71.9281 113.907C71.7035 113.081 72.5271 111.858 71.6286 111.372C71.0296 111.052 69.8596 110.916 69.6724 110.061C69.4291 108.945 71.2542 109.411 71.7784 109.44C72.7331 109.489 73.2104 109.042 73.3789 108.139C73.435 107.847 73.3227 107.119 73.4912 106.896C73.8562 106.42 74.2587 106.915 74.4927 107.197C75.1572 107.993 75.5504 108.226 76.3459 107.43C77.0292 106.75 77.5065 106.294 76.6267 105.507C75.7843 104.76 75.0449 105.109 74.0715 105.08C73.6878 105.07 73.0326 105.051 73.3227 104.497C73.5099 104.138 74.2213 104.08 74.5395 103.954C75.41 103.614 75.8124 102.458 76.7016 102.283C78.7233 101.895 78.1617 105.837 79.9495 105.342C80.7544 105.119 80.8199 104.041 80.8854 103.303C80.9229 102.934 80.7731 102.361 81.2505 102.235C81.6529 102.128 82.0554 102.691 82.0554 102.691C82.3268 103.012 82.1958 103.303 82.252 103.682C82.2988 104.012 82.4766 104.274 82.617 104.565C82.9259 105.216 83.085 105.886 82.9914 106.634C82.7948 108.158 81.2785 109.197 80.2115 110.071C79.7435 110.46 79.3598 110.877 79.0603 111.421C78.8731 111.761 78.4987 112.615 78.0494 112.654C77.1322 112.751 78.0681 110.683 78.0026 110.227C77.8341 109.032 76.8046 110.178 76.3085 110.498C76.009 110.693 75.5036 110.916 75.3912 111.266C75.2602 111.703 75.6533 112.11 75.5316 112.547C75.3632 113.159 74.9045 112.829 74.5395 112.547C74.3055 112.373 74.3804 112.14 74.0528 112.256C73.903 112.314 73.8001 112.576 73.7439 112.712C73.4818 113.276 73.4538 113.703 72.9577 114.15C72.5271 114.538 72.1247 114.557 71.9375 113.907H71.9281ZM86.6417 122.831C86.2299 122.811 85.8836 122.627 85.6028 122.297C85.3501 121.996 85.2284 121.384 84.8072 121.588C84.4234 121.772 84.4796 122.471 84.3954 122.821C84.2737 123.297 84.0865 123.666 83.7215 123.996C83.3471 124.355 82.3081 124.802 81.784 124.501C81.2505 124.2 81.7278 123.229 81.3721 122.802C81.2785 121.996 80.6327 123.559 80.5859 123.714C80.3332 124.637 79.6406 125.045 79.079 125.792C78.5642 126.482 77.8061 127.317 77.076 126.317C76.6361 125.715 76.6267 124.501 76.9918 123.889C77.31 123.355 78.742 122.811 78.2179 122.073C77.9652 121.714 77.4317 121.763 77.0198 121.801C76.4863 121.85 76.374 121.889 76.1681 122.374C75.8124 123.209 75.2134 123.986 74.3804 124.307C73.6784 124.579 71.4227 124.501 72.5739 123.404C73.2572 122.763 74.5395 122.617 74.4553 121.491C73.1355 121.491 73.7439 119.451 74.7641 119.461C75.2415 119.461 75.2321 119.888 75.7282 119.685C76.0651 119.539 76.3272 119.199 76.3647 118.84C76.4021 118.451 76.0745 118.043 76.2243 117.645C76.3553 117.286 76.8888 116.975 77.1977 117.14C77.3755 117.237 77.4691 117.636 77.6469 117.762C77.8529 117.908 77.8903 117.849 78.1617 117.908C78.5923 117.995 78.8731 117.975 79.1258 118.374C79.3785 118.781 79.3223 119.267 79.7529 119.587C80.146 119.879 80.6234 119.811 81.0633 119.694C81.9899 119.442 82.8978 118.315 83.918 118.48C84.8914 118.646 85.1535 119.646 86.1175 118.694C86.4451 118.374 86.9974 118.034 87.4373 117.791C87.9708 117.5 88.6166 117.587 89.0565 118.024C89.0565 118.024 89.0565 118.024 89.0659 118.034C89.3841 118.344 89.8802 118.451 90.0861 118.888C90.9846 120.801 88.2609 122.938 86.6136 122.85L86.6417 122.831ZM134.18 134.833C133.413 134.813 132.757 134.483 132.018 134.338C131.438 134.221 130.352 134.357 129.856 133.998C128.939 133.328 130.024 131.978 131.026 131.376C131.381 131.162 131.821 131.191 132.149 131.434C132.795 131.91 134.002 132.755 134.816 133.143C136.352 133.872 135.687 134.862 134.161 134.823L134.18 134.833Z" fill="url(#paint20_linear_44089_7332)" stroke="white" stroke-width="2" mask="url(#path-21-inside-1_44089_7332)"/>
<mask id="path-22-inside-2_44089_7332" fill="white">
<path d="M51.896 150.021C51.896 150.021 51.8586 149.982 51.8398 149.953C51.8586 149.982 51.8773 150.002 51.896 150.021Z"/>
</mask>
<path d="M51.896 150.021C51.896 150.021 51.8586 149.982 51.8398 149.953C51.8586 149.982 51.8773 150.002 51.896 150.021Z" fill="url(#paint21_linear_44089_7332)"/>
<path d="M51.896 150.021L51.176 150.715L52.616 149.327L51.896 150.021ZM51.896 150.021C52.616 149.327 52.6161 149.327 52.6161 149.327C52.6161 149.327 52.6162 149.327 52.6162 149.327C52.6163 149.327 52.6163 149.327 52.6164 149.328C52.6165 149.328 52.6166 149.328 52.6167 149.328C52.6169 149.328 52.6171 149.328 52.6173 149.328C52.6177 149.329 52.6181 149.329 52.6184 149.33C52.6191 149.33 52.6198 149.331 52.6203 149.332C52.6214 149.333 52.6222 149.334 52.6228 149.334C52.624 149.336 52.6253 149.337 52.6271 149.339C52.6285 149.341 52.6331 149.346 52.6398 149.354C52.6448 149.361 52.6611 149.381 52.6811 149.413L51.8398 149.953L50.9986 150.494C51.05 150.574 51.1049 150.637 51.1228 150.657C51.1363 150.672 51.1482 150.685 51.1569 150.695C51.1613 150.7 51.1652 150.704 51.1684 150.707C51.17 150.709 51.1715 150.71 51.1727 150.712C51.1733 150.712 51.1739 150.713 51.1745 150.713C51.1747 150.714 51.175 150.714 51.1753 150.714C51.1754 150.714 51.1755 150.715 51.1756 150.715C51.1757 150.715 51.1757 150.715 51.1758 150.715C51.1758 150.715 51.1759 150.715 51.1759 150.715C51.1759 150.715 51.176 150.715 51.896 150.021ZM51.8398 149.953L50.9986 150.494C51.0754 150.613 51.1558 150.694 51.176 150.715L51.896 150.021L52.616 149.327C52.6043 149.315 52.6148 149.325 52.6274 149.34C52.6431 149.359 52.6621 149.383 52.6811 149.413L51.8398 149.953Z" fill="white" mask="url(#path-22-inside-2_44089_7332)"/>
<path d="M185.943 94.7979C186.286 94.7488 186.586 94.9031 186.971 95.2578C187.166 95.4385 187.342 95.6299 187.559 95.8486C187.762 96.0543 187.993 96.2753 188.253 96.4482C189.27 97.1257 190.335 97.4729 191.305 97.8174C192.289 98.1671 193.194 98.5185 194.03 99.1895C195.694 100.523 197.283 101.602 198.925 102.744L198.93 102.748C199.072 102.844 199.237 102.872 199.393 102.841C199.397 102.84 199.401 102.838 199.405 102.837C199.367 102.955 199.32 103.066 199.262 103.171C199.063 103.527 198.745 103.839 198.335 104.119C197.499 104.692 196.414 105.053 195.503 105.401L195.324 105.469C195.271 105.486 195.208 105.509 195.133 105.532C194.951 105.589 194.721 105.661 194.467 105.746C193.961 105.915 193.343 106.141 192.78 106.422C192.233 106.695 191.668 107.053 191.338 107.514C191.166 107.754 191.043 108.043 191.042 108.371C191.041 108.702 191.163 109.015 191.378 109.304L191.379 109.306C191.596 109.594 191.886 109.76 192.22 109.799C192.529 109.835 192.836 109.756 193.106 109.647C193.638 109.434 194.229 109.019 194.765 108.651C195.331 108.262 195.86 107.909 196.34 107.718C196.817 107.528 197.114 107.549 197.332 107.709L197.334 107.71C197.811 108.057 197.996 108.632 197.884 109.465C197.771 110.304 197.361 111.302 196.785 112.304C196.213 113.299 195.497 114.262 194.807 115.025C194.189 115.709 193.631 116.188 193.242 116.41L193.086 116.489C191.339 117.243 189.228 117.801 187.313 118.403L187.311 118.404C187.061 118.484 186.791 118.596 186.537 118.7C186.275 118.807 186.018 118.911 185.763 118.991C185.241 119.155 184.816 119.193 184.471 119.043L184.469 119.042L184.205 118.923C184.078 118.861 183.996 118.813 183.943 118.778C183.95 118.76 183.958 118.738 183.968 118.711C183.998 118.629 184.036 118.519 184.061 118.389C184.112 118.114 184.1 117.792 183.954 117.403C183.855 117.139 183.61 116.696 183.336 116.217C183.194 115.969 183.037 115.7 182.876 115.423C182.714 115.145 182.548 114.859 182.386 114.575C182.059 114.006 181.755 113.457 181.544 113.02C181.438 112.8 181.362 112.621 181.318 112.488C181.301 112.437 181.293 112.399 181.288 112.374C181.348 112.194 181.431 112.079 181.522 111.999C181.627 111.908 181.768 111.838 181.958 111.789C182.365 111.685 182.859 111.704 183.444 111.704C183.72 111.704 184.014 111.699 184.29 111.661C184.565 111.624 184.857 111.55 185.115 111.391C185.386 111.224 185.597 110.977 185.714 110.64C185.826 110.316 185.844 109.935 185.788 109.504L185.715 108.944L185.168 109.084C184.022 109.377 180.866 109.644 178.166 109.196C176.813 108.972 175.648 108.578 174.906 107.979C174.543 107.686 174.292 107.353 174.158 106.973C174.025 106.593 173.995 106.131 174.134 105.56C174.153 105.48 174.213 105.377 174.357 105.24C174.503 105.103 174.691 104.969 174.919 104.812C175.133 104.665 175.388 104.494 175.604 104.305C175.819 104.115 176.041 103.868 176.152 103.545L176.151 103.544C176.439 102.718 176.273 102.03 176.076 101.469C176.028 101.331 175.976 101.196 175.93 101.073C175.882 100.948 175.838 100.833 175.802 100.721C175.728 100.496 175.689 100.307 175.692 100.129V100.127C175.706 99.1719 175.824 98.662 175.973 98.3857C176.094 98.1606 176.245 98.0694 176.508 98.0166C176.655 97.987 176.829 97.9717 177.047 97.9609C177.253 97.9507 177.512 97.9435 177.773 97.9238C178.313 97.8833 178.944 97.7869 179.629 97.4775L179.925 97.3447L179.923 97.0195C179.921 96.5471 179.965 96.2367 180.025 96.041C180.084 95.8516 180.144 95.818 180.146 95.8164C180.149 95.815 180.188 95.7913 180.322 95.8213C180.458 95.8518 180.633 95.9251 180.854 96.042C181.073 96.1575 181.306 96.2987 181.562 96.4531C181.811 96.6039 182.079 96.7664 182.347 96.9043C182.613 97.0415 182.9 97.1667 183.188 97.2354C183.478 97.3042 183.801 97.3237 184.118 97.2129L184.12 97.2119C184.571 97.0525 184.829 96.7512 184.979 96.418C185.112 96.1259 185.17 95.7764 185.219 95.5576C185.276 95.3005 185.331 95.144 185.418 95.0352C185.488 94.9482 185.617 94.8433 185.94 94.7988L185.943 94.7979ZM183.498 99.6299C183.003 99.5492 182.475 99.5401 182.029 99.6035C181.807 99.6352 181.587 99.6878 181.396 99.7686C181.216 99.845 181.001 99.9721 180.868 100.19L180.867 100.192C180.751 100.386 180.735 100.585 180.74 100.729C180.745 100.864 180.772 101.009 180.784 101.086C180.798 101.173 180.797 101.22 180.797 101.242L180.796 101.244C180.783 101.23 180.768 101.214 180.75 101.194C180.717 101.157 180.666 101.101 180.604 101.051C180.56 101.014 180.492 100.966 180.402 100.932C180.367 100.894 180.282 100.809 180.189 100.749C180.044 100.655 179.826 100.584 179.575 100.667C179.365 100.737 179.204 100.892 179.078 101.052C178.95 101.214 178.864 101.389 178.833 101.579C178.802 101.767 178.832 101.929 178.865 102.05C178.881 102.108 178.9 102.163 178.914 102.205C178.93 102.251 178.941 102.282 178.95 102.313C178.968 102.373 178.972 102.404 178.971 102.428V102.43C178.964 102.589 178.925 102.742 178.867 102.908C178.838 102.993 178.805 103.075 178.77 103.167C178.735 103.255 178.697 103.355 178.665 103.456C178.6 103.658 178.544 103.909 178.588 104.188C178.633 104.476 178.774 104.737 179.005 104.979L179.007 104.982C179.489 105.483 180.056 105.543 180.54 105.498C180.77 105.476 181.003 105.429 181.194 105.393C181.398 105.354 181.564 105.325 181.715 105.319C181.768 105.318 181.873 105.335 182.05 105.393C182.221 105.449 182.402 105.523 182.612 105.604C182.809 105.681 183.034 105.764 183.247 105.812C183.445 105.858 183.726 105.895 183.992 105.786L183.993 105.787C184.309 105.657 184.53 105.438 184.646 105.158C184.753 104.897 184.749 104.627 184.72 104.411H184.721L184.72 104.405L184.696 104.279C184.56 103.667 184.123 103.166 183.567 102.93C183.584 102.921 183.601 102.912 183.619 102.902C183.859 102.776 184.26 102.592 184.562 102.411C184.723 102.315 184.889 102.202 185.03 102.069C185.085 102.018 185.138 101.957 185.188 101.892H185.283L185.389 101.531C185.47 101.251 185.456 100.974 185.349 100.72C185.244 100.474 185.067 100.286 184.874 100.145C184.497 99.8674 183.984 99.7091 183.498 99.6299Z" fill="url(#paint22_linear_44089_7332)" stroke="white"/>
<path d="M117.519 0.570312C95.8981 0.570312 78.3672 18.758 78.3672 41.1892C78.3672 72.2821 102.918 101.511 113.139 112.338C115.544 114.882 119.494 114.882 121.9 112.338C132.12 101.52 156.671 72.2821 156.671 41.1892C156.671 18.758 139.14 0.570312 117.519 0.570312ZM117.519 61.1636C106.886 61.1636 98.2661 52.2203 98.2661 41.1892C98.2661 30.1581 106.886 21.2148 117.519 21.2148C128.152 21.2148 136.772 30.1581 136.772 41.1892C136.772 52.2203 128.152 61.1636 117.519 61.1636Z" fill="#06DF72"/>
<defs>
<linearGradient id="paint0_linear_44089_7332" x1="145.998" y1="96.0159" x2="145.998" y2="108.267" gradientUnits="userSpaceOnUse">
<stop stop-color="white" stop-opacity="0.3"/>
<stop offset="1" stop-color="white" stop-opacity="0.6"/>
</linearGradient>
<linearGradient id="paint1_linear_44089_7332" x1="171.412" y1="99.634" x2="171.412" y2="103.499" gradientUnits="userSpaceOnUse">
<stop stop-color="white" stop-opacity="0.3"/>
<stop offset="1" stop-color="white" stop-opacity="0.6"/>
</linearGradient>
<linearGradient id="paint2_linear_44089_7332" x1="37.758" y1="153.212" x2="37.758" y2="175.117" gradientUnits="userSpaceOnUse">
<stop stop-color="white" stop-opacity="0.3"/>
<stop offset="1" stop-color="white" stop-opacity="0.6"/>
</linearGradient>
<linearGradient id="paint3_linear_44089_7332" x1="26.6786" y1="176.453" x2="26.6786" y2="178.79" gradientUnits="userSpaceOnUse">
<stop stop-color="white" stop-opacity="0.3"/>
<stop offset="1" stop-color="white" stop-opacity="0.6"/>
</linearGradient>
<linearGradient id="paint4_linear_44089_7332" x1="30.5026" y1="170.018" x2="30.5026" y2="183.774" gradientUnits="userSpaceOnUse">
<stop stop-color="white" stop-opacity="0.3"/>
<stop offset="1" stop-color="white" stop-opacity="0.6"/>
</linearGradient>
<linearGradient id="paint5_linear_44089_7332" x1="45.4013" y1="148.091" x2="45.4013" y2="151.054" gradientUnits="userSpaceOnUse">
<stop stop-color="white" stop-opacity="0.3"/>
<stop offset="1" stop-color="white" stop-opacity="0.6"/>
</linearGradient>
<linearGradient id="paint6_linear_44089_7332" x1="57.6013" y1="176.997" x2="57.6013" y2="179.943" gradientUnits="userSpaceOnUse">
<stop stop-color="white" stop-opacity="0.3"/>
<stop offset="1" stop-color="white" stop-opacity="0.6"/>
</linearGradient>
<linearGradient id="paint7_linear_44089_7332" x1="46.9066" y1="187.079" x2="46.9066" y2="192.114" gradientUnits="userSpaceOnUse">
<stop stop-color="white" stop-opacity="0.3"/>
<stop offset="1" stop-color="white" stop-opacity="0.6"/>
</linearGradient>
<linearGradient id="paint8_linear_44089_7332" x1="49.0637" y1="196.752" x2="49.0637" y2="200.57" gradientUnits="userSpaceOnUse">
<stop stop-color="white" stop-opacity="0.3"/>
<stop offset="1" stop-color="white" stop-opacity="0.6"/>
</linearGradient>
<linearGradient id="paint9_linear_44089_7332" x1="62.1787" y1="178.141" x2="62.1787" y2="180.406" gradientUnits="userSpaceOnUse">
<stop stop-color="white" stop-opacity="0.3"/>
<stop offset="1" stop-color="white" stop-opacity="0.6"/>
</linearGradient>
<linearGradient id="paint10_linear_44089_7332" x1="67.2119" y1="175.581" x2="67.2119" y2="182.821" gradientUnits="userSpaceOnUse">
<stop stop-color="white" stop-opacity="0.3"/>
<stop offset="1" stop-color="white" stop-opacity="0.6"/>
</linearGradient>
<linearGradient id="paint11_linear_44089_7332" x1="65.4294" y1="180.341" x2="65.4294" y2="182.611" gradientUnits="userSpaceOnUse">
<stop stop-color="white" stop-opacity="0.3"/>
<stop offset="1" stop-color="white" stop-opacity="0.6"/>
</linearGradient>
<linearGradient id="paint12_linear_44089_7332" x1="78.7484" y1="188.093" x2="78.7484" y2="192.998" gradientUnits="userSpaceOnUse">
<stop stop-color="white" stop-opacity="0.3"/>
<stop offset="1" stop-color="white" stop-opacity="0.6"/>
</linearGradient>
<linearGradient id="paint13_linear_44089_7332" x1="67.3095" y1="186.016" x2="67.3095" y2="197.084" gradientUnits="userSpaceOnUse">
<stop stop-color="white" stop-opacity="0.3"/>
<stop offset="1" stop-color="white" stop-opacity="0.6"/>
</linearGradient>
<linearGradient id="paint14_linear_44089_7332" x1="93.8034" y1="165.766" x2="93.8034" y2="169.214" gradientUnits="userSpaceOnUse">
<stop stop-color="white" stop-opacity="0.3"/>
<stop offset="1" stop-color="white" stop-opacity="0.6"/>
</linearGradient>
<linearGradient id="paint15_linear_44089_7332" x1="91.5123" y1="167.452" x2="91.5123" y2="176.994" gradientUnits="userSpaceOnUse">
<stop stop-color="white" stop-opacity="0.3"/>
<stop offset="1" stop-color="white" stop-opacity="0.6"/>
</linearGradient>
<linearGradient id="paint16_linear_44089_7332" x1="102.26" y1="178.948" x2="102.26" y2="181.363" gradientUnits="userSpaceOnUse">
<stop stop-color="white" stop-opacity="0.3"/>
<stop offset="1" stop-color="white" stop-opacity="0.6"/>
</linearGradient>
<linearGradient id="paint17_linear_44089_7332" x1="105.37" y1="181.817" x2="105.37" y2="183.655" gradientUnits="userSpaceOnUse">
<stop stop-color="white" stop-opacity="0.3"/>
<stop offset="1" stop-color="white" stop-opacity="0.6"/>
</linearGradient>
<linearGradient id="paint18_linear_44089_7332" x1="103.025" y1="182.02" x2="103.025" y2="185.24" gradientUnits="userSpaceOnUse">
<stop stop-color="white" stop-opacity="0.3"/>
<stop offset="1" stop-color="white" stop-opacity="0.6"/>
</linearGradient>
<linearGradient id="paint19_linear_44089_7332" x1="100.085" y1="182.971" x2="100.085" y2="187.014" gradientUnits="userSpaceOnUse">
<stop stop-color="white" stop-opacity="0.3"/>
<stop offset="1" stop-color="white" stop-opacity="0.6"/>
</linearGradient>
<linearGradient id="paint20_linear_44089_7332" x1="89.0525" y1="77.0474" x2="89.0525" y2="181.185" gradientUnits="userSpaceOnUse">
<stop stop-color="white" stop-opacity="0.3"/>
<stop offset="1" stop-color="white" stop-opacity="0.6"/>
</linearGradient>
<linearGradient id="paint21_linear_44089_7332" x1="51.8679" y1="149.952" x2="51.8679" y2="150.021" gradientUnits="userSpaceOnUse">
<stop stop-color="white" stop-opacity="0.3"/>
<stop offset="1" stop-color="white" stop-opacity="0.6"/>
</linearGradient>
<linearGradient id="paint22_linear_44089_7332" x1="186.771" y1="93.854" x2="186.771" y2="119.637" gradientUnits="userSpaceOnUse">
<stop stop-color="white" stop-opacity="0.3"/>
<stop offset="1" stop-color="white" stop-opacity="0.6"/>
</linearGradient>
</defs>
</svg>
